<?xml version="1.0" encoding="UTF-8"?>
<svg id="Layer_2" data-name="Layer 2" xmlns="http://www.w3.org/2000/svg" viewBox="0 0 1136.15 442.11">
  <defs>
    <style>
      .cls-1, .cls-2 {
        fill: #fff;
      }

      .cls-3 {
        fill: #231f20;
      }

      .cls-4 {
        fill: #145840;
      }

      .cls-5, .cls-6 {
        fill: #9d2236;
      }

      .cls-6, .cls-2 {
        fill-rule: evenodd;
      }
    </style>
  </defs>
  <g id="Layer_1-2" data-name="Layer 1">
    <path class="cls-6" d="m295.93,420.85v20.45h-20.36c0-1.7-.28-3.22-.28-4.73,0-17.28,0-34.66-.33-52.08,0-6.06.99-12.17-3.69-17.94,1.94,0,3.31-.24,4.73-.24h61.55c12.46-.28,23.48,8.02,26.66,20.08,1.38,5.81,1.13,11.89-.71,17.57-2.35,6.76-7.54,12.16-14.2,14.77,5.21,7.72,11.17,14.49,16.76,22.16-.75.26-1.53.43-2.32.52h-17.14c-1.85.06-3.57-.91-4.5-2.51-3.6-5.26-7.39-10.37-10.89-15.67-1.19-1.92-3.33-3.03-5.59-2.89h-25.85c-1.18.26-2.39.4-3.6.43m.33-15.91h38.59c5.22.24,9.65-3.8,9.89-9.03.01-.24.01-.48,0-.72,1.29-5.52-2.14-11.05-7.66-12.35-1.28-.3-2.6-.35-3.89-.15h-33.76c-.99,0-2.08,0-3.22.28-.14,7.39-.14,14.39-.14,22.06l.19-.09Z"/>
    <path class="cls-6" d="m759.22,441.73h-18.04c-1.14,0-2.41-1.47-3.41-2.41-10.89-11.03-21.69-22.06-32.53-33.14-3.74-3.88-7.53-7.76-11.41-11.65-.9-.9-1.89-1.8-3.5-3.31-.28,17.19,0,33.57,0,50.33h-20.08v-62.36c0-4.73.71-9.47-4.73-12.45.23-.19.46-.36.71-.52.59-.14,1.19-.24,1.8-.28h19.84c1.74.04,3.37.88,4.4,2.27,8.57,8.71,17,17.38,25.57,25.99l19.46,19.84c.9.9,1.89,1.7,3.22,2.98.54-4.3.67-8.65.38-12.97v-38.07h18.65v75.47"/>
    <path class="cls-6" d="m864.85,401.67v26.85c-.07,1.61-.37,3.21-.9,4.73-.8,3.59-3.6,6.4-7.2,7.2-3.22.73-6.5,1.16-9.8,1.28h-46.87c-3.3-.08-6.59-.51-9.8-1.28-3.47-.66-6.21-3.35-6.91-6.82-.84-3.09-1.3-6.27-1.37-9.47v-40.53c.06-2.92.42-5.82,1.09-8.66.71-4.21,4.06-7.48,8.29-8.1,2.23-.55,4.52-.85,6.82-.9h51.23c1.06-.1,2.12-.1,3.17,0,6.82-.14,12.47,5.28,12.61,12.1,0,.31,0,.61-.02.92.09,1.89.09,3.79,0,5.68l-19.36,4.17c0-2.7-.28-5.07-.38-7.76-.99,0-2.04-.33-3.03-.33h-34.94c-4.73,0-5.87,1.14-5.87,5.82v30.21c-.05,1.18.04,2.35.28,3.5.42,2.85,2.85,4.98,5.73,5.02h37.88c.3-3.99.37-7.98.24-11.98-3.02-.3-6.06-.41-9.09-.33-3.59.71-7.08-1.63-7.79-5.22,0-.04-.02-.09-.02-.13-.66-2.04-1.7-4.02-2.7-6.3h39.06"/>
    <path class="cls-6" d="m592.84,390.5c-6.82,1.28-13.12,2.46-19.98,3.6v-12.5c-1.52,0-2.6-.38-3.79-.38h-34.14c-.66-.05-1.33-.05-1.99,0-2.84.28-4.12,1.47-4.12,4.36v33.76c-.24,3.5,2.39,6.53,5.89,6.77.29.02.59.02.88,0h35.75c.42-.12.83-.28,1.23-.47v-14.2l19.84,4.21c.48,5.94.14,11.91-.99,17.76-.81,3.75-3.73,6.67-7.48,7.48-2.96.67-5.97,1.08-9,1.23h-48.01c-3.29-.12-6.56-.59-9.75-1.42-3.18-.73-5.66-3.21-6.39-6.39-.83-3.19-1.3-6.46-1.42-9.75-.19-13.48-.19-26.96,0-40.43.07-3.2.53-6.38,1.37-9.47.73-3.47,3.44-6.18,6.91-6.91,3.09-.82,6.27-1.28,9.47-1.37h48.01c2.51.05,5.01.32,7.48.8,4.81.54,8.62,4.33,9.19,9.14.62,4.4.71,9.09,1.04,14.2"/>
    <path class="cls-6" d="m386.51,441.73l2.37-4.73c10.01-18.47,20.06-36.93,30.16-55.4.57-1.09,1.18-2.08,1.7-3.17,2.48-3.41,3.11-7.83,1.66-11.79,9.47-.28,18.47-.28,27.65,0l41.05,74.38c-.81.28-1.65.48-2.51.57h-16.33c-1.61.09-3.11-.81-3.79-2.27-2.04-4.12-4.31-8.1-6.44-12.17h-48.1c-1.99,3.88-4.17,7.76-5.97,11.65-.72,1.94-2.69,3.1-4.73,2.79h-16.86m67.47-30.11c-5.21-10.32-10.08-20.17-15.67-30.44-5.49,10.56-10.61,20.26-15.91,30.44h31.58Z"/>
    <path class="cls-6" d="m641.33,441.4h-20.08v-4.73c0-17.57,0-35.13-.28-52.79,0-5.73.8-11.69-3.41-16.62,7.86-.94,15.79-1.04,23.67-.28v74.48"/>
    <path class="cls-1" d="m3.37,290.22c-.83.05-1.61-.37-2.04-1.09-.49-.88-.49-1.96,0-2.84l5.68-9.94c.99-1.7,2.77-2.79,4.73-2.89h1120.94c.84-.05,1.65.37,2.08,1.09.52.89.52,1.99,0,2.89l-5.68,9.9c-.96,1.73-2.76,2.82-4.73,2.89H3.37"/>
    <path class="cls-3" d="m1132.69,274.4c1.28,0,1.7,1.09.99,2.37l-5.68,9.9c-.78,1.33-2.16,2.19-3.69,2.32H3.47c-1.23,0-1.7-1.04-.99-2.32l5.68-9.9c.77-1.35,2.15-2.23,3.69-2.37h1120.85m0-2.13H11.76c-2.29.13-4.36,1.42-5.49,3.41l-5.68,9.8c-.77,1.21-.77,2.76,0,3.98.62,1.07,1.8,1.69,3.03,1.61h1120.8c2.3-.11,4.38-1.4,5.49-3.41l5.68-9.9c.75-1.22.75-2.76,0-3.98-.64-.97-1.73-1.54-2.89-1.52Z"/>
    <path class="cls-4" d="m373.91,286.67c-.78,1.33-2.16,2.19-3.69,2.32H3.47c-1.23,0-1.7-1.04-.99-2.32l5.68-9.9c.77-1.35,2.15-2.23,3.69-2.37h366.75c1.28,0,1.7,1.09.99,2.37l-5.68,9.9"/>
    <path class="cls-5" d="m1128.01,286.67c-.78,1.33-2.16,2.19-3.69,2.32h-366.7c-1.28,0-1.75-1.04-.99-2.32l5.68-9.9c.77-1.35,2.15-2.23,3.69-2.37h366.7c1.28,0,1.7,1.09.99,2.37l-5.68,9.9"/>
    <path class="cls-2" d="m745.54,103.39c6.91-1.99,13.49-3.98,20.08-5.68,9-2.24,18.09-4.31,27.27-6.2,2.46-.52,4.99-.62,7.48-.28,3.89-.15,7.17,2.89,7.31,6.79.01.3,0,.59-.02.88,0,.71,0,1.52.28,2.79,2.51-.62,4.73-1.09,7.01-1.7,8.85-2.56,17.66-5.26,26.51-7.67,3.29-.86,6.68-1.32,10.08-1.37,6.3,0,8.52,2.37,8.52,8.57v2.37l5.87-1.66c10.89-2.84,21.78-5.82,32.76-8.71,2.94-.88,6.1-.73,8.95.43,2.95.91,4.67,3.97,3.93,6.96-.54,2.82-1.63,5.51-3.22,7.91-3.5,4.73-7.58,9.47-11.46,14.2s-6.82,8-10.08,12.17c-1.07,1.44-1.92,3.04-2.51,4.73-.71,2.13,0,3.31,2.27,3.6,2.47.24,4.96.24,7.43,0,6.68-.76,13.2-2.57,19.32-5.35,1.48-.51,2.61-1.71,3.03-3.22,6.39-18.94,19.74-31.01,36.93-39.63,9.53-5.18,20.21-7.89,31.06-7.86,2.62.11,5.21.64,7.67,1.56,3.85,1.17,6.03,5.24,4.86,9.09-.04.13-.08.25-.12.37-1.38,5.13-4.19,9.76-8.1,13.35-5.69,5.53-12.27,10.06-19.46,13.4-7.86,3.69-15.96,6.77-23.96,10.18l-1.61.66c.91,2.31,2.58,4.25,4.73,5.49,4,2.6,8.6,4.11,13.35,4.4,9.25.5,18.5-1.12,27.04-4.73l1.42-.66c4.99-1.18,8.95-4.97,10.37-9.9,3.36-8.35,8.93-15.63,16.1-21.07,11.96-10.46,26.41-17.68,41.95-20.97,5.53-1.31,11.26-1.49,16.86-.52,8.14.96,14.63,7.27,15.81,15.39.1.49.26.97.47,1.42,11.49-1.48,20.73-10.2,22.87-21.59,3.58-.45,7.21-.45,10.8,0-.05,2.75-.85,5.44-2.32,7.76-5.44,10.23-14.56,18.02-25.52,21.78-5.16,1.58-9.48,5.14-12.03,9.9-5.64,8.85-13.24,16.28-22.21,21.73-9.28,6.5-19.71,11.19-30.73,13.83-5.78,1.45-11.79,1.68-17.66.66-7.44-1.19-13.74-6.13-16.67-13.07l-.71-1.37c-1.52.76-3.08,1.37-4.73,2.08-11.16,5.3-22.93,9.22-35.04,11.69-7.61,1.66-15.46,1.89-23.15.66-7.54-1.16-14.15-5.67-17.99-12.26-.28-.43-.66-.8-.99-1.33-6.16,2.23-12.17,4.5-18.23,6.53-10.31,3.97-21.08,6.64-32.05,7.95-3.51.33-7.06.14-10.51-.57-4.84-.72-8.18-5.22-7.46-10.06.22-1.51.84-2.94,1.78-4.15,2.89-4.4,6.3-8.48,9.47-12.55,3.17-4.07,6.2-7.2,9.19-10.89,1.41-1.72,2.62-3.59,3.6-5.59,1.14-2.51,0-3.93-2.56-4.5-1.03-.19-2.09-.19-3.12,0-4.26.99-8.48,1.8-12.64,3.17-1.67.67-3.12,1.79-4.21,3.22-10.27,12.17-20.55,24.43-30.63,36.65-2.68,3.67-7.07,5.7-11.6,5.35-5.11-.28-10.27,0-15.39,0-1.56,0-3.27,0-4.17-2.08.79-1.38,1.66-2.7,2.6-3.98l25.14-29.97c1.8-2.09,3.39-4.36,4.73-6.77,2.18-3.98.71-6.11-3.69-6.01-5.93.48-11.72,2.08-17.04,4.73-1.14.52-2.04,1.99-2.94,3.03-10.04,11.93-20.03,23.67-29.83,35.79-2.83,3.7-7.33,5.73-11.98,5.4-4.97-.28-9.99,0-15.06,0-1.52,0-3.22,0-4.21-2.27,1.8-2.32,3.79-4.73,5.87-7.39,7.91-9.47,15.91-18.94,23.67-28.41,1.03-1.19,1.88-2.53,2.51-3.98,1.33-3.31,0-5.54-3.5-5.73-2.62-.15-5.26-.04-7.86.33-1.93.32-3.84.75-5.73,1.28-4.45.55-8.3,3.39-10.13,7.48-3.71,6.85-8.9,12.79-15.2,17.38-11.18,9.48-24.4,16.24-38.64,19.74-5.62,1.39-11.47,1.64-17.19.71-6.61-1.01-12.41-4.96-15.77-10.75l-1.28-1.8c-3.6,1.37-7.1,2.79-10.7,3.98-12.45,4.65-25.48,7.53-38.73,8.57-3.82.22-7.64-.12-11.36-.99-4.29-.68-7.21-4.7-6.54-8.99.21-1.31.75-2.55,1.56-3.6,1.41-2.21,2.99-4.3,4.73-6.25,5.97-6.82,11.98-13.68,17.85-20.6,2.32-2.79,4.5-5.87,6.58-8.95,1.08-1.88,2.05-3.82,2.89-5.82-1.99,0-3.27.24-4.45.43-9.1,2.17-18.58-1.62-23.67-9.47-.25-.27-.52-.53-.8-.76-.62.76-1.33,1.37-1.89,2.18-9.45,13.51-20.05,26.19-31.68,37.88-9.29,9.4-20.47,16.72-32.81,21.45-15.11,4.94-31.44,4.64-46.35-.85-3.22-1.09-6.49-2.32-9.47-3.6-4.4-1.8-4.73-2.7-.99-5.78,5.49-4.73,10.94-9.47,16.33-14.2,1.8-1.56,3.41-3.27,5.11-4.73q3.08-2.98,6.68-.99c6.03,3.62,13.07,5.2,20.08,4.5,6.41-.79,12.57-2.93,18.09-6.3,8.16-4.86,15.67-10.73,22.35-17.47,12.29-12.47,23.92-25.57,34.85-39.25,9.19-10.98,18.56-21.92,28.12-32.62,3.98-4.4,8.57-8.19,12.78-12.26l2.89-2.7c-5.4-1.09-10.08-2.32-14.87-2.98-18.58-2.66-37.53-.76-55.21,5.54-11.14,3.73-21.42,9.64-30.25,17.38-3.96,3.5-7.37,7.59-10.09,12.12-10.65,18.32,3.93,33.81,18.94,34.42l7.58.28c-.4.96-.9,1.86-1.52,2.7-5.49,5.02-11.08,10.18-16.67,15.1-.94.69-2.1,1.01-3.27.9-8.03-.66-15.72-3.58-22.16-8.43-8.38-6.54-11.71-17.68-8.29-27.75,2.94-10.32,8.51-19.69,16.15-27.22,10.54-11.1,23.15-20.03,37.12-26.28,22.55-10.46,47.43-14.86,72.2-12.78,8.38.86,16.71,2.17,24.95,3.93,1.61.61,3.42.3,4.73-.8,2.65-2.17,6.07-3.17,9.47-2.79,2.98.28,5.97,0,8.95,0,0,.28,0,.57.33.9-3.31,2.37-6.63,4.73-10.42,7.39,1.52.9,2.6,1.61,3.79,2.27,7.78,4.28,14.19,10.68,18.47,18.47,8.03,14.21,6.13,31.95-4.73,44.13-7.98,8.84-18.06,15.53-29.31,19.46-4.73,1.7-9.09,3.22-14.2,4.73,1.68,6.33.71,13.06-2.7,18.65-1.89,3.88-3.93,7.76-5.82,11.65-.89,1.75-1.68,3.56-2.37,5.4-1.52,4.73.28,7.39,5.35,7.62,1.71.18,3.43.1,5.11-.24,5.07-1.47,9.99-3.17,14.96-4.73,1.4-.42,2.46-1.56,2.79-2.98,2.78-8.83,7.92-16.74,14.87-22.87,12.48-12.04,28.07-20.34,45.03-23.96,5.4-1.31,11.01-1.49,16.48-.52,8.16.79,14.74,7.01,16,15.1.15.68.38,1.35.66,1.99m-101.7-80.49c-16.59,17.02-31.49,35.6-44.51,55.49,10.56-3.02,21.92.1,29.45,8.1,7.3-3.35,13.97-7.91,19.74-13.49,4.47-4.11,8.04-9.11,10.46-14.68,3.83-8.39,2.45-18.23-3.55-25.24-3.11-3.99-6.89-7.42-11.17-10.13l-.43-.05Zm437.44,81.25c.63-4.35-2.39-8.38-6.73-9.01-.31-.04-.62-.07-.94-.08-3.66-.58-7.42-.21-10.89,1.09-13.65,5.2-24.98,15.11-31.96,27.93-1.18,2.19-2,4.56-2.41,7.01-1.03,4.41,1.71,8.81,6.12,9.83.29.07.59.12.89.16,4.05.65,8.2.16,11.98-1.42,6.01-2.29,11.63-5.48,16.67-9.47,2.38-1.64,3.92-4.23,4.21-7.1.61-5.78,4.2-10.81,9.47-13.26,3.31-1.56,4.31-3.46,4.02-5.63l-.43-.05Zm-357.56-9.47c-1.33,0-2.7,0-3.93.38-1.29.27-2.55.63-3.79,1.09-13.63,5.27-24.95,15.23-31.91,28.08-1.13,2.21-1.88,4.6-2.23,7.05-.98,4.31,1.73,8.59,6.04,9.57.26.06.52.1.78.14,3.25.61,6.6.39,9.75-.62,6.48-2.06,12.55-5.27,17.9-9.47,3.08-1.83,5.08-5.04,5.35-8.62.22-.88.62-1.7,1.18-2.41,1.61-4.68,5.02-8.53,9.47-10.7,1.12-.57,2.03-1.49,2.6-2.6,1.83-4.22-.11-9.13-4.33-10.96-1-.43-2.07-.67-3.15-.69-1.23-.09-2.32-.09-3.31-.19l-.43-.05Zm219.41,31.63c4.4-1.7,8.38-2.98,12.17-4.73,8.48-3.24,16-8.57,21.87-15.48,1.99-2.93,3.59-6.12,4.73-9.47.99-2.32-.28-3.5-2.79-3.08-9.97,1.28-19.24,5.8-26.37,12.88-5.02,5.55-8.23,12.51-9.19,19.93l-.43-.05Zm-324.8-34.85c-3.6-7.1-15.48-8.81-20.08-3.12,5.01,5.84,13.53,7.17,20.08,3.12Z"/>
    <path class="cls-2" d="m463.35,122.04c-2.12,2.78-4.41,5.42-6.87,7.91-13,12.46-29.21,21.03-46.83,24.76-7.05,1.53-14.2,2.5-21.4,2.89-4.62.11-9.23-.37-13.73-1.42-4.03-.68-7.52-3.18-9.47-6.77-6.3,1.99-12.07,4.21-17.99,5.68-7.9,2.22-16.23,2.47-24.24.71-7.29-.96-13.07-6.61-14.2-13.87,0-.28,0-.43-.71-.99-12.91,1.76-26.03,1.39-38.82-1.09-3.79,4.17-7.62,8.29-11.41,12.55-12.39,14.16-25.56,27.63-39.44,40.34-11.64,10.71-24.75,19.72-38.92,26.75-9.48,4.62-19.81,7.23-30.35,7.67-14.29.19-28.2-4.6-39.35-13.54l8.29-7.01c3.74,2.44,7.61,4.67,11.6,6.68,10.38,4.25,22.08,3.85,32.15-1.09,8.42-3.81,15.98-9.27,22.25-16.05,16.57-17.66,33.14-35.46,49.34-53.31.51-.54.94-1.14,1.28-1.8l-3.31.8c-15.01,5.29-30.37,9.51-45.97,12.64-6.3,1.04-12.78,1.42-18.94,1.94-2.09.08-4.17-.13-6.2-.62-6.3-1.18-8.48-3.69-8.81-10.27l-13.07,4.26c-10.44,3.61-21.26,6-32.24,7.1-3.55.25-7.13.13-10.65-.38-6.01-.9-8.38-3.5-9-9.9-.99.38-1.89.62-2.79.99-11.93,5.51-24.73,8.9-37.83,10.04-5.27.45-10.59-.22-15.58-1.99-13.73-4.87-21.8-19.09-18.94-33.38,2.29-13.01,7.75-25.26,15.91-35.65,25.02-33.88,61.74-57.25,103.03-65.58,7.22-1.36,14.53-2.2,21.87-2.51,10.33-.66,20.63,1.61,29.73,6.53h.71c3.23-3.95,8.32-5.86,13.35-5.02,6.3.33,12.59,0,18.94,0,.93-.09,1.86-.09,2.79,0,1.7,0,2.18,1.23,1.28,2.79s-1.28,1.7-1.89,2.51c-13.26,15.48-26.51,31.06-39.72,46.54-14.2,16.76-28.41,33.62-42.61,50.47-2.03,2.57-3.93,5.24-5.68,8-.55.74-1,1.55-1.33,2.41-.76,1.8-1.89,3.69-.57,5.59,1.33,1.89,3.69,1.28,5.49.99,2.22-.28,4.4-.82,6.49-1.61,7.95-3.27,15.77-6.49,23.67-9.99,1.55-.95,2.91-2.17,4.02-3.6,13.48-16.4,27.8-32.09,42.9-47.02,15.35-15.55,32.25-29.49,50.42-41.62,8.48-5.78,17.72-10.37,27.46-13.64,4.13-1.32,8.45-1.94,12.78-1.85,5.97,0,8.29,3.41,6.49,9.19-.78,2.64-2,5.14-3.6,7.39-4.32,6-9.07,11.68-14.2,17-18.12,18.61-39.47,33.78-63.02,44.74-3.69,1.75-7.58,3.17-11.36,4.73-1.75.53-3.26,1.63-4.31,3.12-5.49,7.86-11.17,15.67-16.76,23.67-1.03,1.35-1.87,2.83-2.51,4.4-.99,2.51,0,3.88,2.41,4.73,3.5.77,7.14.61,10.56-.47,11.57-2.51,22.92-5.95,33.95-10.27,0,0,.33-.33.8-.71-.66-1.19-1.23-2.42-1.7-3.69-2.09-2.94-1.41-7.02,1.53-9.11,1.66-1.18,3.77-1.52,5.72-.92,2.46.35,4.86,1.06,7.1,2.13,1.39.64,2.72,1.4,3.98,2.27l3.12-3.22c14.68-16.67,29.78-33.14,46.02-48.25,14.11-13.84,29.83-25.94,46.83-36.03,8.15-4.86,17.07-8.3,26.37-10.18,2.59-.48,5.23-.61,7.86-.38,3.24-.04,5.91,2.55,5.95,5.79.01.81-.14,1.61-.46,2.35-.66,2.79-1.82,5.43-3.41,7.81-3.96,5.74-8.33,11.18-13.07,16.29-16.77,17.55-36.34,32.19-57.91,43.32-4.73,2.56-10.18,4.26-15.25,6.49-1.31.5-2.51,1.28-3.5,2.27-6.39,7.81-12.69,15.77-18.94,23.67-.29.42-.52.88-.66,1.37,9.92,2.72,20.16,4.11,30.44,4.12.43-.81.79-1.65,1.09-2.51,4.34-10.95,11.64-20.49,21.07-27.56,11.87-9.73,26.28-15.85,41.52-17.66,5.22-.67,10.52-.46,15.67.62,5.29.96,9.97,4.02,12.97,8.48,4.28-3.93,10.13-5.67,15.86-4.73h11.08c1.6.26,3.18.62,4.73,1.09-1.99,2.6-3.36,4.73-4.73,6.58-7.91,9.8-15.96,19.6-23.67,29.45-1.91,2.48-3.65,5.09-5.21,7.81-.63,1.17-1.13,2.41-1.47,3.69-1.18,4.73.66,7.29,5.4,7.29,3.19.03,6.37-.34,9.47-1.09,11.42-2.85,22.06-8.21,31.15-15.67,2.38-2.05,4.58-4.3,6.58-6.72.86-1.34,2.39-2.1,3.98-1.99h9.47l.62,1.09M152.09,28.11v.52h-3.5c-.8.08-1.59.21-2.37.38-10.9,1.83-21.4,5.51-31.06,10.89-17.86,9.7-33.98,22.29-47.73,37.26-7.73,7.86-14.13,16.93-18.94,26.85-1.95,4.02-3.32,8.29-4.07,12.69-1.42,6.01,1.2,12.25,6.49,15.44,5.1,3.36,11.21,4.85,17.28,4.21,14-1.7,26.91-8.43,36.32-18.94,18.94-20.45,36.55-41.81,54.73-62.78,3.29-3.62,5.89-7.81,7.67-12.36,2.04-4.39.14-9.6-4.25-11.64-.37-.17-.75-.32-1.15-.44-3.08-.96-6.23-1.66-9.42-2.08Zm228.59,66.29c-2.08.26-4.14.68-6.16,1.23-13.18,4.17-24.48,12.81-31.96,24.43-2.15,3.29-3.75,6.9-4.73,10.7-2.13,8.66,3.6,12.97,11.27,11.98,3.88-.57,7.67-1.65,11.27-3.22,3.9-1.23,7.41-3.47,10.18-6.49,6.39-8,12.78-16.05,18.94-24.15,1.1-1.46,1.7-3.24,1.7-5.07.38-5.92-3.84-9.52-10.51-9.42Zm-73.15-5.68l.47.8c4.07-.87,7.98-2.36,11.6-4.4,16.7-8.73,31.55-20.63,43.7-35.04,2.29-2.93,4.24-6.11,5.82-9.47.75-1.48,1.21-3.09,1.37-4.73.28-3.12-1.37-4.31-4.4-3.22-1,.37-1.94.88-2.79,1.52-2.6,1.8-5.26,3.5-7.76,5.4-12.95,10.35-24.89,21.91-35.65,34.52-4.07,4.83-8.1,9.75-12.36,14.63Zm-84.09,0c.16.29.3.59.43.9,2.08-.71,4.21-1.28,6.2-2.18,19.58-8.78,36.84-22.03,50.38-38.68,2.28-3.22,4.15-6.7,5.59-10.37,1.16-1.74.88-4.07-.66-5.49-1.7-1.28-3.6-.28-5.11.71-3.08,1.99-6.11,4.07-9.09,6.3-13.03,10.48-25.03,22.18-35.84,34.94-3.98,4.5-7.95,9.28-11.88,13.97v-.09Z"/>
  </g>
</svg>