<?xml version="1.0" encoding="UTF-8"?>
<svg id="Layer_2" data-name="Layer 2" xmlns="http://www.w3.org/2000/svg" viewBox="0 0 944.61 663.35">
  <defs>
    <style>
      .cls-1 {
        fill: #fff;
      }
    </style>
  </defs>
  <g id="Layer_1-2" data-name="Layer 1">
    <g id="Layer_1-3" data-name="Layer 1-3">
      <g id="alphatauri">
        <path class="cls-1" d="m546.52,410.31c2.64,3.22,7.08,4.34,10.94,2.75v55.59h-6.49c-47.49-1-93.53-16.49-131.96-44.41,23.21-22.25,42.16-48.55,55.92-77.6,11.07.36,22.15-.15,33.14-1.52,7.2-.85,11.46-.9,18.7-1.18,2.94,0,8.19-1.8,7.39-7.24-.81-3.83-2-7.58-3.55-11.17-.84-1.6-.22-3.57,1.38-4.41,1.52-.8,3.41-.28,4.31,1.19,1.23,1.89,3.79,8,4.73,10.04,2.29,4.31,5.53,8.05,9.47,10.94,2.91,2.03,6.1,3.62,9.47,4.73,6.64,2.48,12.68,6.32,17.76,11.27,1.6,1.55,3.06,3.25,4.36,5.07,4.73,6.06,5.97,9.04-.47,16.33-5.43,6.45-13.08,10.64-21.45,11.74-5.3,1.28-10.74-1.55-12.74-6.63-.43-1.04-.99-1.99-1.52-2.98-1.14-1.94-2.18-3.93-3.41-5.78-1.51-2.68-4.54-4.12-7.58-3.6-5.3.8-10.61,1.61-15.91,2.6-.9,0-3.08,1.66-2.51,2.08,2.68,4.77,5.86,9.24,9.47,13.35,1.57,1.88,3.95,2.89,6.39,2.7,5.21,0,5.4,0,7.53,4.73.93,2.22,1.99,4.39,3.17,6.49,1.05,1.7,2.27,3.29,3.65,4.73l-.19.19Zm19.41-45.6c-4.79.29-9.55,1.03-14.2,2.23.3,3.96,1.41,7.81,3.27,11.32.57,2.55,3.09,4.16,5.65,3.6.17-.04.34-.09.51-.14,1.84-.21,3.63-.77,5.26-1.66,3.08-1.62,4.57-5.2,3.55-8.52-.67-2.61-2.06-4.97-4.02-6.82h0Zm135.46-69.36c-1.2-3.96-3.66-7.42-7.01-9.85-2.79-2.08-5.63-4.21-8.52-6.2-1.27-.76-2.62-1.38-4.02-1.85-1.61-.7-3.49-.14-4.45,1.33-.99,1.33-1.85,2.75-2.89,4.07-1.12,1.58-3.15,2.22-4.97,1.56-1.85-.6-3.02-2.42-2.79-4.36-.12-.91-.12-1.83,0-2.75,1.5-6.16,4.26-11.95,8.1-17,.59-.7,1.26-1.34,1.99-1.89,1.56-1.5,4.03-1.5,5.59,0,5.82,6.01,11.97,11.68,18.42,17,5.74,5.35,9.15,12.75,9.47,20.6-.08.98-.26,1.94-.52,2.89-.46,1.25-1.61,2.12-2.94,2.23-1.33.31-2.7-.24-3.46-1.37-.85-1.5-1.55-3.09-2.08-4.73l.09.33Zm-13.54,36.08c2.51-.71,4.26.71,4.73,3.36,0,1.09,0,2.18.24,2.75,0,7.34-2.08,10.84-10.84,11.51-3.65-.24-4.73-1.18-5.07-3.08-.96-4.5.92-9.13,4.73-11.69,2.01-1.32,4.24-2.28,6.58-2.84h-.38ZM944.61,0l-54.45,151.18h-69.32v90.01c-1.08,123.58-99.89,224.08-223.43,227.27h-11.51v-68.75l4.21-1.85c3.45-1.39,6.33-3.89,8.19-7.1,1.95-3.49,5.77-5.52,9.75-5.16,5.97,0,7.1-1.09,8.24-6.77,1.14-5.68,1.89-11.36,2.94-16.43,1.15-4.57.38-9.41-2.13-13.4-4.73-7.39-9.47-14.77-14.2-21.97-3.36-4.73-5.16-5.16-9.75-1.04l4.21,7.86c3.36,4.73,6.77,9.47,10.04,14.2,1.07,1.51,1.84,3.22,2.27,5.02,1.25,7.21.03,14.63-3.46,21.07-.47.8-1.61,1.23-2.6,1.99-.59-.88-1.06-1.83-1.37-2.84-.29-1.56-.44-3.15-.43-4.73.04-6.01-2.06-11.83-5.92-16.43-4.73-5.92-9.19-12.12-13.64-18.28-4.4-5.27-3.74-13.1,1.47-17.57,2.23-2.18,4.73-4.31,6.96-6.44,3.2-2.87,5.64-6.48,7.1-10.51,1.19-3.09,2.17-6.25,2.94-9.47,1.67-8.02,2.4-16.2,2.18-24.38v-6.11c-.02-1.51.58-2.97,1.66-4.02,1.23-1.49,3.44-1.7,4.93-.47.32.26.59.58.8.94.8,1.23,1.38,2.59,1.7,4.02,1.77,7.05,2.35,14.35,1.7,21.59-1,9.05-2.88,17.98-5.63,26.66-.84,1.74-1.21,3.66-1.09,5.59,1.32.07,2.65.07,3.98,0,2.56-.33,5.11-.85,7.72-1.14,8.6-.73,16.63-4.59,22.58-10.84,2.84-2.94,5.92-5.63,8.9-8.43,1.12-1.52,3.25-1.84,4.77-.72,1.24.92,1.72,2.55,1.15,3.99-.48,2.16-1.18,4.27-2.08,6.3-1.63,3.35-3.45,6.61-5.44,9.75-4.3,6.5-7.88,13.45-10.65,20.74-1.66,4.5-3.6,8.95-5.16,13.49-1.56,4.55-.47,5.87,4.17,5.3,3.69-.47,4.73.33,4.73,3.98v4.45c-.03,1.68.07,3.35.28,5.02,1.18,6.14,7.11,10.16,13.25,8.97.52-.1,1.02-.23,1.52-.4,2.92-1.19,5.76-2.55,8.52-4.07,2.13-1.14,4.12-2.56,6.16-3.84,5.68-3.69,12.19-5.92,18.94-6.49,2.79-.17,5.59-.17,8.38,0,4.53.22,8.89-1.73,11.74-5.26,1.64-2.01,3.42-3.9,5.35-5.63,2.41-2.81,6.62-3.17,9.47-.8,2.98,1.85,5.82,3.93,8.71,5.97,4.54,3.27,9.41,6.05,14.54,8.29,4.58,2.08,9.61,2.98,14.63,2.6.84-.16,1.65-.44,2.41-.8-1.18-1.09-1.94-1.89-2.75-2.56-2.37-1.8-4.73-3.36-7.1-5.35-3.2-2.82-6.22-5.84-9.04-9.04-3.5-4.12-6.68-8.48-9.9-12.78-1.97-2.47-3.8-5.05-5.49-7.72-.81-1.45-1.26-3.07-1.33-4.73-.1-1.67,1.18-3.1,2.85-3.2.45-.03.9.05,1.32.22,1.56.6,3,1.46,4.26,2.56,4.36,4.02,8.66,8.14,12.88,12.31,2.7,2.6,5.11,5.4,7.81,7.95,2.99,3.08,6.65,5.43,10.7,6.87,4.13,1.46,8.68,1.17,12.59-.8.62-.76-2.89-2.37-2.89-2.37-11.4-5.78-21.17-14.32-28.41-24.86-5.2-7.44-9.65-15.37-13.3-23.67-4.4-9.47-7.58-19.74-11.17-29.73-4.31-12.03-8.66-24.1-13.21-36.08-3.17-7.75-7.57-14.95-13.02-21.31-7.16-8.32-15.45-15.61-24.62-21.64-9.29-6.14-18.88-11.82-28.74-17-16.24-9-33.14-16.67-48.86-26.8-1.68-1.03-3.42-1.94-5.21-2.75-.57,0-2.7-1.04-4.73-1.61l-2.7-.47V.19l359.13-.19Zm-354.82,188.01c-1.15-.93-2.17-2.01-3.03-3.22-1.28-1.69-1.37-3.99-.24-5.78,1.02-1.83,2.98-2.93,5.07-2.84.93-.03,1.86.12,2.75.43,1.92.66,3.78,1.5,5.54,2.51,8.18,5.2,14.95,12.34,19.7,20.79,2,3.43,3.12,7.3,3.27,11.27-.24,1.42,0,3.27-1.89,4.07-1.89.8-2.84,0-4.07-2.08-5.41-8.25-12.51-15.25-20.83-20.55-2.08-1.47-4.21-2.98-6.25-4.73v.14Zm-194.5,216.47c-3.74,3.5-7.58,6.91-11.51,10.18-3.93,3.27-8.05,6.44-12.22,9.47-104.79,75.84-251.23,52.38-327.07-52.41S-7.88,120.49,96.91,44.65c81.95-59.31,192.71-59.31,274.66,0-36.41,35.35-61.9,80.41-73.44,129.83-33.1-35.24-88.51-36.97-123.75-3.86-35.24,33.1-36.97,88.51-3.86,123.75,33.1,35.24,88.51,36.97,123.75,3.86,1.33-1.25,2.62-2.54,3.86-3.86,4.7-5.04,8.81-10.6,12.26-16.57,7.58-13.2,11.57-28.15,11.55-43.37-.02-64.37,26.51-125.9,73.34-170.07,3.69-3.55,7.53-6.91,11.51-10.23s8.05-6.44,12.22-9.47C459.27,15.47,507.78-.11,557.5.19v143.32c-.86.78-1.86,1.41-2.94,1.85-2.59.95-5.27,1.63-8,2.04-20.69,2.29-39.88,11.9-54.12,27.08-4.71,5.04-8.82,10.6-12.26,16.57-7.55,13.21-11.51,28.16-11.51,43.37.02,64.37-26.51,125.9-73.34,170.07h-.05Z"/>
        <path class="cls-1" d="m493.21,565.47l-9.09,25.19h-23.11v69.98h-25.24v-69.98h-23.25l-9.04-25.19h89.72Zm-98.48,65.01h-41.24l-10.84,30.16h-7.39l34.23-95.36h9.47l34.09,95.36h-7.43l-10.89-30.35v.19Zm-20.6-57.34l-18.18,50.52h36.32l-18.13-50.52Zm343.46,47.87h18.32c8.38,0,15.17-6.78,15.2-15.15.06-4.04-1.55-7.93-4.45-10.75-2.8-2.92-6.7-4.53-10.75-4.45h-18.32v30.35Zm46.87-43.7c7.68,7.44,11.96,17.71,11.84,28.41.27,12.16-5.22,23.73-14.82,31.2l14.2,23.67h-29.26l-8.76-14.16h-20.08v14.2h-25.19v-95.17h43.51c10.69-.1,20.95,4.17,28.41,11.84h.14Zm-547.09,2.84c-4.76-4.88-11.32-7.58-18.13-7.48h-33.43v51.04h33.43c14.17-.01,25.65-11.51,25.64-25.69,0-6.79-2.7-13.3-7.5-18.11v.24Zm4.73-4.73c12.66,12.71,12.61,33.28-.1,45.93-6.06,6.04-14.26,9.44-22.81,9.46h-33.38v29.83h-6.82v-95.12h40.24c8.62-.14,16.91,3.28,22.92,9.47l-.05.43Zm308.23,22.58l-9.75,29.07h19.41l-9.66-29.07Zm-12.5-32.53h25.19l34.28,95.17h-25.33l-3.93-10.89h-35.32l-3.98,10.89h-25.28l34.37-95.17Zm-418.36,88.49h47.73v6.68h-54.54v-95.17h6.82v88.49Zm214.77-88.49h6.87v95.17h-6.87v-30.35h-61.55v30.35h-7.1v-95.17h6.82v58.14h61.55v-58.14h.28Zm480.57,0h25.19v95.17h-25.19v-95.17Zm-123.39,0v52.56c.8,24.23-18.2,44.51-42.43,45.31s-44.51-18.2-45.31-42.43c-.03-.96-.03-1.92,0-2.88v-52.56h25.14v52.56c1.56,10.34,11.22,17.46,21.56,15.89,8.21-1.24,14.65-7.68,15.89-15.89v-52.56h25.14Zm-632.32,7.67l-18.18,50.52h36.32l-18.13-50.52Zm20.6,57.34H18.46l-10.89,30.16H.18l34.23-95.17h9.47l34.14,95.17h-7.43l-10.89-30.16Z"/>
      </g>
    </g>
  </g>
</svg>