<?xml version="1.0" encoding="UTF-8"?>
<svg id="Layer_2" data-name="Layer 2" xmlns="http://www.w3.org/2000/svg" viewBox="0 0 946.99 865.55">
  <defs>
    <style>
      .cls-1 {
        fill: #fff;
      }

      .cls-2 {
        fill: #e12826;
      }

      .cls-3 {
        fill: #2374b8;
      }
    </style>
  </defs>
  <g id="Layer_1-2" data-name="Layer 1">
    <path class="cls-1" d="m146.35,474.89h126.94l135.93-105.06h230.77l-34.23,105.06h102.65l34-105.06h115.72l86.08-66.66h-179.92L863.09,0h-102.6l-391.94,303.26h-155.2l42.61-131.25L0,369.92h282.28l-135.93,104.97ZM717.88,131.34l-55.87,171.92h-166.66l222.53-171.92Z"/>
    <path class="cls-1" d="m252.79,763.94h7.86v-24.53h27.79v-7.1h-27.79v-16.62h30.3v-7.15h-38.16v55.4Z"/>
    <path class="cls-1" d="m315.43,715.37h13.83v48.53h7.91v-55.35h-21.73v6.82Z"/>
    <path class="cls-1" d="m371.11,706.89c-5.23,0-9.47,4.24-9.47,9.47s4.24,9.47,9.47,9.47,9.47-4.24,9.47-9.47c.21-5.02-3.68-9.26-8.7-9.47-.26-.01-.52-.01-.77,0m0,17.52c-4.39.1-8.04-3.37-8.14-7.76-.1-4.39,3.37-8.04,7.76-8.14s8.04,3.37,8.14,7.76c0,.08,0,.16,0,.23.24,4.12-2.91,7.66-7.04,7.9-.24.01-.49.02-.73,0"/>
    <path class="cls-1" d="m375.37,714.47c0-2.13-1.42-3.17-4.07-3.17h-4.21v10.42h2.32v-3.88h1.42l2.23,3.88h2.51l-2.41-4.26c1.36-.34,2.29-1.59,2.23-2.98m-3.98,1.47h-1.99v-2.79h1.99c1.09,0,1.56.57,1.56,1.37s-.47,1.42-1.56,1.42"/>
    <path class="cls-1" d="m427.21,715.65h18.94v48.25h7.91v-48.25h18.94v-7.1h-46.16l.38,7.1Z"/>
    <path class="cls-1" d="m499.37,763.94h38.21v-7.15h-30.3v-17.38h27.79v-7.1h-27.79v-16.62h30.3v-7.15h-38.21v55.4Z"/>
    <path class="cls-1" d="m580.57,708.55l-19.7,55.4h8.38l5.02-14.54h24l5.02,14.54h8.43l-19.84-55.4h-11.32Zm-3.74,33.76l9.47-27.37,9.47,27.37h-18.94Z"/>
    <path class="cls-1" d="m667.26,757.93l-15.67-49.38h-13.54v55.35h7.91v-47.96l15.1,47.96h12.07l15.53-48.58v48.58h7.91v-55.35h-13.68l-15.62,49.38Z"/>
    <path class="cls-1" d="m.09,642.31h25.9l13.64-15.39h74.19l13.68,15.39h25.85l-76.61-83.61L.09,642.31Zm52.65-30.02l24-26.99,24,26.99h-48.01Z"/>
    <path class="cls-1" d="m560.92,561.2h-21.92v81.15h21.92v-81.15Z"/>
    <path class="cls-1" d="m743.25,611.25l-90.62-50.09h-22.16v81.15h20.31v-59.94l112.97,62.26v-83.47h-20.5v50.09Z"/>
    <path class="cls-1" d="m222.34,561.2h-21.92v81.15h99.43l6.11-14.58h-83.8l.19-66.57Z"/>
    <path class="cls-1" d="m855.18,627.73v-19.36h88.92v-14.58h-88.92v-17.99h88.92v-14.58h-110.79v81.15h109.61l4.07-14.63h-91.81Z"/>
    <path class="cls-1" d="m445.96,561.2h-93.79v81.15h21.92v-27.13h71.02c26.28,0,36.5-11.03,36.5-27.37s-11.13-26.66-35.46-26.66m-5.26,39.39h-66.81v-24.76h66.52c13.21,0,17.28,4.02,17.28,12.64,0,7.53-5.68,12.12-17.19,12.12"/>
    <path class="cls-3" d="m403.92,851.68l-17.47,13.87h63.54l17.57-13.87h-63.63Z"/>
    <path class="cls-1" d="m467.41,851.68l-17.57,13.87h29.64l17.57-13.87h-29.64Z"/>
    <path class="cls-2" d="m497.1,851.68l-17.57,13.87h63.78l17.57-13.87h-63.78Z"/>
  </g>
</svg>