<?xml version="1.0" encoding="UTF-8"?>
<svg id="Layer_2" data-name="Layer 2" xmlns="http://www.w3.org/2000/svg" viewBox="0 0 1088.89 547.24">
  <defs>
    <style>
      .cls-1 {
        fill: #fff;
      }
    </style>
  </defs>
  <g id="Layer_1-2" data-name="Layer 1">
    <path class="cls-1" d="m54.92,319.11h-7.58L0,425.35h18.13c2.85-10.08,6.24-19.99,10.18-29.69h38.73c4.73,11.55,8.33,21.92,11.13,29.69h22.58l-45.83-106.25Zm-7.34,30.82c11.46,26.32,11.6,26.47,14.2,33.38h-28.41c3.22-7.01,3.27-7.15,14.39-33.43l-.19.05Zm699.27,75.42h23.01l-45.83-106.25h-7.81l-47.35,106.25h18.09c2.89-10.08,6.34-19.99,10.32-29.69h38.59c4.78,11.55,8.38,21.87,11.17,29.64l-.19.05Zm-30.49-75.42q11.6,26.61,14.2,33.38h-28.41c2.6-5.35,2.65-5.44,14.39-33.43l-.19.05Zm-76.23,75.42c-2.79-33.14-4.73-52.74-6.25-65.81-12.04,20.87-22.99,42.35-32.81,64.34h-5.97c-18.13-36.93-19.93-40.39-24.1-48.29-1.75-3.41-3.79-7.15-8.14-15.58-.76,6.53-4.02,35.7-6.16,65.34h-16.29c5.16-37.36,13.35-100.42,13.78-104.16h9.47l4.36,8.52c11.93,23.67,21.35,42.61,32.67,62.21v.28-.28c5.16-9.47,9.85-18.28,14.2-26.8,7.05-13.21,14.2-26.85,23.96-43.94h8.71c.38,3.27,6.3,54.73,12.4,104.16h-19.84Zm314.38,0v-104.16h19.41v104.16h-19.41Zm-484.79,0c-4.36-5.54-35.37-39.77-65.05-72.63v72.63h-15.06v-104.16h10.94l63.92,69.41v-69.41h14.96v104.16h-9.71Zm-259.18,0v-89.96c-10.98.1-21.95.8-32.86,2.08v-16.19h83.66v16.24c-10.41-1.39-20.89-2.12-31.39-2.18v89.96l-19.41.05Zm-48.96-82.34c-1.42-4.73-5.92-11.69-18.42-11.69-9.47,0-17.66,6.39-17.66,14.2,0,10.18,11.32,13.92,18.94,16.81,14.2,5.16,22.96,8.71,28.12,18.94,2.08,4.04,3.14,8.53,3.08,13.07-.11,8.91-4,17.36-10.7,23.25-8.79,7.19-19.91,10.9-31.25,10.42-9.99.15-19.77-2.83-27.98-8.52v-22.49h7.53c2.94,6.53,8.95,17.57,23.67,17.57,3.41,0,20.26-1.66,19.79-16.76-.33-10.8-9.14-13.97-19.93-17.61-5.63-1.89-22.35-6.53-28.41-20.83-2.18-5.24-2.51-11.07-.95-16.52,4.95-15,19.21-24.93,34.99-24.38,8.9.26,17.64,2.44,25.61,6.39v18.09l-6.44.09Zm156.25,85.84c-13.92.21-27.37-4.99-37.55-14.49-21.96-23.01-21.96-59.23,0-82.24,10.18-9.49,23.63-14.66,37.55-14.44,21.45-.4,41.02,12.19,49.57,31.86,3.02,7.52,4.55,15.57,4.5,23.67.52,15.41-5.48,30.33-16.52,41.1-10.13,9.48-23.53,14.69-37.4,14.54h-.14Zm0-12.36c16.15,0,32.48-14.87,32.48-43.23s-16.33-43.23-32.48-43.23h0c-16.1,0-32.43,14.87-32.43,43.23s16.33,43.23,32.43,43.23Zm461.49-95.4c5.68-.38,29.36-.62,29.59-.62,17.8,0,24.76,3.46,30.78,9.47,5.57,5.45,8.61,12.99,8.38,20.79-.2,7.36-3.19,14.37-8.38,19.6-4.21,4.03-9.25,7.08-14.77,8.95l39.2,45.97h-23.91l-35.27-43.56h-6.34v43.56h-19.27v-104.16Zm27.13,10.89c-2.6,0-5.19.19-7.76.57h0v36.79h0c2.61.49,5.25.74,7.91.76,15.62,0,22.73-9.99,22.73-19.27h0c-.07-4.79-1.94-9.37-5.26-12.83-4.79-4.36-11.15-6.57-17.61-6.11v.09Zm83.19,93.37v-89.96c-10.98.1-21.95.8-32.86,2.08v-16.19h83.52v16.24c-10.42-1.39-20.92-2.12-31.44-2.18v89.96l-19.22.05Zm189.72,0c-4.36-5.54-35.37-39.72-65.05-72.58v72.58h-15.06v-104.16h10.65l64.01,69.41v-69.41h14.96v104.16h-9.52Z"/>
    <path class="cls-1" d="m986.47.13h-365.9c-9.54-.86-18.97,2.62-25.66,9.47-9.47,9.47-6.53,18.47-21.78,18.47h-53.5c-15.25,0-12.5-9.19-21.78-18.47-6.71-6.86-16.15-10.34-25.71-9.47H106.25c-7.34-.73-13.88,4.63-14.61,11.97-.32,3.23.55,6.47,2.44,9.1l6.53,10.98c2.42,4.25,6.74,7.07,11.6,7.58,3.31.18,6.24,2.22,7.58,5.26l5.82,10.23c2.5,5.56,7.73,9.41,13.78,10.13,3.17.57,6.01.85,9.9,7.91,3.88,7.05,9.9,17.42,23.25,21.31l136.74,39.87c14.2,4.73,17.9,9.85,22.06,15.86,6.21,9.88,16.06,16.92,27.41,19.6l130.01,35.13c9.41,2.79,19.6.29,26.66-6.53l23.67-22.3c6.06-5.73,8.71-5.73,14.68,0l23.67,22.16c7.06,6.83,17.24,9.32,26.66,6.53l130.16-34.99c11.35-2.7,21.19-9.73,27.41-19.6,4.93-8.04,12.88-13.75,22.06-15.86l136.74-39.87c13.35-3.98,18.94-13.68,23.25-21.35,4.31-7.67,6.72-7.34,9.9-7.91,6.06-.7,11.31-4.53,13.83-10.08l5.78-10.23c1.31-3.02,4.19-5.06,7.48-5.3,4.89-.51,9.22-3.37,11.6-7.67l6.53-10.98c4.29-5.93,2.96-14.22-2.97-18.51-2.71-1.96-6.06-2.82-9.38-2.42ZM106.34,22.81l-4.07-6.72c-1.18-2.04-1.94-6.53,3.74-6.53h366.04c7.39,0,15.72,0,23.67,13.87,1.13,2.09,2.41,4.1,3.84,6.01H128.83c-15.1.24-18.04.28-22.49-6.63Zm237.4,77.74v-63.4h405.1v63.4h-405.1Zm-208.33-47.92c-3.41-3.46-5.68-10.51-8.71-14.82l209.89-.85v9.47l-177.5,10.18c-13.73.9-19.46,0-23.67-3.88v-.09Zm27.56,24.19c-1.93-2.55-3.65-5.26-5.11-8.1-.7-1.3-1.5-2.55-2.37-3.74l7.81-.52,173.29-10.7v9.9l-136.93,14.68c-18.51,1.99-31.11,4.73-36.79-1.52h.09Zm46.92,18.65l-24.95-7.24c16.62-1.99,151.51-17.04,151.51-17.04v10.89l-87.83,14.2c-12.82,2.8-26.13,2.52-38.82-.81h.09Zm60.79,17.76l-27.75-8.1,7.1-1.14,86.55-14.2v11.51l-32.67,9.47s-20.31,6.01-33.33,2.46h.09Zm41.38,12.03h0l-15.96-4.73c3.41-.66,6.77-1.47,10.08-2.46l35.37-10.37h39.58l-36.69,17.28c-10.49,3.79-21.95,3.92-32.53.38l.14-.09Zm36.5,29.5c-3.69-2.65-6.82-6.02-9.19-9.9-2.19-3.36-4.78-6.45-7.72-9.19,2.93-.19,5.85-.61,8.71-1.28,4.71-1.47,9.32-3.21,13.83-5.21l44.03-21.4h29.21l-57.76,40.86c-8.85,5.73-15.91,7.86-21.21,6.11h.09Zm43.56,14.2l-28.41-7.58c3.68-1.55,7.2-3.46,10.51-5.68,2.94-1.89-.43.47,66.29-47.92h24.48l-45.12,46.16c-7.95,8.24-16.67,17.28-28.12,15.06l.38-.05Zm44.41,12.03l-26.51-7.2c5.99-3.88,11.42-8.56,16.15-13.92l50.09-52.08h22.16l-39.96,62.5c-6.68,9.9-14.16,12.07-22.02,10.61l.09.09Zm46.59,12.59l-28.41-7.67c4.53-2.93,8.33-6.85,11.13-11.46l41.9-66.52h18.94s-24.62,72.06-26.33,75.76c-4.73,10.51-10.51,11.32-17.38,9.99l.14-.09Zm100.66-2.18l-23.39-22.21c-9.8-9.47-18.18-9.47-27.98,0l-23.48,22.06c-1.63,1.45-3.44,2.68-5.4,3.65,3.84-5.39,6.71-11.42,8.48-17.8l23.2-69.36h22.21l23.06,69.32c1.76,6.39,4.63,12.41,8.48,17.8-1.95-.98-3.76-2.21-5.4-3.65l.24.19Zm25.9,2.18c-6.87,1.33-12.45.52-17.42-10.04-1.7-3.65-26.28-75.76-26.28-75.76h18.94l41.9,66.62c2.75,4.66,6.54,8.61,11.08,11.55l-28.22,7.62Zm46.59-12.59c-7.76,1.42-15.25-.76-21.92-10.7l-39.96-62.4h22.06l50.09,52.08c4.74,5.36,10.19,10.04,16.19,13.92l-26.47,7.1Zm44.51-12.07c-11.46,2.18-20.12-6.77-28.08-14.91l-45.17-46.16h24.53s63.49,45.88,66.29,47.92c3.33,2.23,6.87,4.13,10.56,5.68l-28.12,7.48Zm52.7-23.96c-2.37,3.88-5.49,7.25-9.19,9.9-5.35,1.75-12.4-.38-21.26-6.16-2.51-1.61-57.62-40.81-57.62-40.81h29.31s33.85,16.71,43.99,21.4c6.99,3.65,14.63,5.87,22.49,6.53-2.94,2.74-5.53,5.82-7.72,9.19v-.05Zm27.32-19.6h0c-10.54,3.54-21.98,3.41-32.43-.38-4.21-1.66-36.65-17.09-36.65-17.09h39.58l35.42,10.37c3.31.99,6.68,1.8,10.04,2.46l-15.96,4.64Zm41.38-12.03c-13.07,3.55-33.14-2.56-33.14-2.56l-32.67-9.47v-11.84l86.55,14.2,7.1,1.14-27.84,8.52Zm60.79-17.76c-12.73,3.24-26.03,3.5-38.87.76l-87.83-14.2v-10.89l151.51,17.04-24.81,7.29Zm52.08-26.75c-1.47,2.84-3.18,5.55-5.11,8.1-5.68,6.25-18.28,3.5-36.69,1.52l-136.93-14.68v-9.8l173.29,10.7,7.81.52c-.93,1.13-1.78,2.31-2.56,3.55l.19.09Zm19.46-14.87c-6.68,4.36-14.2,3.03-36.84,1.7l-161.6-9.47v-9.09l209.89.9c-4.21,5.97-5.44,12.17-11.36,15.86l-.09.09Zm35.79-37.88l-3.98,6.53c-4.45,6.91-7.39,6.87-22.49,6.82h-370.96c1.44-1.88,2.73-3.85,3.88-5.92,8.05-13.97,16.38-13.92,23.67-13.92h366.09c5.87.14,4.92,4.59,3.74,6.49h.05Zm-413.43,71.59c-.95-11.46-1.61-18.18-2.18-22.77-4.14,7.2-7.9,14.61-11.27,22.21h-2.46c-6.16-12.55-6.87-14.2-8.71-17.28l-2.51-4.73c-.47,4.73-1.42,13.4-2.18,22.54h-6.34c1.85-13.21,4.73-35.6,4.73-37.5h3.84s9.09,18.13,13.07,24.95c4.73-8.43,7.58-14.2,13.49-24.95h3.5c.62,5.4,2.6,22.58,4.45,37.5l-7.43.05Zm115.72,0v-37.5h-7.48v37.5h7.48Zm-22.35,0v-31.82c3.74.03,7.47.3,11.17.8v-6.34h-30.16v6.44c3.88-.49,7.78-.74,11.69-.76v31.82l7.29-.14Zm-234.23,0v-31.82c3.74.03,7.47.3,11.17.8v-6.34h-30.25v6.44c3.86-.49,7.75-.74,11.65-.76v31.82l7.43-.14Zm86.79,0v-37.5h-5.82v24.24l-22.35-24.24h-4.12v37.5h5.92v-25.19l22.68,25.33,3.69-.14Zm-130.68-10.56v8.38c2.99,2.1,6.57,3.2,10.23,3.12,8.1,0,15.25-4.73,15.25-12.26,0-4.17-2.52-7.92-6.39-9.47-3.41-1.14-6.71-2.59-9.85-4.36-3.69-3.12-.71-8.14,4.36-8.14,2.81-.18,5.4,1.52,6.34,4.17h2.7v-6.87c-2.94-1.48-6.18-2.29-9.47-2.37-2.97-.02-5.86.89-8.29,2.6-4.74,2.92-6.21,9.14-3.29,13.88.99,1.6,2.41,2.9,4.09,3.73,5.11,3.08,12.07,2.7,12.26,8.24,0,4.12-3.84,5.68-6.82,5.68-3.77-.16-7.04-2.65-8.19-6.25l-2.94-.09Zm0,10.56l-16.52-38.26h-3.08l-17.04,38.26h7.2c1.03-3.58,2.25-7.1,3.65-10.56h13.35c1.66,4.12,2.98,7.81,3.93,10.56h8.52Zm-23.96-15.44l4.73-10.89c3.6,8.24,3.88,8.81,4.73,10.89h-9.47Zm117.42-3.31c0-10.75-8.71-19.46-19.46-19.46s-19.46,8.71-19.46,19.46,8.71,19.46,19.46,19.46,19.46-8.71,19.46-19.46h0Zm-19.41,15.06h0c-5.92,0-11.22-5.54-11.22-15.06s5.63-15.06,11.22-15.06h0c5.63,0,11.27,5.16,11.27,15.06s-5.87,15.2-11.36,15.2l.09-.14Zm158.47,3.69h7.39v-15.44h1.85l12.55,15.44h9.19l-14.2-16.48c1.78-.7,3.39-1.76,4.73-3.12,4.05-4.05,4.06-10.61.01-14.66,0,0,0,0-.01-.01h0c-3-2.77-7.09-4.04-11.13-3.46h-10.8l.43,37.74Zm7.34-33.14c.85-.05,1.71-.05,2.56,0,7.62,0,7.86,5.68,7.86,6.53,0,3.88-3.5,7.48-10.42,6.3v-12.83Zm-9.47,33.14l-16.48-38.26h-3.12l-17.14,38.26h7.05c1.09-3.59,2.37-7.11,3.84-10.56h13.35c1.7,4.12,2.98,7.81,3.98,10.56h8.52Zm-23.96-15.44l4.73-10.89c3.6,8.24,3.88,8.81,4.73,10.89h-9.47Zm133.76,15.44v-37.5h-5.87v24.24l-22.25-24.24h-4.17v37.5h5.87v-25.19l22.73,25.33,3.69-.14Z"/>
    <path class="cls-1" d="m465.75,470.62h-5.44l-33.14,74.05h12.59c2.04-7,4.44-13.89,7.2-20.64h26.89c3.31,8.05,5.82,15.25,7.76,20.64h15.72l-31.58-74.05Zm-5.11,21.5c7.95,18.32,8.1,18.47,9.99,23.25h-19.79c2.04-4.73,2.04-4.97,9.8-23.25h0Z"/>
    <path class="cls-1" d="m968.15,470.62h-5.49l-33.14,74.05h12.59c2.02-7.01,4.42-13.9,7.2-20.64h26.89c3.27,8.05,5.82,15.25,7.76,20.64h15.72l-31.53-74.05Zm-5.07,21.5c7.95,18.32,8.05,18.47,9.94,23.25h-19.84c2.08-4.73,2.13-4.88,9.9-23.15v-.09Z"/>
    <path class="cls-1" d="m276.6,544.72c-1.89-23.01-3.22-36.79-4.36-45.88-8.39,14.54-16,29.5-22.82,44.84h-4.17c-12.55-25.66-13.92-28.41-16.81-33.62-1.23-2.37-2.6-4.97-5.63-10.89-.57,4.73-2.84,24.86-4.36,45.55h-11.27c3.65-26.04,9.47-69.98,9.47-72.54h6.72l2.94,5.92c8.33,16.62,14.91,29.73,22.82,43.37h0v-.24c3.6-6.53,6.87-12.69,9.99-18.61,4.73-9.47,9.94-18.94,16.62-30.63h6.44c.28,2.32,4.36,37.88,8.71,72.54l-14.3.19Z"/>
    <path class="cls-1" d="m1074.54,544.72c-1.89-23.01-3.27-36.79-4.36-45.88-8.38,14.55-16.01,29.51-22.87,44.84h-4.07c-12.55-25.66-13.87-28.41-16.76-33.62-1.28-2.37-2.65-4.97-5.68-10.89-.52,4.73-2.79,24.86-4.36,45.55h-11.36c3.65-26.04,9.47-69.98,9.47-72.54h6.72c1.04,2.04,2.04,3.98,2.98,5.92,8.33,16.62,14.87,29.73,22.82,43.37h0v-.24c3.6-6.53,6.87-12.69,9.99-18.61,4.73-9.47,9.94-18.94,16.67-30.63h6.11c.28,2.32,4.36,37.88,8.71,72.54l-14.01.19Z"/>
    <path class="cls-1" d="m91.66,547.23c-9.68.1-19.03-3.51-26.14-10.08-15.28-16.04-15.28-41.25,0-57.29,7.1-6.6,16.45-10.22,26.14-10.13,14.96-.26,28.61,8.52,34.56,22.25,2.11,5.25,3.15,10.87,3.08,16.52.36,10.73-3.79,21.12-11.46,28.64-7.11,6.59-16.49,10.2-26.18,10.08Zm0-8.71c11.22,0,22.63-10.32,22.63-30.11s-11.41-30.11-22.63-30.11h0c-11.22,0-22.58,10.37-22.58,30.11s11.36,30.11,22.58,30.11Z"/>
    <path class="cls-1" d="m571,547.23c-9.68.1-19.03-3.51-26.14-10.08-15.33-16.02-15.33-41.27,0-57.29,7.07-6.63,16.44-10.27,26.14-10.13,14.97-.27,28.62,8.52,34.56,22.25,2.12,5.25,3.18,10.86,3.12,16.52,1,20.37-14.7,37.7-35.07,38.7-.93.05-1.87.06-2.8.03h.19Zm0-8.71c11.22,0,22.63-10.32,22.63-30.11s-11.41-30.11-22.63-30.11h0c-11.27,0-22.63,10.37-22.63,30.11s11.36,30.11,22.63,30.11Z"/>
    <path class="cls-1" d="m142.23,472.13c3.93-.28,20.45-.43,20.6-.43,12.45,0,17.28,2.41,21.45,6.53,3.89,3.8,6.01,9.05,5.87,14.49-.16,5.12-2.26,10-5.87,13.64-2.94,2.79-6.44,4.92-10.27,6.25l27.27,32.01h-16.62l-24.57-30.16h-4.36v30.3h-13.49v-72.63Zm18.94,7.53c-1.81,0-3.61.14-5.4.43h0v25.61h0c1.83.34,3.68.51,5.54.52,10.89,0,15.86-6.96,15.86-13.45h0c-.08-3.34-1.39-6.53-3.69-8.95-3.37-2.99-7.81-4.5-12.31-4.17Z"/>
    <polygon class="cls-1" points="381.14 544.72 381.14 472.18 394.59 472.18 394.59 535.11 424.56 535.11 424.56 544.72 381.14 544.72"/>
    <path class="cls-1" d="m755.99,475.07h-5.54v-2.89h14.68v2.89h-5.59v16h-3.55v-16Z"/>
    <path class="cls-1" d="m784.35,483.35c0-2.41-.28-5.35-.24-7.91h0c-.66,2.18-1.47,4.73-2.32,7.2l-2.84,8.19h-2.94l-2.6-8.05c-.76-2.41-1.42-5.02-1.94-7.34h0c0,2.46-.24,5.44-.38,8l-.43,7.62h-3.31l1.28-18.94h4.73l2.56,7.58c.71,2.18,1.28,4.5,1.8,6.53h0c.52-2.04,1.18-4.36,1.94-6.53l2.7-7.53h4.73l1.14,18.94h-3.46l-.43-7.76Z"/>
    <path class="cls-1" d="m677.25,544.72c-3.12-3.84-24.72-27.7-45.36-50.57v50.57h-10.46v-72.49h7.39l44.65,48.44v-48.34h10.42v72.49l-6.63-.09Z"/>
    <path class="cls-1" d="m835.82,544.72v-62.69c-7.66.07-15.31.55-22.92,1.42v-11.22h58.28v11.41c-7.25-.96-14.56-1.46-21.87-1.52v62.73l-13.49-.14Z"/>
    <path class="cls-1" d="m713.57,535.11v-23.34h25.9v-8.71h-25.9v-21.59c6.06,0,14.77,0,29.54.9v-10.23h-42.99v72.54h44.17v-10.7c-9.75.66-21.02,1.14-30.73,1.14Z"/>
    <path class="cls-1" d="m894.05,535.11v-23.34h25.9v-8.71h-25.9v-21.59c6.11,0,14.82,0,29.54.9v-10.23h-42.99v72.54h44.17v-10.7c-9.75.66-20.93,1.14-30.73,1.14Z"/>
    <path class="cls-1" d="m353.21,472.18c.47,27.89.24,38.92.24,38.92,0,9.04-.52,25.38-18.04,25.38-6.25,0-18.65-.99-18.65-21.78,0-18.7.43-41.76.47-42.61h-14.2v42.61c0,29.73,23.96,30.96,29.92,30.96,17.14,0,30.49-7.81,30.96-31.53v-42l-10.7.05Z"/>
    <path class="cls-1" d="m45.45,482.5h0v-10.32H1.47v72.54h13.45v-31.15h27.37v-9.47H14.91v-22.63c13.59,0,21.5.47,30.54,1.04Z"/>
  </g>
</svg>