<?xml version="1.0" encoding="UTF-8"?>
<svg id="Layer_2" data-name="Layer 2" xmlns="http://www.w3.org/2000/svg" viewBox="0 0 212.14 288.04">
  <defs>
    <style>
      .cls-1 {
        fill: #ec2227;
      }

      .cls-2 {
        fill: #fff;
      }

      .cls-3 {
        fill: #fcee23;
      }

      .cls-4 {
        fill: #231f20;
      }

      .cls-5 {
        fill: #059a4d;
      }
    </style>
  </defs>
  <g id="Layer_1-2" data-name="Layer 1">
    <path class="cls-4" d="m106.07,25.78C39.82,25.78.26,49.21.26,49.21l.81,53.36c0,24.48,8.01,128.72,105,185.47,97.05-56.74,105-160.93,105-185.47l.81-53.36s-39.52-23.43-105.81-23.43"/>
    <path class="cls-3" d="m207.89,53.04s-34.46-21.93-101.82-21.93S4.25,53.04,4.25,53.04l1.05,49.53c0,19.41,3.72,123.37,100.81,179.78,97.05-56.41,100.81-160.36,100.81-179.78l.96-49.53Z"/>
    <path class="cls-2" d="m212.14,24.97L106.07,0,0,24.97l.27,24.64S53.56,17.58,106.07,17.58s105.8,32.03,105.8,32.03l.27-24.64Z"/>
    <path class="cls-1" d="m212.14,31.83L106.07,13.83,0,31.83l.27,17.79s53.29-23.13,105.8-23.13,105.8,23.13,105.8,23.13l.27-17.79Z"/>
    <path class="cls-5" d="m0,26.51v-6.35L106.08,0l106.05,20.16v6.37L106.07,6.9,0,26.51Z"/>
    <path class="cls-4" d="m103.68,39.3c-.06.62-.19,1.23-.39,1.81-.24.62-.92,1.04-.86,1.44.17.57.6,1.02,1.15,1.24.5.33,1.03.59,1.6.78.63.16,1.44.62,1.66.09.22-.53-.12-1.18-.5-1.81-.66-1.08-.99-1.34-1.97-2.88-.22-.32-.37-.68-.68-.71m-4.97,117.89c0-.19,1.64.81,2.45,1.28,1.4.84,2.74,1.77,4.02,2.78,1.02.78,2.02,1.58,2.98,2.43,1.44,1.27,2.29,2.36,2.68,2.1.58-.69-.94-2.72-2.29-3.82-1.35-1.09-2.65-1.94-3.7-2.65-1.34-.88-1.44-1.09-3.47-2.43-1.42-.98-2.76-2.07-4.02-3.25l-2.1-1.66-3.3-2.74-3.64-3.37-2.77-3.08s-2.15-2.62-2.49-3.13-1.35-2.12-2.19-3.5c-.84-1.38-2.19-3.15-2.33-3.31-.78-.95-2.56-.56-4.62-1.79-1.3-.64-2.38-1.64-3.13-2.88-.05-.11-.12-.22-.19-.32-.09-.09-.18-.17-.29-.23l-1.31-.94-.76-.49c-.4-.32-.83-.58-1.3-.79-.72-.32-2.33-1.25-2.33-1.25l-2.88-1.83-1.44-1.21c-.35-.25-.71-.48-1.08-.69-.19-.1-.38-.19-.59-.24l-.73-.07c-.44-.04-.87.16-1.12.53-.56.66-.43.3.49,4.03.36,1.44.33,6.68.72,8.25.52,1.72,1.21,3.39,2.06,4.98.13.47.22.95.24,1.44-.04.48-.04.96,0,1.44.43,2.68,4.32.92,5.23,4.59.47,2.4.29,4.89-.5,7.2,0,0-.85,1.8-2.05,2.09s-3.02-2.35-4.32-4.48c-1.08-1.84-2-3.76-2.75-5.76-.24-.6-.54-1.17-.92-1.7-.59-.94-1.07-.78-1.73-2.26-.66-1.48,0-2.09-.37-3.38-.17-.72-.33-.81-.55-1.83-.22-1.02-.52-4.32-.52-4.32l-.42-3.05s-.14-1.44-.33-2.25c-.42-1.97-.72-3.97-.89-5.98l-.12-1.2v-1.25c-.02-.41.02-.81.12-1.21.1-.4.25-.78.45-1.14,0,0,.6-1.02.72-1.28.42-.59.87-1.16,1.35-1.7.55-.43,1.12-.83,1.71-1.2.61-.39,1.32-.6,2.05-.6.73,0,1.46.07,2.17.2,1.9.24,5.76,1.27,6.78,1.53,1,.26,1.96.63,2.88,1.09,2.17,1.18,2.88.68,1.11-.68-.85-.68-1.66-1.41-2.43-2.17-.7-.59-1.37-1.21-2-1.87-.58-.68-2.28-3.17-2.28-3.17l-1.04-1.56s-.58-.62-.66-.68c-.13-.08-.26-.17-.37-.27-.48.02-.97-.01-1.44-.1-.72-.13-1.05.88-1.05.88-.9,1.66-1.96,3.23-3.15,4.69-1.93,2.01-3.72,4.15-5.36,6.41-1.32,2.15-1.04,4.49-1.73,5.57-.33.39-.61.82-.84,1.28-.66,1.67,1.76,2.61,1.21,4.46-.88,2.88-7.81,5.89-8.73,5.39-.92-.5-.17-4.49.14-5.76.36-1.15.85-2.26,1.44-3.31.19-.28.33-.59.4-.92.07-.39.1-1.25.14-1.74.05-.42.14-.83.24-1.24.18-.49.39-.97.63-1.44.62-1.34,2.88-4.45,4.49-7.4,1.05-1.94,1.44-3.11,2.56-5.04,1.12-1.93,2.66-4.49,2.66-4.49,0,0,.72-1.44,1.05-1.92.33-.48,1.04-1.53,1.7-2.51.46-.91,1.04-1.76,1.71-2.52.6-.62,1.34-1.08,2.16-1.34,1.25-.37,2.59-.3,3.8.19,1.3.36,2.49,1.01,3.5,1.9.62.52,1.18,1.09,1.7,1.71l.48.69.29.17.91.59,2.07,1.37,5.18,3.53c.26.17,1.14.89,1.32.95.19.06,1.44-1.44,4.05-3.14,1.54-1.06,3.23-1.88,5.01-2.43.81-.45,1.54-1.04,2.15-1.74,1.15-1.17,1.15-1.77,2.46-3.38.75-.93,1.6-1.78,2.55-2.51,0,0,.19-.19,2.53-2.88,1.3-1.42,2.43-2.98,3.37-4.65l1.3-2.58s1.87-4,2.46-5.59c.31-.67.51-1.39.6-2.12.01-.44-.12-.87-.37-1.22-.46-.81-.94-.43-1.83-.26-1.5.21-3.02.08-4.46-.37-1.6-.27-2.42-.73-4-1.01-1.41-.25-2.85-.29-4.28-.1-.33.04-.66.11-.98.2-.64.18-1.25.44-1.83.76-.67.34-1.41.52-2.16.52-.49.04-.98-.03-1.44-.19-.34-.11-.65-.29-.91-.53-.16-.14-.3-.31-.42-.49,0-.17,0-.16.09-.43.08-.15.21-.27.37-.33l.73-.17,1.12-.3,1.53-.48c.32-.11.62-.25.92-.4,0,0,.27-.42.16-.66-.12-.24-.71-.3-.71-.3,0,0-.84.3-.94.32l-1.44.45-1.84.42c-.65.13-1.3.22-1.96.27l-.39-.09s-.4-.27-.46-.53c-.06-.26-.09-.43-.13-.72-.25-.86-.3-1.76-.14-2.64.09-.36.22-.72.39-1.05.12-.29.27-.56.45-.82l.63-1.04,1.21-1.77c.34-.38.74-.68,1.2-.91.66-.39,1.4-.62,2.16-.66.81-.06,1.61-.19,2.39-.39.79-.17,1.56-.44,2.28-.82,0,0,3.18-1.18,5.13-2.13s2.88-2.06,5.04-2.88c.76-.3,1.54-.55,2.33-.73.11-.06.18-.17.2-.29.1-.33-.43-.49-.78-.45s-1.04.36-1.21,0c-.17-.36.66-.45.66-.45,0,0,.37-.17.39-.39s-.55-.12-.79-.14c-.75-.11-1.48-.3-2.19-.56-.84-.31-1.71-.51-2.59-.6-.8-.02-1.6.09-2.38.3-.58.13-.59-.43-.37-.53.84-.55,1.81-.85,2.81-.88.54,0,1.07.05,1.6.16.58.05,1.16-.06,1.67-.33.32-.32-1.04-.3-1.67-.56-.63-.26-1.44-.3-1.44-.69s.46-.17.78-.24c.32-.07.62-.09,1.01-.14.72-.1.78-.16,1.84-.26.87,0,1.74.11,2.58.35l2.38,1.08c.55.25,1.13.44,1.73.56.67.08,1.35-.05,1.94-.37.86-.53.37-.86,0-1.35-.49-.69-.54-1.61-.12-2.35.49-1.09.73-2.35.88-2.46.14-.12.84.82,1.27,1.24,1.56,1.44,3.63,2.16,5.56,5.21.14.24.88-.14,3.14.2,2.26.35,4.21,2.75,4.71,3.33.3.34.73.54,1.18.56l1.08.13h3.93c.93-.2,1.88-.2,2.81,0,.72.27,3.13,1.87,2.03,2.49-.76.42-1.44-.52-2.17-.56-.65-.04-1.29.06-1.9.27-1.53.39-4.81,1.44-3.61,1.79h.24l.6.1c.78.17,1.54.39,2.29.66,1.11.51,2.16,1.11,3.15,1.81.54.41,1.12.75,1.74,1.02.62.07,1.24.11,1.86.12.8.13,1.58.39,2.3.76,1.03.62,2,1.34,2.88,2.16.56.4,1.04.48,1.44,1.02.1.1.18.21.23.35.16.5-.84.2-1.35.12-.48-.13-.94-.34-1.35-.62-.62-.41-1.3-.73-2.02-.94-.54-.07-1.09-.07-1.63,0-.62,0-.95.13-1.57.14-.91.01-1.81-.09-2.69-.3-1.17-.24-1.73-.69-2.88-.94-1.15-.24-3.61-1.44-3.38-.27.12.55,1.34.99,1.34.99,0,0,.82.46,1.63.81.48.19.9.49,1.25.86l.55.42s.58.79,1.31,1.66c.53.54,1.26.85,2.02.86.83.04,1.66.16,2.48.35,1.19.29,2.34.76,3.4,1.37.78.57,1.49,1.23,2.12,1.97.75.89.32,1.35.23,1.44s-.07,0-.16.09c-.38-.34-.73-.72-1.04-1.12l-.66-.58c-.48-.31-.99-.56-1.53-.75-.85-.27-1.12-.09-1.12-.09-1.1.3-2.24.45-3.38.46-.85.01-1.68-.22-2.41-.66l-.98-.66s-1.44-1.44-1.54-.75c-.1.69.65.95.65.95l.81.79c.59.59.84.89,1.53,1.44.29.33.69.54,1.12.62l.52.12c.13.02.26.06.39.1l1.31.52c.8.39,1.55.87,2.23,1.44.08.06.17.1.27.12.2.06.39.12.58.2.1,0,.37,0,.99.12.62.12.39.49.39.49l-.12.16-.5.35c-.37.1-.75.17-1.14.2-.37,0-.74-.08-1.09-.22l-1.44-.53s-1.44-.37-1.7-.42c-.59-.1-1.18-.21-1.77-.35-.34-.1-.68-.22-1.01-.36-.17-.1-.49-.17-1.24-.53-.63-.44-1.31-.81-2.02-1.11-.71-.36-1.57-.31-2.23.14-1.21.84,1.84.96,3.38,1.73,2.25,1.11,3.51,1.93,4.06,3.13.24.62.61,1.18,1.08,1.64.84.42,1.61.97,2.29,1.63.39.45.45.84.84,1.28.88,1.02,2.55.96,2.88,1.83s-1.44.45-2.25.36c-1.58-.14-1.96-1.6-3.43-2.19-.84-.32-1.44-.33-2.23-.6-1.54-.52-2.26-1.2-3.82-1.67-.94-.29-2.65-1.53-2.45-.58.06.19.15.38.26.55.14.23.29.44.46.65.23.31.48.6.76.86.83.66,1.72,1.24,2.66,1.73,1,.62,1.9,1.39,2.66,2.29.23.33.44.68.63,1.04.2.48,0,.62.37,1.28.21.46.52.87.91,1.2,1.04,1.02,2.13.81,3.47,1.44.36.13.39.2.78.62s0,.59,0,.59c-.8.2-1.61.31-2.43.3-1.07-.12-2.1-.49-3.01-1.08-.78-.44-1.46-1.04-1.99-1.76-.12,0-.4-.39-.63-.55-.43-.19-.89-.34-1.35-.45-.53-.14-.85-.16-1.44-.32s-1.44-.53-1.84-.63c-.56-.2-1.17-.17-1.71.07-1.17.69,1.79,1.15,2.71,2.13.46.5.65.85,1.09,1.35.26.37.56.71.91.99.25.17.52.31.81.43,0,0,.71.33,1.74.91.87.6,1.63,1.33,2.26,2.17l.73,1.14.45.65.1.29.16.37c.26.35.57.66.92.92.39.23.33.43.33.43-.08.13-.19.24-.33.3-.27.16-.42,0-.81-.1-.39-.1-.63-.48-.98-.75-.35-.27-.73-.98-1.44-1.37-.5-.25-1.03-.43-1.57-.55-.27-.09-.96-.53-1.24-.65l-.99-.43c-.68-.39-1.4-.72-2.13-.99-.76-.2-.29.26-.29.26.37.55.82,1.03,1.34,1.44.85.56,2.05,1.07,1.67,1.44-.37.37-.63.2-1.02.14-.55-.14-1.05-.43-1.44-.84-.56-.27-1.15-.49-1.76-.66-1.44-.46-.91.32-.58.73.21.26.47.48.76.65l.96.43.45.14,1.67.36c.73.16,1.41.47,2,.92.53.51,1.08.99,1.66,1.44.73.52,1.57.85,2.46.96.53,0,.5.43.5.43.01.15.01.31,0,.46-.03.12-.14.2-.26.2-.12,0-.16,0-.3.12-.23.07-.46.13-.69.16-.87-.03-1.73-.14-2.58-.32-.79-.24-1.54-.61-2.2-1.11-.6-.32-1.22-.61-1.86-.85-.64-.16-1.31-.19-1.96-.09-.12,0-.52.12-1.18.3-.66.19.16.43.16.43h.49l1.15.09c.75.09,1.48.26,2.19.5.9.4,1.69,1.01,2.32,1.77.43.43.92.8,1.44,1.11l.52.33.27.22.07.19c-.01.07-.04.14-.07.2-.05.09-.12.16-.2.22-.12,0-.25,0-.37,0-.12,0-.86-.39-1.44-.63-.45-.27-.94-.49-1.44-.65-.47-.12-.96-.17-1.44-.14-.74.13-1.48.22-2.23.27-.91.1-1.84.1-2.75,0-1.53-.19-3.53-1.44-3.79-1.04-.53.69,1.08.89,1.86,1.34.93.47,1.89.87,2.88,1.18.73.16,1.44.38,2.13.66,1.74.81,2.26,1.99,3.64,3.24.65.65,1.5,1.06,2.42,1.15.77.1,1.55.01,2.28-.24,1.44-.29,2.26-1.61,2.66-1.14.09.1,0,.19,0,.33-.04.13-.09.26-.14.39-.12.17-.26.33-.4.48-.53.4-1.11.74-1.73.99-1.06.38-2.19.55-3.31.5-1.32-.18-2.59-.6-3.76-1.24l-1.58-.66s-.73-.36-1.21-.53c-1.15-.33-2.32-.6-3.5-.81-.85-.23-1.44-.46-2.15-.62-.71-.16-.33.14-.26.26.39.42.89.74,1.44.91.79.39,1.35.32,2.17.65.77.34,1.51.75,2.2,1.22.54.33,1.02.73,1.44,1.2l1.69,1.44s.39.32.43.46c.15.32.2.68.14,1.04-.1.55-.55.16-.55.16l-.45-.27-.43-.42-.72-.58c-.5-.42-1.05-.78-1.63-1.08-.72-.34-1.5-.57-2.29-.66,0,0-1.09-.17-1.05.17.04.35.3.37,1.17.6.51.14,1,.36,1.44.66.55.44,1.07.92,1.54,1.44.38.41.66.91.82,1.44.32.53.71,1.01,1.15,1.44.84.81,1.28.53,1.22.92-.03.23-.19.41-.42.46h-.3c-.18-.05-.35-.12-.52-.2-.23-.1-1.11-.69-1.11-.69,0,0-1.35-1.11-1.53-1.22l-1.44-1.08s-.76-.48-1.31-.76c-.55-.26-1.12-.49-1.7-.69-.39-.09-.78-.15-1.18-.17-.49-.08-.97-.19-1.44-.35-.72-.36-1.4-.81-2.02-1.32-.36-.13-.73-.24-1.11-.3-.34.78-.55,1.61-.6,2.46-.37,3.73.62,6.21,2.15,9.63,2.25,4.98,8.44,11.18,8.44,11.18.76.44,1.5.92,2.22,1.44,2.68,1.9,5.24,3.98,7.65,6.22,1.92,2.06,3.74,4.22,5.43,6.47.97,1.38,1.84,2.82,2.61,4.32.75,1.77,1.37,3.59,1.83,5.46.02.23.07.47.14.69,0,.12.2.27.33.27h1.08c.72-.05,1.44-.15,2.15-.3,1.38-.47,2.72-1.05,4-1.74.98-.57,1.91-1.23,2.78-1.96,0,0,.29-.24,1.79-1.89,1.21-1.52,2.15-3.23,2.79-5.07.52-1.88.81-3.81.86-5.76.12-2.1.06-4.21-.19-6.29,0,0-.56-4.51-.89-6.03-.33-1.53-1.15-4.03-1.15-4.03,0,0-.58-2.23-.76-3.63-.19-1.4-.2-3.7-.2-3.7.05-1.34.2-2.67.46-3.99.4-1.83,1.09-3.57,2.05-5.18.63-1.02,1.35-1.99,2.16-2.88,1.12-1.44,2.48-2.69,4.02-3.67,1.35-.98,3.13-2.55,3.7-2.17.58.37-.62,1.2-1.04,1.61-1.84,1.68-3.43,3.62-4.71,5.76-1.08,1.75-1.86,3.67-2.3,5.67-.24,1.31-.29,2.64-.16,3.96,0,.59.37.37.37.37,1.88-1.5,3.66-3.13,5.33-4.87,2.05-2.28,3.85-6.32,4.55-6.35.48,0,.69,1.05.59,1.56-.21,1.31-.65,2.58-1.28,3.74-.73,1.35-1.59,2.62-2.58,3.79-1.07,1.26-1.95,2.67-2.62,4.18-.79,1.62-.99,3.47-.55,5.21,0,0,.16,1.44.78,1.44,1.04,0,3.33-2.88,4.81-5.27,1.09-1.73,1.44-3.73,2.22-4.77s1.22,1.51.95,2.95c-.53,2.1-1.57,4.04-3.02,5.65-1.06,1.31-1.68,2.92-1.76,4.61-.53,2.94-.47,5.95.16,8.87.33,1.64.56,3.3.68,4.97.25,3.73-.43,7.46-1.97,10.86-.74,1.28-1.58,2.5-2.52,3.64-.75.77-1.55,1.49-2.41,2.15-1.18.75-2.41,1.43-3.67,2.02,0,0-1.8.62-2.06.68-.17.05-.32.15-.43.29l.24.49c.07.14.58,1.44.58,1.44.31,1.04.56,2.09.73,3.15.14.93.06,1.88-.23,2.78-.2,1.02-.65.55-.75,2.56-.12,1.77.71,2.65.55,4.64,0,.86-1.05-1.08-1.44-1.93-.68-1.67-.96-3.49-.79-5.29-.02-.79-.13-1.57-.33-2.33-.27-.98-.71-1.89-1.31-2.71-.53-.68-1.09-1.07-1.28-1.01-.19.06-.2.43-.2.62.1.35.25.68.45.98l.75,1.37c.24.77.4,1.57.49,2.38.02,1.37-.13,2.73-.45,4.06-.71,2.96-2.17,5.68-4.25,7.91-.96.96-1.76,2.07-2.36,3.28-1.02,2.05-.14,2.88-.52,3.18s-1.2-1.17-1.44-2.15c-.18-.79-.09-1.61.27-2.33.33-.82.72-1.61,1.17-2.38l1.22-2.09c.8-1.54,1.44-3.16,1.92-4.82.28-1.43.28-2.89,0-4.32,0,0-.07-.73-.58-.71-.52.11-.93.5-1.08,1.01-.43,1.12.17.92-.46,2.78-.52,1.44-.65,1.27-.91,2.13-.29.89-.45,1.83-.48,2.77,0,.65-.33.37-.33.37-.39-.81-.59-1.69-.6-2.59,0-.67.03-1.34.12-2,.16-1.07.37-2.13.65-3.17.33-1.18.48-2.4.43-3.63-.12-1.73-.72-2.05-.72-2.05,0,0-.16-.24-.84-.2-.68.04-.63,1.25-.63,1.25-.11.93-.27,1.85-.48,2.77-.64,2.55-1.82,4.93-3.47,6.97-1.39,1.89-3,3.61-4.78,5.13-1.07.94-4.32,3.33-4.32,3.33l-3.85,2.56c-.94.94-1.69,2.04-2.23,3.25-.63,1.52-.72,3.2-.26,4.78.23,1.04.67,2.02,1.3,2.88.51.64.88,1.38,1.09,2.17.07.51.1,1.02.07,1.53,0,.52.1.81.1,1.31,0,.82.13,1.44-.33,2.07-.36.4-.79.72-1.28.94,0,0-1.04.48-1.66.85-4.88,2.75-9.15,6.46-12.56,10.92-1.18,1.44-.32,1.31-1.58,2.98-.75.99-2.49.99-3.14,2.19-.88,1.61,2,3.21-1.32,4.64-4.32,1.86-11.62.53-11.77,0-.4-1.6,1.44-3.41,2.09-4.12,3-3.28,5.67-3.36,6.64-6.06.22-.59.14-1.08,2.51-2.88,4.03-2.89,7.8-6.11,11.29-9.63.95-.91,1.71-1.99,2.23-3.2.26-.71.09-1.5-.43-2.05l-1.2-1.96-2.3-4.1s-.96-2.17-1.44-3.44-1.53-4.65-1.53-4.65c-.41-1.65-.7-3.33-.86-5.03-.19-3.08.22-6.17,1.2-9.1,1.22-4.51,3.97-6.39,5.08-10.84.32-1.28.39-3.5-.26-3.4s-.69,1.87-1.15,3.04c-1.77,4.41-4.12,6.35-5.42,10.93-.83,2.63-1.24,5.38-1.2,8.14-.05,1.58.08,3.15.4,4.69.19.98.47,1.94.82,2.88.24.82.89,2.33.89,2.33.51,1.11.93,2.26,1.24,3.44.13.4.19.82.19,1.24,0,.85.09,1.04-.32,1.8s-.19,1.44-1.81,1.84c-1.47.05-2.93-.17-4.32-.63,0,0-12.08-3.67-19.79-2.61-1.27.36-2.57.6-3.89.72-1.44,0-2.1-1.11-3.49-.69-.3.09-.39.29-.63.46-2.05,1.44-.49,3.79-5.86,2.55-3.3-.75-7.3-2.77-6.61-4.05.92-1.69,2.17-1.96,4.78-3.02s6.97-.82,7.81-.88c1.42-.37,2.86-.63,4.32-.81,1.23-.16,2.49-.05,3.67.32l5.3.46,10.08.13s1.8-.14,2.53-.27c.73-.13,1.3-1.57,1.68-2.25.21-.54.21-1.14,0-1.68l-.32-.46-.95-1.56-1.79-3.01-2.16-3.87s-1.3-2.74-1.99-4.54c-.62-1.51-1.13-3.07-1.54-4.65-.44-1.63-.71-3.31-.82-5-.23-1.93-.09-3.88.4-5.76"/>
    <path class="cls-2" d="m164.41,153.52c2.12-2.74,2.33-5.27,2.46-8.86-.06-2.23-.36-4.44-.89-6.61l-.13-.29s-.37-.48-.6.16c0,.56.1,1.02.1,1.02l.13,5.16c-.15,1.8-.5,3.57-1.05,5.29-1.44,4.52-5.44,6.54-6.02,8.15-.98,2.72,3.46-.73,6.01-4.02m-22.32,8.35c-.5.14-.86.58-.89,1.09,0,.86.22,1.61.19,2.65,0,1.31-1.24,2.88-.46,3.34,1.35.85,2.51-5.14,2.1-6.03s-.81-1.07-.94-1.05m-14.99,41.62c-.23-.11-.5-.11-.73,0-.29.1-.47.37-.46.68,0,0-.09.53.3.6.39.07,1.04-.89,1.04-1.01-.03-.11-.08-.22-.14-.32m-14.13,10.08s-.16.14,0,.24c.16.1.3,0,.3,0,0,0,2.45-1.92,3.89-3.25,1.44-1.34,3.73-3.9,3.73-3.9.1-.1.1-.26,0-.36-.16-.14-.59.1-.94.26-.26.14-.49.32-.71.52-.23.19-.94.92-.94.92l-1.9,1.84-1.17,1.11-1.17,1.11-.49.55-.16.27-.16.22s-.17.17-.17.22v.16s0,.09,0,.13m-4.23,2.77c-.21-.13-.47-.13-.68,0-.35.22-.65.51-.89.85,0,0-.27.37-.12.65s.69-.13.76-.14c.07-.01.76-.55.76-.55.26-.19.32-.54.16-.81m-8.08,8.19s-.35-.65-.79-.39c-.45.21-.84.53-1.12.94-.07.1-.52.68-.6.82s-.52.99.39,1.05c1.56.1.53-.91,1.08-1.3.55-.39,1.24-.23,1.25-.55,0-.21-.08-.41-.2-.58m-27.68-32.69s-.95.22-1.02.55c-.07.33.56.66.65.68.09.01.33.26.95-.16.62-.42.59-.78.59-.78,0,0,.36-.43-1.17-.29m15.22-.5s0-.35-.68-.3-.82.16-.82.26,0,.27.62.33c.62.06.86,0,.88-.29m14.4.42c-.52-.04-1.05-.04-1.57,0-1.14.08-2.29.08-3.43,0-1.87-.12-4.77-.59-4.77-.59,0,0-.36-.09-.5.14-.14.23.35.73.79.88,1.31.5,2.71.72,4.1.63.91,0,1.44,0,2.3-.13.97.04,1.93-.05,2.88-.24.33-.07.65-.68.17-.69m8.12-2.41s-.24-.27-.75,0c-.33.19-.61.46-.79.79,0,0-.24.37.26.3.37-.04.73-.16,1.05-.35.12,0,.48-.4.23-.71m-7.07-97.34c2.28-2.22,4.26-4.72,5.88-7.46,1.44-2.52,2.1-8.41.85-6.93-.58.65-1.25,3.72-2.33,5.98-1.43,2.7-3.05,5.3-4.84,7.78,0,0-.71,1.51.45.63m-13.68,8.15c-.22.18-.3.47-.2.73.17.46.88.12.88.12,1.04-.37,2.13-.59,3.23-.66,1.34,0,2.67.15,3.97.43,0,0,1.11.3,1.28.37.17.07.79.36.88.39.09.03.66.32.99,0,.33-.32-2-2.39-4.32-2.71-2.24-.36-4.54.04-6.52,1.15l-.19.17Zm-16.26,13.9c.29.23,1.61-2.28,2.72-3.86.81-1.17,2.28-3.11,2.28-3.11,0,0,.65-.91-.46-.4-1.13.68-2.03,1.68-2.59,2.88-.76,1.44-2.22,4.22-1.94,4.46m-9.27-10.95c-.11.83.21,1.65.85,2.19,1.15,1.21,1.44,2.22,2.17,1.44.2-.2-.72-1.84-1.18-2.3-.46-.46-.55-.55-.81-.82l-.3-.24-.37-.22-.22-.09s-.1-.03-.14,0m-3.7-9.29s-1.24.23-1.54.82c-.3.59,1.44.24,1.44.24,0,0,1.15,0,1.18-.37.03-.37-.16-.49-1.05-.69m-19.62,32.48c-.63-.19-.73,1.05-.82,1.44s.29,1.21.42,1.2c.13-.01.66-.79.69-1.17.03-.37.27-1.31-.29-1.44m20.35,24.2s-1.12-.89-1.3-.53c-.17.36.92,1.92.92,1.92.18.28.54.4.85.27.3-.15.44-.49.33-.81,0,0-.35-.73-.81-.85m-8.5-26.17c-.18-.03-.35.08-.39.26,0,0,0,0,0,0-.1.52-.16,1.05-.17,1.58,0,.66.04,1.31.14,1.96.05.61.17,1.21.33,1.8.24.62.54,1.21.89,1.77,0,0,.24.55.55.52.3-.03.22-.39.22-.39,0,0-.94-3.74-.96-4.12-.12-1.24-.12-2.77-.12-2.77v-.23c-.02-.25-.24-.43-.49-.4,0,0,0,0,0,0m1.44-11.42s-.53-.1-1.01.89c-.48.99-.37,1.44-.33,1.44s.42,0,1.02-.89c.6-.89.48-1.28.48-1.28,0,0,0-.19-.16-.19m14.26,10.35s.63.92-.56.72c-1.2-.2-3.73-2.22-4.75-2.75s-2.69-.71-1.99-1.32c.12-.12.16-.22.36-.23.32.06.63.16.94.29l1.89.78c.07,0,1.07.46,1.77.86.71.4,1.86,1.24,1.86,1.24l.49.42Zm33.3,28.65c.32,1.04-3.79-2.17-6.01-3.87-5.76-4.49-12.96-13.72-12.1-14.53.86-.81,3.67,3.56,7.96,8.21,4.59,4.95,9.94,9.58,10.08,10.2m17.18-4.41c-1.25,1.1-1.66,2.88-.99,4.41.72,1.27.95-1.86,1.74-2.78s1.11-.68,2.25-1.44c1.93-1.44-1.44-1.89-3-.16m-7.32-29.11c-.88-.14-.85,1.18-.72,2.13.61,3.93,2.35,7.61,5.01,10.57,1.54,1.86,5.76,5.18,6.28,4.65.17-.19-4.03-3.43-6.71-7.6-1.67-2.35-2.75-5.07-3.15-7.92,0-.3,0-1.71-.71-1.83m-16.29-62.79c-1.68.8-3.42,1.45-5.21,1.94,0,0-.16.32.27.29,1.87-.05,3.72-.48,5.43-1.25,1.06-.57,1.96-1.4,2.61-2.42,0,0,.6-1.12-.53-.19-.82.6-1.67,1.14-2.56,1.63m23.04-7.2c-.36-.08-.74-.04-1.08.12-.43.27-.3.5-.3.5.34.27.73.48,1.15.6.48.07,1.51.52,1.44.17-.18-.45-.46-.86-.82-1.18-.12-.1-.26-.18-.42-.22m-10.83,19.87c.98,0,1.94-.25,2.79-.72.59-.33.81-1.44.81-1.44,0,0,.17-1.07-.09-.66-1.11,1.81-3.61,2.56-3.51,2.88m0-4.97c.78-1.44-2.15,1.56-3.64,2.35-.91.49-2.39,1.12-2.39,1.12,0,0-.39.49.16.45.55-.04,1.94.43,3.07-.45.51-.61,1-1.25,1.44-1.92.53-.45.99-.97,1.37-1.56m-.46,6.38c1.38.24,2.79.24,4.18,0,.63-.19.99-1.34.99-1.34,0,0,.39-.99,0-.66-1.44,1.44-5.27,1.83-5.23,2.07m-52.65,29.85s-.49-.17-1.11.75c-.62.92-3.37,5.11-2.88,5.76.49.65,2.97-3.74,3.69-4.58.43-.45.6-1.09.45-1.7,0,0,0-.19-.14-.2m60.1,75.59c-.25,1.62-.06,3.28.55,4.8,1.17,1.44.46-2.2.62-3.47.1-1.01.39-1.99.86-2.88,1.05-2.28-1.44-1.44-2.03,1.53m-10.08-121.15c-.57.03-1.12.17-1.63.42-.4.2-.71.53-.89.94-.06.2-.06.42,0,.62.2.49,1.18-.24,1.87,0,.5.15.94.45,1.25.86.36.45,1.02,1.09,1.44.72.42-.37.26-1.25.26-1.25-.22-.72-.6-1.37-1.12-1.92-.33-.24-.73-.38-1.14-.39m-15.12,10.43s-.5.07-.37.69c.13.62.45.52.45.52,0,0,1.05-.45.98-1.08-.07-.63-1.05-.13-1.05-.13m-7.37-3.31c-.41.06-.76.33-.94.71-.25.46-.46.94-.62,1.44,0,0-.19.89.14,1.18.33.29.68-.59,1.14-.92l.75-.49c.39-.27,1.04.07.98-.72-.1-.71-.73-1.21-1.44-1.15m23.85-8.64s-1.27-.19-1.21.3c.06.49.68.17,1.09.36.36.12.69.3.98.55.23.2.2.62.49.62s.32-.16.32-.16c-.16-.54-.44-1.04-.84-1.44-.24-.18-.54-.27-.84-.27m14.01,5.06c-.08.31-.18.62-.3.92,0,0-.35,1.44,1.05.88.59-.19,1.16-.46,1.69-.79,1.01-.49.96-.22,1.7-.19.26.05.53.05.79,0,.32,0,.17-.43-.52-.62-.92-.16-1.86-.22-2.79-.17-.62,0-1.44-.65-1.61,0m.62-5.14c-.37-.07-.75-.03-1.09.13-.43.29-.3.5-.3.5.34.27.73.47,1.15.59.48.09,1.44.53,1.44.17-.18-.44-.46-.84-.81-1.17-.13-.1-.27-.17-.42-.23m2.46,9.65c-.39-.08-.79-.03-1.15.13-.48.26-.33.46-.33.46.37.26.79.45,1.22.56.52,0,1.63.49,1.58.16-.04-.33-.66-.94-.88-1.11-.13-.1-.29-.17-.45-.2m.2,3.5c-.41-.09-.84-.04-1.22.14-.49.29-.35.53-.35.53.39.29.84.51,1.31.65.55.09,1.7.56,1.66.17-.2-.49-.51-.92-.92-1.25-.14-.12-.3-.2-.48-.24m.35,3.41c-.45-.1-.92-.05-1.34.14-.53.35-.37.6-.37.6.43.34.92.59,1.44.73.59.1,1.86.65,1.8.22-.21-.55-.55-1.05-.99-1.44-.14-.13-.32-.22-.5-.27m-.09,4.21c-.45-.09-.91-.04-1.32.16-.55.35-.37.6-.37.6.43.34.92.59,1.44.73.59.1,1.86.65,1.8.22-.22-.55-.57-1.04-1.01-1.44-.15-.12-.32-.21-.5-.27m-.58,8.22c-.45-.09-.91-.04-1.32.16-.53.33-.37.6-.37.6.43.33.92.58,1.44.73.59.09,1.87.63,1.81.22-.22-.55-.56-1.05-1.01-1.44-.14-.13-.32-.22-.5-.27m.53-4.12c-.52-.11-1.06-.04-1.54.19-.6.39-.42.69-.42.69.48.39,1.03.68,1.63.85.68.12,2.15.73,2.07.24-.24-.63-.64-1.2-1.15-1.64-.17-.16-.37-.27-.59-.33m-.92,7.82c-.37-.08-.75-.03-1.09.13-.45.29-.3.5-.3.5.34.28.73.48,1.15.6.49,0,1.53.53,1.44.17-.18-.45-.46-.86-.82-1.18-.12-.1-.26-.18-.42-.23m-.62,3.57c-.31-.07-.63-.03-.91.12-.36.22-.26.4-.26.4.28.23.61.4.96.5.4,0,1.27.43,1.24.14-.15-.38-.39-.71-.69-.98-.1-.09-.22-.15-.35-.19m-.75,3.24c-.28-.05-.57-.02-.84.1-.32.2-.23.37-.23.37.26.2.56.36.88.45.36,0,1.14.4,1.11.13-.13-.34-.34-.64-.62-.88-.09-.08-.19-.14-.3-.17m-.78,2.66c-.28-.06-.56-.03-.82.09-.33.22-.23.39-.23.39.26.2.55.35.86.45.37,0,1.15.39,1.11.13-.13-.34-.34-.64-.62-.88-.09-.08-.19-.14-.3-.17m-.94,3.08c-.22-.05-.45-.02-.65.09-.27.17-.19.3-.19.3.2.16.44.29.69.36.3,0,.94.32.91.1-.11-.27-.29-.51-.5-.71-.08-.06-.16-.11-.26-.14m-1.11,2.88c-.19-.04-.39-.01-.56.07-.23.14-.16.26-.16.26.18.14.38.25.6.32.24,0,.79.27.78.09-.1-.24-.25-.45-.43-.62-.07-.05-.15-.09-.23-.12m-1.14,2.75c-.19-.04-.39-.01-.56.07-.24.13-.17.24-.17.24.18.15.38.25.6.32.26,0,.79.29.78.1-.09-.24-.24-.45-.43-.62-.06-.05-.14-.09-.22-.12m-74.28,13.97s-.58,1.11-.29,1.71c.29.6,1.05-.96,1.05-.96,0,0,.81-1.58.48-1.87-.33-.29-.52.53-1.24,1.12"/>
    <path class="cls-4" d="m86.57,215.18s-.43-.56-.84-.16c-.43.62-1.12.99-1.87.99-.65-.02-1.28-.17-1.87-.45l-1.27-.58c-1.14-.43-2.33-.69-3.54-.78-2.04-.04-4.02.69-5.56,2.03-.77.81-1.32,1.8-1.61,2.88-.24,1.23-.13,2.51.3,3.69.79,1.43,1.94,2.64,3.33,3.51,1.79,1.09,2.56,1.44,2.56,1.44l3.11,1.44,2.88,1.08s4.16,1.24,4.67,4.32c.5,3.08-1.44,7.2-7.11,7.58-5.67.37-8.38-2.38-9.26-4.12-.52-1-.66-2.16-.37-3.25l.23-.49.23-.1c.51.34,1.12.5,1.73.48,1.37-.2,2.31-1.48,2.11-2.85,0-.01,0-.02,0-.03-.21-1.23-1.32-2.09-2.56-2-.72,0-3.96.89-4.02,5.59.12,2.95,1.7,5.65,4.22,7.2,1.96,1.15,4.18,1.75,6.45,1.74,2.16-.13,4.27-.64,6.25-1.51,3-1.6,4.97-4.64,5.2-8.04.13-5.5-3.36-7.45-3.36-7.45-.76-.54-1.56-1.02-2.39-1.44-1.3-.6-2.59-1.21-3.89-1.84l-2.78-1.27-1.7-.94-.94-.63s-2.26-1.79-1.07-3.72c1.2-1.93,4.71-1.21,4.71-1.21,3.3.71,6.21,2.64,8.14,5.42l.88,1.44.12.19.75-.26c-.57-1.51-1.05-3.05-1.44-4.61-.22-1.35-.43-3.46-.43-3.46m33.43,18.58c.46.49,1.09.79,1.76.84,1.33.02,2.42-1.05,2.44-2.37,0-.05,0-.1,0-.15-.06-1.1-.81-2.03-1.87-2.32-1.72-.33-3.45.58-4.15,2.19-.81,1.64-1.02,3.51-.6,5.29.62,2.6,2.31,4.81,4.67,6.08,2.59,1.33,5.61,1.54,8.37.59,2.33-.91,4.4-2.36,6.06-4.23,1.76-2.05,3.17-4.39,4.15-6.91l.98-2.46h1.18c1,.07,1.99-.21,2.81-.79.76-.63,1.4-1.39,1.9-2.25l.14-.39-.75-.35c-.51.64-1.23,1.08-2.03,1.22-.81.06-1.62.03-2.42-.09l1.14-3.05s1.32-2.66,1.7-3.27,1.9-2.59,1.9-2.59c2.09-.04,4.17-.26,6.22-.66,1.68-.34,3.33-.83,4.93-1.44l3.79-1.56.92-.5-.29-.75c-2.74.88-5.57,1.48-8.44,1.77-2.71.38-5.47.38-8.18,0l-5.76-.88c-1.02-.16-2.04-.26-3.07-.3-1.37.07-2.73.23-4.08.48-1.38.3-2.71.82-3.93,1.54-1.24.92-4.16,3.08-2.88,6.37,1.28,3.28,6.81,1.54,7.58-.91l.32-.78.09-.45-.48-.17-.55.63s-2.03,1.71-3.61.62c-.86-.58-1.09-1.74-.51-2.6.05-.07.1-.14.16-.21.8-.88,1.87-1.47,3.04-1.67,1.71-.22,3.44-.12,5.11.29l3.34.62s1.84.35,1.93.35l.69.09-1.17,1.3c-1.16,1.17-2.13,2.51-2.88,3.97-1.18,2.35-1.73,3.57-1.73,3.57l-.12.19c-.85.1-1.67.35-2.43.73-.6.38-1.13.87-1.56,1.44l-.45.79.59.5c.41-.45.93-.79,1.51-.99.48-.12.99-.08,1.44.12,0,0-1.21,2.98-1.79,4.06-.77,1.62-1.74,3.14-2.88,4.52-1.29,1.79-3.27,2.94-5.46,3.18-2.35.25-4.66-.71-6.14-2.55-.78-1.04-1.25-2.28-1.34-3.57,0-.75.19-1.49.53-2.16"/>
  </g>
</svg>