<?xml version="1.0" encoding="UTF-8"?>
<svg id="Layer_2" data-name="Layer 2" xmlns="http://www.w3.org/2000/svg" viewBox="0 0 1183.22 312.25">
  <defs>
    <style>
      .cls-1 {
        fill: #fff;
      }

      .cls-2, .cls-3 {
        fill: #d92e27;
      }

      .cls-4, .cls-5 {
        fill: #233f94;
      }

      .cls-5, .cls-3 {
        fill-rule: evenodd;
      }
    </style>
  </defs>
  <g id="Layer_1-2" data-name="Layer 1">
    <path class="cls-3" d="m197.27,0C111.07.13,41.26,70.05,41.26,156.25v9.04h-19.93c-.97.01-1.83.61-2.18,1.52-.38.8-18.42,32.62-18.94,33.14s0,1.33.66,1.33h47.35c24.87,82.47,111.88,129.16,194.35,104.29,82.47-24.87,129.16-111.88,104.29-194.35C327.01,45.38,266.37.31,197.6.28l-.33-.28Zm-111.5,201.46h41.57l-20.03,34.66c-9.06-10.27-16.34-21.99-21.54-34.66Zm111.5,74.9c-31.43.05-61.61-12.26-84.04-34.28h33.76s96.87-171.21,97.39-171.87c.52-.66,0-1.14-.43-1.14h-39.63c-.8,0-.9,0-1.14.57-.24.57-54.73,95.21-54.73,95.21h-71.02c0-2.98-.33-6.25-.33-9.04.16-66.39,54.12-120.08,120.51-119.92,32.43.08,63.45,13.26,86.02,36.54-9.47,16.05-52.08,88.35-57.76,98.91-3.31-7.67-18.94-6.25-26.56-6.25-3.46,5.78-19.55,36.22-19.55,36.22h16.76c7.95,0,8.71,8.24,5.59,13.35s-15.77,27.46-15.77,27.46h40.86l78.64-137.31c7.61,15.99,11.55,33.48,11.51,51.18-.03,66.4-53.82,120.23-120.21,120.31l.14.05Z"/>
    <path class="cls-5" d="m401.1,294.07v-79.78h12.93v31.2h52.08v-31.2h12.88v79.78h-12.59v-36.93h-52.08v36.93h-13.21Zm110.41,1.99c-21.73,0-24.1-12.45-24.1-17.94,0-11.41,7.1-16.62,25.33-18.7l12.5-1.33c6.2-.71,9.47-1.8,9.47-6.25,0-6.25-4.73-8.85-16-8.85s-16.95,3.55-17.23,10.84v.57h-11.41v-.62c1.47-14.2,10.7-20.6,29.26-20.6,10.13,0,27.18,2.18,27.18,17v31.15c0,3.08,1.23,4.31,4.36,4.31,1.24,0,2.48-.14,3.69-.43h.71v9h-.47c-2.86.48-5.76.7-8.66.66-4.73,0-9.04-.9-10.32-7.15-6.69,5.69-15.28,8.66-24.05,8.33h-.24Zm23.25-25.38v-6.25c-3.09,1.67-6.53,2.59-10.04,2.7l-12.5,1.52c-9.04,1.18-12.45,3.65-12.45,8.85s5.16,8.52,12.78,8.52c5.57.15,11.06-1.37,15.77-4.36,3.84-2.37,6.25-6.48,6.44-10.98Zm92.61,14.2v9h-.52c-2.86.48-5.76.7-8.66.66-4.73,0-9.04-.9-10.27-7.15-6.72,5.73-15.32,8.75-24.15,8.48-21.73,0-24.1-12.45-24.1-17.94,0-11.46,7.1-16.62,25.33-18.94l12.5-1.28c6.2-.71,9.47-1.85,9.47-6.25,0-6.25-4.73-8.85-16-8.85s-17.04,3.65-17.04,10.98v.52h-11.79v-.62c1.47-14.2,10.75-20.6,29.26-20.6,10.13,0,27.18,2.23,27.18,17v31.2c0,3.03,1.23,4.31,4.36,4.31,1.26-.04,2.51-.2,3.74-.47l.71-.05Zm-20.41-20.31c-3.09,1.65-6.53,2.56-10.04,2.65l-12.5,1.52c-9.04,1.18-12.45,3.69-12.45,8.85s5.16,8.57,12.45,8.57c5.59.1,11.08-1.43,15.81-4.4,3.79-2.49,6.12-6.69,6.2-11.22l.52-5.97Zm23.06,9.85v.62c1.04,13.78,11.13,20.69,30.11,20.69,7.46.51,14.9-1.13,21.45-4.73,5.29-3.26,8.39-9.14,8.1-15.34,0-9-6.2-14.2-20.64-15.91l-15.67-2.13c-7.58-1.04-9.04-3.12-9.04-6.53.1-2.87,2-5.37,4.73-6.25,3.17-1.28,6.57-1.9,9.99-1.8,11.84,0,16.33,5.26,16.62,10.18v.62h12.5v-.71c-1.14-12.83-11.36-19.89-28.83-19.89-6.85-.32-13.64,1.41-19.51,4.97-7.58,4.98-9.69,15.17-4.71,22.75,3.04,4.63,8.21,7.41,13.75,7.41l18.13,2.37c8.66,1.18,10.37,3.55,10.37,7.1.04,2.3-1.17,4.44-3.17,5.59-4.25,2.18-9.01,3.16-13.78,2.84-12.93,0-17.57-5.68-17.57-10.89v-.76l-12.83-.19Zm156.01-60.46h-62.4v79.97h13.54v-34.75h46.45v-11.98h-46.49v-21.07h48.86l.05-12.17Zm31.86,0v.95c-.71,8.85-8.05,13.35-21.68,13.35h-3.65v10.46h22.87v55.02h13.54v-79.45l-11.08-.33Zm127.84,11.98v-11.79h-72.16v11.98h29.45v67.8h13.59v-67.66l29.12-.33Zm55.68,40.34v2.37h-52.65c1.68,9.63,10.22,16.53,19.98,16.15,7.16.42,13.94-3.25,17.52-9.47v-.57h13.68l-.57,1.37c-4.96,12.32-17.07,20.25-30.35,19.89-20.69,0-34.14-12.45-34.14-31.49-.23-8.23,2.84-16.21,8.52-22.16,6.9-6.47,16.12-9.88,25.57-9.47,15.96,0,32.53,8.95,32.53,33.57l-.09-.19Zm-52.08-8h38.3c-1.82-8.73-9.8-14.79-18.7-14.2-9.02-.49-17.12,5.46-19.36,14.2h-.24Zm126.37,25.95v9.71h-.9c-2.87.43-5.76.66-8.66.66-4.31,0-8.85-.85-10.37-6.72-6.68,5.43-15.07,8.28-23.67,8.05-21.83,0-24.19-12.5-24.19-18.23,0-11.36,7.34-16.76,25.38-18.7l12.5-1.33c6.25-.66,9.04-1.7,9.04-6.25,0-5.87-4.73-8.33-15.53-8.33s-16.43,3.36-16.67,10.32v.95h-12.5v-1.04c1.47-14.2,10.75-20.74,29.36-20.74,10.18,0,27.27,2.27,27.32,17.23v31.15c0,2.79,1.04,3.93,3.93,3.93,1.21-.04,2.42-.2,3.6-.47l1.37-.19Zm-20.97-18.94c-2.98,1.39-6.19,2.21-9.47,2.41l-12.5,1.47c-8.85,1.14-12.17,3.46-12.17,8.43s5.02,8.05,12.5,8.05c5.46.13,10.83-1.37,15.44-4.31,3.77-2.28,6.11-6.34,6.2-10.75v-5.3Zm128.36-11.03c-.02-11.64-9.48-21.05-21.11-21.03-.48,0-.95.02-1.42.05-8.8-.43-17.3,3.24-23.01,9.94-4.36-6.43-11.7-10.18-19.46-9.94-8.16-.39-16.07,2.88-21.59,8.9v-6.96h-12.88v59.09h12.93v-33.85c-.2-4.6,1.76-9.03,5.3-11.98,3.55-2.81,7.98-4.25,12.5-4.07,6.27-.61,11.85,3.99,12.46,10.26.07.75.07,1.5,0,2.24v37.4h12.93v-35.51c-.23-4.27,1.71-8.37,5.16-10.89,3.71-2.42,8.07-3.65,12.5-3.5,6.25-.79,11.96,3.63,12.75,9.89.11.87.12,1.74.03,2.61v37.4h12.83l.09-40.06Z"/>
    <path class="cls-2" d="m412.98,90.24c0,22.73,20.08,28.93,34.04,28.93s34.09-6.2,34.09-28.93V17.85h11.65v72.72c0,23.01-18.09,37.4-45.93,37.4s-45.93-14.49-45.93-37.4V17.85h11.88v72.39m106.67-72.39h32.15c32.24,0,38.35,17.61,38.35,29.26,0,13.26-11.46,23.96-27.08,25.43v.28c8.62.9,11.13,6.82,13.64,11.69l21.68,42.28h-13.07l-20.6-40.29c-2.9-6.96-10.15-11.07-17.61-9.99h-15.77v50.28h-11.88V17.9m11.88,49.9h17.57c16.86,0,28.69-9.47,28.69-20.31,0-9.8-5.92-20.55-24.95-20.55h-21.31v40.86Zm122.34-49.9h15.39l49.95,108.9h-12.5l-14.2-30.02h-62.02l-13.83,30.02h-12.5l49.95-108.9m7.2,10.18l-4.17,10.23-22.77,49.9h54.45l-22.77-49.57-4.12-10.23-.62-.33Zm90.24-10.18h-11.84v108.9h63.21v-8.85h-51.09V18.13m92.89,0h-25.43v108.66h25.43v-54.16h.8l46.59,54.16h32.29l-55.59-59.56,52.41-49.38h-30.35l-45.36,46.54h-.57V17.85m127.84,0h29.12l49.9,108.9h-28.69l-10.98-24.72h-51.84l-10.61,24.76h-27.27l49.9-108.9m32.43,66.29l-18.7-44.51h-.38l-17.38,44.51h36.46Zm87.36-66.29h-25.43v108.9h75.38v-18.32h-49.95V17.85m66.05,108.9h25.43V17.85h-25.57l.14,108.9Z"/>
    <path class="cls-2" d="m932.62,164.72l-6.96,11.69h257.52v-11.69h-250.56Z"/>
    <path class="cls-1" d="m403.23,167.13v6.39l1.94.43h259.04l3.98-6.06h0l-264.95-.76Z"/>
    <path class="cls-4" d="m401.1,176.41h524.56l6.96-11.69H401.1v11.69Zm3.08-8.62h263.3l-3.6,5.49h-259.7v-5.49Z"/>
    <path class="cls-4" d="m840.72,225.13c-3.29-.08-5.9-2.81-5.82-6.11.08-3.29,2.81-5.9,6.11-5.82,3.24.08,5.82,2.72,5.82,5.96.03,3.27-2.6,5.94-5.87,5.97-.08,0-.16,0-.24,0m0-13.07c-3.94.26-6.92,3.67-6.66,7.61.26,3.94,3.67,6.92,7.61,6.66,3.77-.25,6.69-3.39,6.68-7.17-.13-4.05-3.52-7.23-7.57-7.1-.02,0-.04,0-.06,0"/>
    <path class="cls-4" d="m839.15,218.79v-2.56h1.8c.9,0,1.89,0,1.89,1.18s-.99,1.37-2.13,1.37h-1.56Zm5.07-1.28c0-1.61-1.04-2.32-3.08-2.32h-3.31v8.19h1.33v-3.55h1.52l2.27,3.55h1.47l-2.46-3.6c1.23.03,2.25-.95,2.27-2.18,0-.03,0-.06,0-.1"/>
  </g>
</svg>