<?xml version="1.0" encoding="UTF-8"?>
<svg id="Layer_2" data-name="Layer 2" xmlns="http://www.w3.org/2000/svg" viewBox="0 0 1183.68 174.43">
  <defs>
    <style>
      .cls-1 {
        fill: #f8981d;
      }

      .cls-2 {
        fill: #fff;
      }
    </style>
  </defs>
  <g id="Layer_1-2" data-name="Layer 1">
    <path class="cls-1" d="m623.09,143.27c0,4.73-2.13,8.14-8.52,8.14h-41.33c-5.3,0-8.38-1.47-8.38-6.39s2.08-7.43,8.38-7.43h49.86v5.68Zm182.19-19.55v-5.35c0-4.73,2.08-8.14,8.76-8.14h41.38c5.63,0,8.48,1.66,8.48,7.01,0,4.5-2.23,6.58-8.14,6.58h-50.52l.05-.09Zm108.47-36.6v87.21h41.76v-63.49h34.18c11.51,0,17.42,3.6,17.42,14.77v48.81h41.71v-52.08c0-24.48-13.45-35.08-51.61-35.08l-83.47-.14Zm-102.79,0c-33.57,0-47.02,11.22-47.02,36.41v17.28c0,21.83,13.45,33.62,43.75,33.62h88.4v-22.92h-80.02c-7.95,0-10.61-2.23-10.61-8.14v-3.6h63.11c21.83,0,34.18-6.87,34.18-23.15v-3.98c0-14.82-7.39-25.43-44.36-25.43l-47.44-.09Zm-134.04,87.21h41.67v-57.29c0-3.79,1.52-6.25,6.68-6.25h32.43v-23.67h-46.45c-24.81,0-34.33,9.47-34.33,24.76v62.45Zm-142.61-87.21v22.96h78.36c7.76,0,10.42,2.7,10.42,8.38v3.31h-62.97c-26.37,0-34.33,10.89-34.33,24.67v3.41c0,18.94,15.39,24.48,45.55,24.48h46.26c32.81,0,47.02-7.43,47.02-33.14v-20.31c0-21.78-13.45-33.76-44.03-33.76h-86.27Zm-249.52,48.53c0,27.46,14.2,38.68,50.28,38.68h79.4v-23.67h-73.39c-8.71,0-14.63-3.98-14.63-16.52v-7.58c0-11.22,5.54-15.96,14.44-15.96h73.58v-23.67h-80.49c-35.65,0-49.1,14.96-49.1,38.82l-.09,9.9Zm142.04-62.36v101.04h90.62v-23.67h-48.77v-77.36h-41.85Zm-260.41,56.53v-56.53h-23.67c-14.63,0-23.01,5.82-31.68,12.69L0,174.33h50.19l74-59.89v59.89h34.89l71.49-60.32v60.32h42.61v-101.04h-23.25c-11.19.2-21.89,4.61-29.97,12.36l-53.55,44.17Z"/>
    <path class="cls-2" d="m1149.06,0c-23.29,0-56.11,6.96-91.62,19.98-31.77,11.55-62.18,26.52-90.72,44.65,27.31-10.1,56.11-15.57,85.22-16.19,40.77,0,69.79,15.62,26.89,70.31C1205.45,35.94,1202,0,1149.06,0"/>
  </g>
</svg>