<?xml version="1.0" encoding="UTF-8"?>
<svg id="Layer_2" data-name="Layer 2" xmlns="http://www.w3.org/2000/svg" xmlns:xlink="http://www.w3.org/1999/xlink" viewBox="0 0 1183.98 369.31">
  <defs>
    <style>
      .cls-1 {
        mask: url(#mask-15);
      }

      .cls-2 {
        mask: url(#mask-17);
      }

      .cls-3 {
        mask: url(#mask-18);
      }

      .cls-4 {
        mask: url(#mask-14);
      }

      .cls-5 {
        mask: url(#mask-13);
      }

      .cls-6 {
        mask: url(#mask-19);
      }

      .cls-7 {
        mask: url(#mask-12);
      }

      .cls-8 {
        mask: url(#mask-20);
      }

      .cls-9 {
        mask: url(#mask-21);
      }

      .cls-10 {
        mask: url(#mask-11);
      }

      .cls-11 {
        mask: url(#mask-16);
      }

      .cls-12 {
        mask: url(#mask-10);
      }

      .cls-13 {
        fill: url(#linear-gradient);
      }

      .cls-14 {
        filter: url(#luminosity-noclip-9);
      }

      .cls-15 {
        filter: url(#luminosity-noclip-7);
      }

      .cls-16 {
        filter: url(#luminosity-noclip-3);
      }

      .cls-17 {
        filter: url(#luminosity-noclip-5);
      }

      .cls-18 {
        mask: url(#mask);
      }

      .cls-19 {
        filter: url(#luminosity-noclip);
      }

      .cls-20, .cls-21 {
        fill: #fff;
      }

      .cls-22 {
        fill: #fbfcfc;
      }

      .cls-23 {
        fill: #00a29b;
      }

      .cls-24 {
        fill: #343f47;
      }

      .cls-25 {
        fill: #344048;
      }

      .cls-26 {
        fill: #576065;
      }

      .cls-27 {
        fill: rgba(165, 171, 175, .6);
      }

      .cls-28 {
        filter: url(#luminosity-noclip-17);
      }

      .cls-29 {
        filter: url(#luminosity-noclip-15);
      }

      .cls-30 {
        filter: url(#luminosity-noclip-19);
      }

      .cls-31 {
        filter: url(#luminosity-noclip-13);
      }

      .cls-32 {
        filter: url(#luminosity-noclip-11);
      }

      .cls-33 {
        filter: url(#luminosity-noclip-21);
      }

      .cls-34 {
        fill: url(#linear-gradient-7);
      }

      .cls-34, .cls-35, .cls-36, .cls-37, .cls-38, .cls-39, .cls-40, .cls-41, .cls-42, .cls-43, .cls-44 {
        mix-blend-mode: multiply;
      }

      .cls-35 {
        fill: url(#linear-gradient-5);
      }

      .cls-36 {
        fill: url(#linear-gradient-9);
      }

      .cls-37 {
        fill: url(#linear-gradient-3);
      }

      .cls-45 {
        fill: url(#linear-gradient-8);
      }

      .cls-46 {
        fill: url(#linear-gradient-4);
      }

      .cls-47 {
        fill: url(#linear-gradient-2);
      }

      .cls-48 {
        fill: url(#linear-gradient-6);
      }

      .cls-21 {
        fill-rule: evenodd;
      }

      .cls-49 {
        fill: url(#linear-gradient-14);
      }

      .cls-50 {
        fill: url(#linear-gradient-18);
      }

      .cls-51 {
        fill: url(#linear-gradient-22);
      }

      .cls-52 {
        fill: url(#linear-gradient-20);
      }

      .cls-53 {
        fill: url(#linear-gradient-23);
      }

      .cls-54 {
        fill: url(#linear-gradient-16);
      }

      .cls-55 {
        fill: url(#linear-gradient-12);
      }

      .cls-56 {
        fill: url(#linear-gradient-10);
      }

      .cls-57 {
        fill: url(#linear-gradient-25);
      }

      .cls-38 {
        fill: url(#linear-gradient-17);
      }

      .cls-39 {
        fill: url(#linear-gradient-19);
      }

      .cls-40 {
        fill: url(#linear-gradient-15);
      }

      .cls-41 {
        fill: url(#linear-gradient-21);
      }

      .cls-42 {
        fill: url(#linear-gradient-13);
      }

      .cls-43 {
        fill: url(#linear-gradient-11);
      }

      .cls-44 {
        fill: url(#linear-gradient-24);
      }

      .cls-58 {
        mask: url(#mask-3);
      }

      .cls-59 {
        mask: url(#mask-2);
      }

      .cls-60 {
        mask: url(#mask-5);
      }

      .cls-61 {
        mask: url(#mask-4);
      }

      .cls-62 {
        mask: url(#mask-1);
      }

      .cls-63 {
        mask: url(#mask-7);
      }

      .cls-64 {
        mask: url(#mask-6);
      }

      .cls-65 {
        mask: url(#mask-8);
      }

      .cls-66 {
        mask: url(#mask-9);
      }
    </style>
    <linearGradient id="linear-gradient" x1="-574.99" y1="-279.64" x2="-571.63" y2="-279.64" gradientTransform="translate(28497.96 63624.37) rotate(39.95) scale(108.91)" gradientUnits="userSpaceOnUse">
      <stop offset="0" stop-color="#fff"/>
      <stop offset=".1" stop-color="#e7e8e6"/>
      <stop offset=".1" stop-color="#ced1d1"/>
      <stop offset=".2" stop-color="#b6bbbd"/>
      <stop offset=".2" stop-color="#a6acaf"/>
      <stop offset=".3" stop-color="#9aa2a6"/>
      <stop offset=".3" stop-color="#98a0a4"/>
      <stop offset=".4" stop-color="#828a8f"/>
      <stop offset=".5" stop-color="#677176"/>
      <stop offset=".6" stop-color="#545d64"/>
      <stop offset=".7" stop-color="#485259"/>
      <stop offset=".8" stop-color="#444e55"/>
      <stop offset="1" stop-color="#485258"/>
    </linearGradient>
    <linearGradient id="linear-gradient-2" x1="-575.72" y1="-280.28" x2="-572.41" y2="-280.28" gradientTransform="translate(26702.42 59884.16) rotate(40.03) scale(102.24)" gradientUnits="userSpaceOnUse">
      <stop offset="0" stop-color="#0f202a"/>
      <stop offset=".2" stop-color="#344048"/>
      <stop offset=".5" stop-color="#787f85"/>
      <stop offset=".5" stop-color="#81898e"/>
      <stop offset=".7" stop-color="#b3b8b8"/>
      <stop offset=".8" stop-color="#d3d6d4"/>
      <stop offset=".8" stop-color="#dee0dd"/>
      <stop offset="1" stop-color="#fbfcfc"/>
    </linearGradient>
    <filter id="luminosity-noclip" x="0" y="0" width="369.31" height="369.31" color-interpolation-filters="sRGB" filterUnits="userSpaceOnUse">
      <feFlood flood-color="#fff" result="bg"/>
      <feBlend in="SourceGraphic" in2="bg"/>
    </filter>
    <filter id="luminosity-noclip-2" x="0" y="-8239.55" width="369.31" height="32766" color-interpolation-filters="sRGB" filterUnits="userSpaceOnUse">
      <feFlood flood-color="#fff" result="bg"/>
      <feBlend in="SourceGraphic" in2="bg"/>
    </filter>
    <mask id="mask-1" x="0" y="-8239.55" width="369.31" height="32766" maskUnits="userSpaceOnUse"/>
    <linearGradient id="linear-gradient-3" x1="-545.32" y1="-267.03" x2="-542" y2="-267.03" gradientTransform="translate(7439.74 -66907.65) rotate(-109.99) scale(111.44)" gradientUnits="userSpaceOnUse">
      <stop offset="0" stop-color="#666"/>
      <stop offset=".1" stop-color="#666"/>
      <stop offset=".3" stop-color="#666"/>
      <stop offset=".5" stop-color="#666"/>
      <stop offset=".7" stop-color="#000"/>
      <stop offset=".8" stop-color="#000"/>
      <stop offset="1" stop-color="#000"/>
    </linearGradient>
    <mask id="mask" x="0" y="0" width="369.31" height="369.31" maskUnits="userSpaceOnUse">
      <g class="cls-19">
        <g class="cls-62">
          <path class="cls-37" d="m184.65,365.33c99.78.03,180.7-80.84,180.72-180.63.03-99.78-80.84-180.7-180.63-180.72C84.96,3.95,4.05,84.82,4.02,184.61v.05c-.05,99.73,80.75,180.62,180.49,180.68h.14ZM184.65,0c101.98,0,184.65,82.67,184.65,184.65s-82.67,184.65-184.65,184.65S0,286.63,0,184.65C.31,82.8,82.8.31,184.65,0Z"/>
        </g>
      </g>
    </mask>
    <linearGradient id="linear-gradient-4" x1="-545.32" y1="-267.03" x2="-542" y2="-267.03" gradientTransform="translate(7439.74 -66907.65) rotate(-109.99) scale(111.44)" gradientUnits="userSpaceOnUse">
      <stop offset="0" stop-color="#e1e3e0"/>
      <stop offset=".1" stop-color="#c1c5c4"/>
      <stop offset=".3" stop-color="#9ba0a2"/>
      <stop offset=".5" stop-color="#7e8588"/>
      <stop offset=".7" stop-color="#697175"/>
      <stop offset=".8" stop-color="#5c656a"/>
      <stop offset="1" stop-color="#576166"/>
    </linearGradient>
    <filter id="luminosity-noclip-3" x="24.57" y="24.57" width="319.4" height="319.4" color-interpolation-filters="sRGB" filterUnits="userSpaceOnUse">
      <feFlood flood-color="#fff" result="bg"/>
      <feBlend in="SourceGraphic" in2="bg"/>
    </filter>
    <filter id="luminosity-noclip-4" x="24.57" y="-8239.55" width="319.4" height="32766" color-interpolation-filters="sRGB" filterUnits="userSpaceOnUse">
      <feFlood flood-color="#fff" result="bg"/>
      <feBlend in="SourceGraphic" in2="bg"/>
    </filter>
    <mask id="mask-3" x="24.57" y="-8239.55" width="319.4" height="32766" maskUnits="userSpaceOnUse"/>
    <linearGradient id="linear-gradient-5" x1="-579.8" y1="-275.15" x2="-576.49" y2="-275.15" gradientTransform="translate(5066.07 61473.07) rotate(60) scale(96.02)" xlink:href="#linear-gradient-3"/>
    <mask id="mask-2" x="24.57" y="24.57" width="319.4" height="319.4" maskUnits="userSpaceOnUse">
      <g class="cls-16">
        <g class="cls-58">
          <path class="cls-35" d="m184.65,343.98c-88.2.21-159.87-71.11-160.09-159.31-.21-88.2,71.11-159.87,159.31-160.09s159.87,71.11,160.09,159.31c.1,42.49-16.73,83.26-46.77,113.31-29.75,30.01-70.28,46.86-112.54,46.78Zm0-4.73c85.11,0,154.12-68.99,154.13-154.1,0-85.12-68.99-154.12-154.1-154.13-40.85,0-80.02,16.21-108.92,45.07-29.32,28.45-45.79,67.62-45.6,108.47,0,85.43,69.25,154.68,154.68,154.68h-.19Z"/>
        </g>
      </g>
    </mask>
    <linearGradient id="linear-gradient-6" x1="-579.8" y1="-275.15" x2="-576.49" y2="-275.15" gradientTransform="translate(5066.07 61473.07) rotate(60) scale(96.02)" xlink:href="#linear-gradient-4"/>
    <filter id="luminosity-noclip-5" x="185.84" y="188.56" width="141" height="81.04" color-interpolation-filters="sRGB" filterUnits="userSpaceOnUse">
      <feFlood flood-color="#fff" result="bg"/>
      <feBlend in="SourceGraphic" in2="bg"/>
    </filter>
    <filter id="luminosity-noclip-6" x="185.84" y="-8239.55" width="141" height="32766" color-interpolation-filters="sRGB" filterUnits="userSpaceOnUse">
      <feFlood flood-color="#fff" result="bg"/>
      <feBlend in="SourceGraphic" in2="bg"/>
    </filter>
    <mask id="mask-5" x="185.84" y="-8239.55" width="141" height="32766" maskUnits="userSpaceOnUse"/>
    <linearGradient id="linear-gradient-7" x1="-794.01" y1="-56.94" x2="-790.7" y2="-56.94" gradientTransform="translate(-2375.03 3932.74) rotate(121.29) scale(5.7)" gradientUnits="userSpaceOnUse">
      <stop offset="0" stop-color="#fff"/>
      <stop offset="1" stop-color="#000"/>
    </linearGradient>
    <mask id="mask-4" x="185.84" y="188.56" width="141" height="81.04" maskUnits="userSpaceOnUse">
      <g class="cls-17">
        <g class="cls-60">
          <path class="cls-34" d="m185.84,189.29c4.61,8.02,10.02,15.56,16.15,22.49,8.4,8.77,17.95,16.36,28.41,22.54l84.89,34.04c3.73,1.99,8.28,1.54,11.55-1.14l-139.39-78.5c-.51-.32-1.18-.17-1.5.34-.04.07-.08.15-.11.23Z"/>
        </g>
      </g>
    </mask>
    <linearGradient id="linear-gradient-8" x1="-794.01" y1="-56.94" x2="-790.7" y2="-56.94" gradientTransform="translate(-2375.03 3932.74) rotate(121.29) scale(5.7)" gradientUnits="userSpaceOnUse">
      <stop offset="0" stop-color="#27353d"/>
      <stop offset="1" stop-color="#0b1620"/>
    </linearGradient>
    <filter id="luminosity-noclip-7" x="186.97" y="25.38" width="24.24" height="156.39" color-interpolation-filters="sRGB" filterUnits="userSpaceOnUse">
      <feFlood flood-color="#fff" result="bg"/>
      <feBlend in="SourceGraphic" in2="bg"/>
    </filter>
    <filter id="luminosity-noclip-8" x="186.97" y="-8239.55" width="24.24" height="32766" color-interpolation-filters="sRGB" filterUnits="userSpaceOnUse">
      <feFlood flood-color="#fff" result="bg"/>
      <feBlend in="SourceGraphic" in2="bg"/>
    </filter>
    <mask id="mask-7" x="186.97" y="-8239.55" width="24.24" height="32766" maskUnits="userSpaceOnUse"/>
    <linearGradient id="linear-gradient-9" x1="-372.47" y1="-198.34" x2="-369.15" y2="-198.34" gradientTransform="translate(-35.91 -3719.84) rotate(-121.88) scale(9.22)" gradientUnits="userSpaceOnUse">
      <stop offset="0" stop-color="#fff"/>
      <stop offset=".1" stop-color="#fff"/>
      <stop offset=".9" stop-color="#000"/>
      <stop offset="1" stop-color="#000"/>
    </linearGradient>
    <mask id="mask-6" x="186.97" y="25.38" width="24.24" height="156.39" maskUnits="userSpaceOnUse">
      <g class="cls-15">
        <g class="cls-63">
          <path class="cls-36" d="m186.97,181.2l.57-.57-.57.57c0,.31.25.57.57.57h.57c.62-.57,17.33-9.23,23.11-12.69l-2.32-16.71-17.9-121.78c.15-1.89-.46-3.77-1.7-5.21,0,0,8.66,116.57,8.66,129.26-.03,9.95-3.98,19.49-10.98,26.56Z"/>
        </g>
      </g>
    </mask>
    <linearGradient id="linear-gradient-10" x1="-372.47" y1="-198.34" x2="-369.15" y2="-198.34" gradientTransform="translate(-35.91 -3719.84) rotate(-121.88) scale(9.22)" gradientUnits="userSpaceOnUse">
      <stop offset="0" stop-color="#0b1721"/>
      <stop offset=".1" stop-color="#0b1721"/>
      <stop offset=".9" stop-color="#0b1721"/>
      <stop offset="1" stop-color="#0b1721"/>
    </linearGradient>
    <filter id="luminosity-noclip-9" x="42.09" y="188.47" width="141.99" height="81.68" color-interpolation-filters="sRGB" filterUnits="userSpaceOnUse">
      <feFlood flood-color="#fff" result="bg"/>
      <feBlend in="SourceGraphic" in2="bg"/>
    </filter>
    <filter id="luminosity-noclip-10" x="42.09" y="-8239.55" width="141.99" height="32766" color-interpolation-filters="sRGB" filterUnits="userSpaceOnUse">
      <feFlood flood-color="#fff" result="bg"/>
      <feBlend in="SourceGraphic" in2="bg"/>
    </filter>
    <mask id="mask-9" x="42.09" y="-8239.55" width="141.99" height="32766" maskUnits="userSpaceOnUse"/>
    <linearGradient id="linear-gradient-11" x1="-576.5" y1="-29.26" x2="-573.14" y2="-29.26" gradientTransform="translate(-4083.1 1198.57) rotate(164.04) scale(7.6)" gradientUnits="userSpaceOnUse">
      <stop offset="0" stop-color="#ccc"/>
      <stop offset=".2" stop-color="#ccc"/>
      <stop offset=".9" stop-color="#000"/>
      <stop offset="1" stop-color="#000"/>
    </linearGradient>
    <mask id="mask-8" x="42.09" y="188.47" width="141.99" height="81.68" maskUnits="userSpaceOnUse">
      <g class="cls-14">
        <g class="cls-66">
          <path class="cls-43" d="m182.95,189.29c0-.57-.62-1.18-1.18-.57l-139.67,79.26c3.37,2.41,7.77,2.84,11.55,1.14l130.44-52.51-1.14-27.32Z"/>
        </g>
      </g>
    </mask>
    <linearGradient id="linear-gradient-12" x1="-576.5" y1="-29.26" x2="-573.14" y2="-29.26" gradientTransform="translate(-4083.1 1198.57) rotate(164.04) scale(7.6)" gradientUnits="userSpaceOnUse">
      <stop offset="0" stop-color="#0b1721"/>
      <stop offset=".2" stop-color="#0b1721"/>
      <stop offset=".9" stop-color="#0b1721"/>
      <stop offset="1" stop-color="#0b1721"/>
    </linearGradient>
    <filter id="luminosity-noclip-11" x="47.3" y="190.48" width="136.79" height="79.07" color-interpolation-filters="sRGB" filterUnits="userSpaceOnUse">
      <feFlood flood-color="#fff" result="bg"/>
      <feBlend in="SourceGraphic" in2="bg"/>
    </filter>
    <filter id="luminosity-noclip-12" x="47.3" y="-8239.55" width="136.79" height="32766" color-interpolation-filters="sRGB" filterUnits="userSpaceOnUse">
      <feFlood flood-color="#fff" result="bg"/>
      <feBlend in="SourceGraphic" in2="bg"/>
    </filter>
    <mask id="mask-11" x="47.3" y="-8239.55" width="136.79" height="32766" maskUnits="userSpaceOnUse"/>
    <linearGradient id="linear-gradient-13" x1="82.65" y1="-180.91" x2="85.96" y2="-180.91" gradientTransform="translate(672.91 256.44) rotate(-111.73) scale(2.81)" gradientUnits="userSpaceOnUse">
      <stop offset="0" stop-color="#ccc"/>
      <stop offset=".1" stop-color="#ccc"/>
      <stop offset="1" stop-color="#000"/>
    </linearGradient>
    <mask id="mask-10" x="47.3" y="190.48" width="136.79" height="79.07" maskUnits="userSpaceOnUse">
      <g class="cls-32">
        <g class="cls-10">
          <path class="cls-42" d="m53.64,268.36l130.44-52.46-1.14-25.43c-2.7,8.87-8.98,16.2-17.33,20.22-8.1,4.73-85.22,42.61-113.11,55.96-1.67.92-3.41,1.69-5.21,2.32,2.07.94,4.49.7,6.34-.62Z"/>
        </g>
      </g>
    </mask>
    <linearGradient id="linear-gradient-14" x1="82.65" y1="-180.91" x2="85.96" y2="-180.91" gradientTransform="translate(672.91 256.44) rotate(-111.73) scale(2.81)" gradientUnits="userSpaceOnUse">
      <stop offset="0" stop-color="#0b1721"/>
      <stop offset=".1" stop-color="#0b1721"/>
      <stop offset="1" stop-color="#0b1721"/>
    </linearGradient>
    <filter id="luminosity-noclip-13" x="183.99" y="21.12" width="27.13" height="160.83" color-interpolation-filters="sRGB" filterUnits="userSpaceOnUse">
      <feFlood flood-color="#fff" result="bg"/>
      <feBlend in="SourceGraphic" in2="bg"/>
    </filter>
    <filter id="luminosity-noclip-14" x="183.99" y="-8239.55" width="27.13" height="32766" color-interpolation-filters="sRGB" filterUnits="userSpaceOnUse">
      <feFlood flood-color="#fff" result="bg"/>
      <feBlend in="SourceGraphic" in2="bg"/>
    </filter>
    <mask id="mask-13" x="183.99" y="-8239.55" width="27.13" height="32766" maskUnits="userSpaceOnUse"/>
    <linearGradient id="linear-gradient-15" x1="-536.28" y1="47.82" x2="-532.96" y2="47.82" gradientTransform="translate(-2917.92 755.71) rotate(173.25) scale(5.95)" gradientUnits="userSpaceOnUse">
      <stop offset="0" stop-color="#fff"/>
      <stop offset=".3" stop-color="#fff"/>
      <stop offset=".8" stop-color="#000"/>
      <stop offset="1" stop-color="#000"/>
    </linearGradient>
    <mask id="mask-12" x="183.99" y="21.12" width="27.13" height="160.83" maskUnits="userSpaceOnUse">
      <g class="cls-31">
        <g class="cls-5">
          <path class="cls-40" d="m187.45,180.63l-.57.57s0,1.18,1.14.57c1.14-.62,17.33-9.23,23.11-12.69l-20.22-138.49c-.02-4.32-2.8-8.14-6.91-9.47l2.32,160.41,1.14-.9Z"/>
        </g>
      </g>
    </mask>
    <linearGradient id="linear-gradient-16" x1="-536.28" y1="47.82" x2="-532.96" y2="47.82" gradientTransform="translate(-2917.92 755.71) rotate(173.25) scale(5.95)" gradientUnits="userSpaceOnUse">
      <stop offset="0" stop-color="#0b1721"/>
      <stop offset=".3" stop-color="#0b1721"/>
      <stop offset=".8" stop-color="#0b1721"/>
      <stop offset="1" stop-color="#0b1721"/>
    </linearGradient>
    <filter id="luminosity-noclip-15" x="183.99" y="21.12" width="27.13" height="160.83" color-interpolation-filters="sRGB" filterUnits="userSpaceOnUse">
      <feFlood flood-color="#fff" result="bg"/>
      <feBlend in="SourceGraphic" in2="bg"/>
    </filter>
    <filter id="luminosity-noclip-16" x="183.99" y="-8239.55" width="27.13" height="32766" color-interpolation-filters="sRGB" filterUnits="userSpaceOnUse">
      <feFlood flood-color="#fff" result="bg"/>
      <feBlend in="SourceGraphic" in2="bg"/>
    </filter>
    <mask id="mask-15" x="183.99" y="-8239.55" width="27.13" height="32766" maskUnits="userSpaceOnUse"/>
    <linearGradient id="linear-gradient-17" x1="-526.95" y1="199.84" x2="-523.64" y2="199.84" gradientTransform="translate(-1803.44 1172.99) rotate(172.59) scale(4.03)" gradientUnits="userSpaceOnUse">
      <stop offset="0" stop-color="#fff"/>
      <stop offset=".4" stop-color="#fff"/>
      <stop offset="1" stop-color="#000"/>
    </linearGradient>
    <mask id="mask-14" x="183.99" y="21.12" width="27.13" height="160.83" maskUnits="userSpaceOnUse">
      <g class="cls-29">
        <g class="cls-1">
          <path class="cls-38" d="m187.45,180.63l-.57.57s0,1.18,1.14.57c1.14-.62,17.33-9.23,23.11-12.69l-20.22-138.49c-.02-4.32-2.8-8.14-6.91-9.47l2.32,160.41,1.14-.9Z"/>
        </g>
      </g>
    </mask>
    <linearGradient id="linear-gradient-18" x1="-526.95" y1="199.84" x2="-523.64" y2="199.84" gradientTransform="translate(-1803.44 1172.99) rotate(172.59) scale(4.03)" gradientUnits="userSpaceOnUse">
      <stop offset="0" stop-color="#27353d"/>
      <stop offset=".4" stop-color="#27353d"/>
      <stop offset="1" stop-color="#3c484f"/>
    </linearGradient>
    <filter id="luminosity-noclip-17" x="4.02" y="115.43" width="128.74" height="232.57" color-interpolation-filters="sRGB" filterUnits="userSpaceOnUse">
      <feFlood flood-color="#fff" result="bg"/>
      <feBlend in="SourceGraphic" in2="bg"/>
    </filter>
    <filter id="luminosity-noclip-18" x="4.02" y="-8239.55" width="128.74" height="32766" color-interpolation-filters="sRGB" filterUnits="userSpaceOnUse">
      <feFlood flood-color="#fff" result="bg"/>
      <feBlend in="SourceGraphic" in2="bg"/>
    </filter>
    <mask id="mask-17" x="4.02" y="-8239.55" width="128.74" height="32766" maskUnits="userSpaceOnUse"/>
    <linearGradient id="linear-gradient-19" x1="-584.21" y1="-292.43" x2="-580.89" y2="-292.43" gradientTransform="translate(20176.33 30754.72) rotate(29.99) scale(56.03)" gradientUnits="userSpaceOnUse">
      <stop offset="0" stop-color="#000"/>
      <stop offset="0" stop-color="#000"/>
      <stop offset=".1" stop-color="#fff"/>
      <stop offset="1" stop-color="#fff"/>
    </linearGradient>
    <mask id="mask-16" x="4.02" y="115.43" width="128.74" height="232.57" maskUnits="userSpaceOnUse">
      <g class="cls-28">
        <g class="cls-2">
          <path class="cls-39" d="m29.4,256.24c-4.02-9.47-27.13-54.26-1.75-140.81h-9.8c-4.96,14.11-8.82,28.57-11.55,43.28,0,0-1.14,5.78-1.7,12.12-.43,4.6-.62,9.21-.57,13.83,0,34.66,8.66,54.83,8.66,54.83,8.89,28.59,25.23,54.3,47.35,74.48,21.08,17.14,46.06,28.83,72.73,34.04-4.07-.57-73.15-30.02-103.36-91.76Z"/>
        </g>
      </g>
    </mask>
    <linearGradient id="linear-gradient-20" x1="-584.21" y1="-292.43" x2="-580.89" y2="-292.43" gradientTransform="translate(20176.33 30754.72) rotate(29.99) scale(56.03)" gradientUnits="userSpaceOnUse">
      <stop offset="0" stop-color="#25313b"/>
      <stop offset="0" stop-color="#26333c"/>
      <stop offset=".1" stop-color="#27353d"/>
      <stop offset="1" stop-color="#27353d"/>
    </linearGradient>
    <filter id="luminosity-noclip-19" x="181.77" y="187.85" width="5.21" height="27.38" color-interpolation-filters="sRGB" filterUnits="userSpaceOnUse">
      <feFlood flood-color="#fff" result="bg"/>
      <feBlend in="SourceGraphic" in2="bg"/>
    </filter>
    <filter id="luminosity-noclip-20" x="181.77" y="-8239.55" width="5.21" height="32766" color-interpolation-filters="sRGB" filterUnits="userSpaceOnUse">
      <feFlood flood-color="#fff" result="bg"/>
      <feBlend in="SourceGraphic" in2="bg"/>
    </filter>
    <mask id="mask-19" x="181.77" y="-8239.55" width="5.21" height="32766" maskUnits="userSpaceOnUse"/>
    <linearGradient id="linear-gradient-21" x1="-347.42" y1="-315.88" x2="-344.11" y2="-315.88" gradientTransform="translate(2821.94 -2685.14) rotate(-90) scale(8.35)" gradientUnits="userSpaceOnUse">
      <stop offset="0" stop-color="#fff"/>
      <stop offset=".3" stop-color="#fff"/>
      <stop offset="1" stop-color="#000"/>
    </linearGradient>
    <mask id="mask-18" x="181.77" y="187.85" width="5.21" height="27.38" maskUnits="userSpaceOnUse">
      <g class="cls-30">
        <g class="cls-6">
          <path class="cls-41" d="m186.97,188.11h-5.21c.57,0,1.18,0,1.18.62l1.14,26.51h.57l1.18-26.51c0-.62.57-1.23,1.14-.62Z"/>
        </g>
      </g>
    </mask>
    <linearGradient id="linear-gradient-22" x1="-347.42" y1="-315.88" x2="-344.11" y2="-315.88" gradientTransform="translate(2821.94 -2685.14) rotate(-90) scale(8.35)" gradientUnits="userSpaceOnUse">
      <stop offset="0" stop-color="#a6acb0"/>
      <stop offset=".3" stop-color="#a6acb0"/>
      <stop offset="1" stop-color="#a6acb0"/>
    </linearGradient>
    <linearGradient id="linear-gradient-23" x1="-578.5" y1="-266.22" x2="-575.19" y2="-266.22" gradientTransform="translate(-27973.75 61401.82) rotate(90) scale(106.11)" gradientUnits="userSpaceOnUse">
      <stop offset="0" stop-color="#dee0dd"/>
      <stop offset="0" stop-color="#c5c9c7"/>
      <stop offset="0" stop-color="#9ea3a4"/>
      <stop offset="0" stop-color="#83898c"/>
      <stop offset="0" stop-color="#727a7e"/>
      <stop offset="0" stop-color="#6c7479"/>
      <stop offset=".2" stop-color="#344048"/>
      <stop offset=".5" stop-color="#27353d"/>
      <stop offset=".8" stop-color="#344048"/>
      <stop offset="1" stop-color="#444e55"/>
    </linearGradient>
    <filter id="luminosity-noclip-21" x="201.98" y="17.76" width="152.35" height="236.07" color-interpolation-filters="sRGB" filterUnits="userSpaceOnUse">
      <feFlood flood-color="#fff" result="bg"/>
      <feBlend in="SourceGraphic" in2="bg"/>
    </filter>
    <filter id="luminosity-noclip-22" x="201.98" y="-8239.55" width="152.35" height="32766" color-interpolation-filters="sRGB" filterUnits="userSpaceOnUse">
      <feFlood flood-color="#fff" result="bg"/>
      <feBlend in="SourceGraphic" in2="bg"/>
    </filter>
    <mask id="mask-21" x="201.98" y="-8239.55" width="152.35" height="32766" maskUnits="userSpaceOnUse"/>
    <linearGradient id="linear-gradient-24" x1="-594.18" y1="-238.05" x2="-590.87" y2="-238.05" gradientTransform="translate(-21818.47 14919.6) rotate(124.28) scale(41.68)" gradientUnits="userSpaceOnUse">
      <stop offset="0" stop-color="#fff"/>
      <stop offset=".7" stop-color="#fff"/>
      <stop offset=".7" stop-color="#fff"/>
      <stop offset=".7" stop-color="#fff"/>
      <stop offset=".7" stop-color="#fff"/>
      <stop offset=".8" stop-color="#000"/>
      <stop offset=".8" stop-color="#000"/>
      <stop offset=".8" stop-color="#000"/>
      <stop offset=".8" stop-color="#000"/>
      <stop offset=".8" stop-color="#000"/>
      <stop offset="1" stop-color="#000"/>
    </linearGradient>
    <mask id="mask-20" x="201.98" y="17.76" width="152.35" height="236.07" maskUnits="userSpaceOnUse">
      <g class="cls-33">
        <g class="cls-9">
          <path class="cls-44" d="m339.34,116.47C298.95,23.53,207.76,18.37,202.55,17.76h-.57c69.84,12.74,114.3,58.33,129.87,106.2v.62c6.95,19.05,10.64,39.14,10.94,59.42.2,21.81-4.12,43.43-12.69,63.49-.57,2.89-1.14,6.34-1.7,6.34h9.47c27.46-51.84,15.29-104.21,1.47-137.35Z"/>
        </g>
      </g>
    </mask>
    <linearGradient id="linear-gradient-25" x1="-594.18" y1="-238.05" x2="-590.87" y2="-238.05" gradientTransform="translate(-21818.47 14919.6) rotate(124.28) scale(41.68)" gradientUnits="userSpaceOnUse">
      <stop offset="0" stop-color="#27353d"/>
      <stop offset=".7" stop-color="#27353d"/>
      <stop offset=".7" stop-color="#2c3840"/>
      <stop offset=".7" stop-color="#37434b"/>
      <stop offset=".7" stop-color="#4a555c"/>
      <stop offset=".8" stop-color="#646e74"/>
      <stop offset=".8" stop-color="#868d92"/>
      <stop offset=".8" stop-color="#b1b5b8"/>
      <stop offset=".8" stop-color="#e1e3e4"/>
      <stop offset=".8" stop-color="#fff"/>
      <stop offset="1" stop-color="#fff"/>
    </linearGradient>
  </defs>
  <g id="Layer_1-2" data-name="Layer 1">
    <g id="MERC">
      <path id="outer" class="cls-13" d="m365.33,184.65c.03,99.78-80.84,180.7-180.63,180.72-99.78.03-180.7-80.84-180.72-180.63C3.95,84.96,84.82,4.05,184.61,4.02h.05c99.73-.05,180.62,80.75,180.68,180.49,0,.05,0,.09,0,.14ZM184.65,14.96C90.94,14.96,14.96,90.94,14.96,184.65s75.97,169.69,169.69,169.69,169.69-75.97,169.69-169.69h0c.26-93.46-75.29-169.43-168.74-169.69-.32,0-.63,0-.95,0Z"/>
      <path class="cls-47" d="m184.65,14.96C90.94,14.96,14.96,90.94,14.96,184.65s75.97,169.69,169.69,169.69,169.69-75.97,169.69-169.69h0c.26-93.46-75.29-169.43-168.74-169.69-.32,0-.63,0-.95,0Zm0,328.45c-87.68.03-158.78-71.03-158.8-158.71S96.88,25.92,184.56,25.9c87.68-.03,158.78,71.03,158.8,158.71v.05c.05,87.63-70.94,158.7-158.56,158.75h-.14Z"/>
      <g class="cls-18">
        <path class="cls-46" d="m184.65,365.33c99.78.03,180.7-80.84,180.72-180.63.03-99.78-80.84-180.7-180.63-180.72C84.96,3.95,4.05,84.82,4.02,184.61v.05c-.05,99.73,80.75,180.62,180.49,180.68h.14ZM184.65,0c101.98,0,184.65,82.67,184.65,184.65s-82.67,184.65-184.65,184.65S0,286.63,0,184.65C.31,82.8,82.8.31,184.65,0Z"/>
      </g>
      <path class="cls-20" d="m12.69,185.27C12.35,90.27,89.09,12.98,184.08,12.64c95-.34,172.29,76.4,172.63,171.39.34,95-76.4,172.29-171.39,172.63-.22,0-.44,0-.66,0-94.62-.31-171.34-76.77-171.96-171.4Zm53.64-118.94C.66,131.31.1,237.22,65.07,302.9c.23.23.46.46.69.69,31.68,31.28,74.37,48.89,118.89,49.05,92.42-.05,167.32-74.96,167.37-167.37-.14-44.54-17.75-87.25-49.05-118.94C238.92.96,134-.11,68.63,63.94c-.81.79-1.6,1.59-2.39,2.39h.09Z"/>
      <g class="cls-59">
        <path class="cls-48" d="m184.65,343.98c-88.2.21-159.87-71.11-160.09-159.31-.21-88.2,71.11-159.87,159.31-160.09s159.87,71.11,160.09,159.31c.1,42.49-16.73,83.26-46.77,113.31-29.75,30.01-70.28,46.86-112.54,46.78Zm0-4.73c85.11,0,154.12-68.99,154.13-154.1,0-85.12-68.99-154.12-154.1-154.13-40.85,0-80.02,16.21-108.92,45.07-29.32,28.45-45.79,67.62-45.6,108.47,0,85.43,69.25,154.68,154.68,154.68h-.19Z"/>
      </g>
      <path class="cls-20" d="m324.75,259.7l-114.11-90.62-25.99-148.34c-2.24.92-4.08,2.59-5.21,4.73l-18.47,144.27-114.82,88.21s-2.32,2.89-3.5,4.73c-.52,1.52-.71,3.13-.57,4.73l142.04-58.33,142.04,58.33c.85-2.65.32-5.55-1.42-7.72Z"/>
      <path class="cls-26" d="m185.84,189.29l-1.18,26.61,130.63,52.46c3.73,1.99,8.28,1.54,11.55-1.14l-139.39-78.5c-.51-.32-1.18-.17-1.5.34-.04.07-.08.15-.11.23Z"/>
      <g class="cls-61">
        <path class="cls-45" d="m185.84,189.29c4.61,8.02,10.02,15.56,16.15,22.49,8.4,8.77,17.95,16.36,28.41,22.54l84.89,34.04c3.73,1.99,8.28,1.54,11.55-1.14l-139.39-78.5c-.51-.32-1.18-.17-1.5.34-.04.07-.08.15-.11.23Z"/>
      </g>
      <path class="cls-27" d="m326.08,262.02c0-.57-.57-1.18-1.18-2.32l-118.89-87.17-16.15,10.23s1.14.57,1.7,0c2.82-.9,5.85-.9,8.66,0,2.89,1.14,125.85,79.64,125.85,79.64v-.38Z"/>
      <path class="cls-24" d="m322.01,256.81l-110.89-87.73-5.21,3.46,118.84,87.73c-.73-1.29-1.66-2.45-2.75-3.46Z"/>
      <path class="cls-26" d="m187.45,180.63l-.57.57s0,1.18,1.14.57c1.14-.62,17.33-9.23,23.11-12.69l-20.22-138.49c-.02-4.32-2.8-8.14-6.91-9.47l2.32,160.41,1.14-.9Z"/>
      <path class="cls-27" d="m177.98,30.59v7.48l-12.69,127.55c-.13,1.87.73,3.67,2.27,4.73l7.53,5.73,5.21-140.81.57-10.98c-1.72,1.66-2.76,3.91-2.89,6.3Z"/>
      <path class="cls-27" d="m170.83,178.31l-7.05-5.78-117.04,84.85s-3.46,2.32-4.07,4.73l4.07-2.32,123.1-77.32c2.13-1.28,2.7-2.41.99-4.17Z"/>
      <path class="cls-26" d="m182.95,189.29c0-.57-.62-1.18-1.18-.57l-139.67,79.26c3.37,2.41,7.77,2.84,11.55,1.14l130.44-52.51-1.14-27.32Z"/>
      <g class="cls-64">
        <path class="cls-56" d="m186.97,181.2l.57-.57-.57.57c0,.31.25.57.57.57h.57c.62-.57,17.33-9.23,23.11-12.69l-2.32-16.71-17.9-121.78c.15-1.89-.46-3.77-1.7-5.21,0,0,8.66,116.57,8.66,129.26-.03,9.95-3.98,19.49-10.98,26.56Z"/>
      </g>
      <g class="cls-65">
        <path class="cls-55" d="m182.95,189.29c0-.57-.62-1.18-1.18-.57l-139.67,79.26c3.37,2.41,7.77,2.84,11.55,1.14l130.44-52.51-1.14-27.32Z"/>
      </g>
      <g class="cls-12">
        <path class="cls-49" d="m53.64,268.36l130.44-52.46-1.14-25.43c-2.7,8.87-8.98,16.2-17.33,20.22-8.1,4.73-85.22,42.61-113.11,55.96-1.67.92-3.41,1.69-5.21,2.32,2.07.94,4.49.7,6.34-.62Z"/>
      </g>
      <g class="cls-7">
        <path class="cls-54" d="m187.45,180.63l-.57.57s0,1.18,1.14.57c1.14-.62,17.33-9.23,23.11-12.69l-20.22-138.49c-.02-4.32-2.8-8.14-6.91-9.47l2.32,160.41,1.14-.9Z"/>
      </g>
      <g class="cls-4">
        <path class="cls-50" d="m187.45,180.63l-.57.57s0,1.18,1.14.57c1.14-.62,17.33-9.23,23.11-12.69l-20.22-138.49c-.02-4.32-2.8-8.14-6.91-9.47l2.32,160.41,1.14-.9Z"/>
      </g>
      <g class="cls-11">
        <path class="cls-52" d="m29.4,256.24c-4.02-9.47-27.13-54.26-1.75-140.81h-9.8c-4.96,14.11-8.82,28.57-11.55,43.28,0,0-1.14,5.78-1.7,12.12-.43,4.6-.62,9.21-.57,13.83,0,34.66,8.66,54.83,8.66,54.83,8.89,28.59,25.23,54.3,47.35,74.48,21.08,17.14,46.06,28.83,72.73,34.04-4.07-.57-73.15-30.02-103.36-91.76Z"/>
      </g>
      <g class="cls-3">
        <path class="cls-51" d="m186.97,188.11h-5.21c.57,0,1.18,0,1.18.62l1.14,26.51h.57l1.18-26.51c0-.62.57-1.23,1.14-.62Z"/>
      </g>
      <path class="cls-53" d="m242.37,13.26c60.6,23.06,117.75,86.55,117.75,166.8.47,96.75-77.58,175.56-174.33,176.03-.38,0-.76,0-1.14,0v9.23c99.84-.01,180.76-80.96,180.75-180.8-.01-77.58-49.52-146.5-123.03-171.28Z"/>
      <g class="cls-8">
        <path class="cls-57" d="m339.34,116.47C298.95,23.53,207.76,18.37,202.55,17.76h-.57c69.84,12.74,114.3,58.33,129.87,106.2v.62c6.95,19.05,10.64,39.14,10.94,59.42.2,21.81-4.12,43.43-12.69,63.49-.57,2.89-1.14,6.34-1.7,6.34h9.47c27.46-51.84,15.29-104.21,1.47-137.35Z"/>
      </g>
      <path class="cls-22" d="m12.69,185.27C12.35,90.27,89.09,12.98,184.08,12.64c95-.34,172.29,76.4,172.63,171.39.34,95-76.4,172.29-171.39,172.63-.22,0-.44,0-.66,0-94.62-.31-171.34-76.77-171.96-171.4Zm53.64-118.94C.66,131.31.1,237.22,65.07,302.9c.23.23.46.46.69.69,31.68,31.28,74.37,48.89,118.89,49.05,92.42-.05,167.32-74.96,167.37-167.37-.14-44.54-17.75-87.25-49.05-118.94C238.92.96,134-.11,68.63,63.94c-.81.79-1.6,1.59-2.39,2.39h.09Z"/>
      <path class="cls-25" d="m45.41,258.51l117.89-84.8c5.73,3.17,11.72,5.86,17.9,8.05,1.14.62,1.14-.57,1.14-.57l-14.2-12.12c-1.58-1.03-2.47-2.85-2.32-4.73l13.83-139.11c-.57.57-.57,1.7-1.14,2.32-.46.89-.66,1.89-.57,2.89l-20.22,139.06-110.79,87.17c-.76.71-1.52,1.28-1.52,1.85Z"/>
      <g id="g1440">
        <g id="g1396">
          <path id="path1374" class="cls-21" d="m1060.48,133.52h118.37c1.94,0,3.53-1.56,3.55-3.5v-29.54c-.03-1.94-1.61-3.5-3.55-3.5h-58.19c-1.94,0-3.53,1.56-3.55,3.5v5.35c.03,1.94,1.61,3.5,3.55,3.5h38.16c.65,0,1.18.53,1.18,1.18v5.68c0,.65-.53,1.18-1.18,1.18h-75.99c-1.94,0-3.53-1.56-3.55-3.5v-21.92c.03-1.94,1.61-3.5,3.55-3.5h95.97c1.94-.03,3.5-1.61,3.5-3.55v-8c0-1.93-1.57-3.5-3.5-3.5h-118.37c-1.94,0-3.5,1.57-3.5,3.5v53.08c-.05,1.91,1.45,3.5,3.36,3.55.06,0,.13,0,.19,0Zm-33.14,0h15.25c1.94,0,3.5-1.57,3.5-3.5h0v-53.08c0-1.94-1.56-3.53-3.5-3.55h-17.09c-.69,0-1.36.19-1.94.57l-41.81,27.32c-1.18.76-2.7.76-3.88,0l-41.81-27.41c-.58-.37-1.25-.57-1.94-.57h-17.14c-1.95.03-3.53,1.6-3.55,3.55v53.08c.03,1.94,1.61,3.5,3.55,3.5h15.25c1.94,0,3.5-1.57,3.5-3.5h0v-31.91c.01-.59.33-1.13.85-1.42.52-.29,1.14-.29,1.66,0l32.39,20.31c.56.34,1.19.52,1.85.52h14.54c.65,0,1.29-.18,1.85-.52l32.39-20.31c.51-.31,1.15-.31,1.66,0,.52.29.84.83.85,1.42v32.01c.12,1.94,1.71,3.46,3.65,3.5h-.05Zm-128.26,0h-15.25c-1.94,0-3.5-1.57-3.5-3.5h0v-9.47c-.03-.64-.55-1.14-1.18-1.14h-80.21c-1.09-.03-2.13.46-2.79,1.33l-8.38,10.89c-.89,1.13-2.25,1.79-3.69,1.8h-20.97c-.64.03-1.23-.35-1.47-.95-.33-.52-.33-1.18,0-1.7l43.37-56.11c.66-.88,1.7-1.39,2.79-1.37h91.19c1.95.03,3.53,1.6,3.55,3.55v53.08c.03,1.93-1.48,3.52-3.41,3.6h-.05Zm-18.94-30.68v-13.16c0-.65-.53-1.18-1.18-1.18h-56.82c-.72,0-1.4.33-1.85.9l-10.13,13.12c-.31.42-.23,1.01.19,1.33.16.12.36.19.57.19h68.27c.64-.02,1.16-.54,1.18-1.18h-.24Zm-263.39,30.68h-50.09c-.92,0-1.66-.74-1.66-1.66,0-.36.12-.71.33-.99l43.51-56.11c.66-.88,1.7-1.39,2.79-1.37h49.81c1.07.03,1.91.93,1.88,2-.01.39-.14.76-.37,1.08l-43.09,55.68c-.67.92-1.76,1.43-2.89,1.37h-.24Zm36.55,0h-23.67c-.63.02-1.2-.36-1.42-.95-.35-.51-.35-1.19,0-1.7l43.37-56.11c.66-.88,1.7-1.39,2.79-1.37h23.34c.73.01,1.39.44,1.7,1.09.38.61.38,1.38,0,1.99l-43.23,55.68c-.63.83-1.61,1.33-2.65,1.37h-.24Zm32.86,0h-18.42c-.92,0-1.66-.74-1.66-1.66,0-.36.12-.71.33-.99l43.37-56.11c.66-.88,1.7-1.39,2.79-1.37h17.9c.73,0,1.39.43,1.7,1.09.4.6.4,1.39,0,1.99l-42.85,55.68c-.68.93-1.79,1.45-2.94,1.37h-.24Zm29.59,0h-12.83c-.63,0-1.21-.37-1.47-.95-.35-.51-.35-1.19,0-1.7l43.37-56.11c.65-.89,1.69-1.4,2.79-1.37h12.74c.73.01,1.39.44,1.7,1.09.33.65.24,1.43-.24,1.99l-43.04,55.68c-.67.86-1.7,1.36-2.79,1.37h-.24Zm28.41,0h-9.47c-.63.02-1.2-.36-1.42-.95-.35-.51-.35-1.19,0-1.7l43.37-56.11c.66-.88,1.7-1.39,2.79-1.37h9.33c.73.01,1.39.44,1.7,1.09.38.61.38,1.38,0,1.99l-43.09,55.68c-.69.94-1.82,1.46-2.98,1.37h-.24Z"/>
          <g id="g1394">
            <path id="path1378" class="cls-23" d="m525.17,166.71c-3.41-2.13-10.08-3.12-20.45-3.12h-45.03v60.56h9.47v-23.25h35.51c10.37,0,17.09-.99,20.45-3.08,3.75-2.65,5.77-7.13,5.26-11.69v-7.72c.55-4.56-1.45-9.06-5.21-11.69Zm-4.73,14.2v2.79c0,3.74-.8,6.2-2.41,7.29-3.43,1.48-7.17,2.08-10.89,1.75h-37.88v-20.88h37.88c3.72-.33,7.46.27,10.89,1.75,1.47.9,2.27,3.36,2.27,7.1l.14.19Z"/>
            <path id="polygon1380" class="cls-23" d="m559.74,171.82h54.88v-8h-64.3v60.56h64.3v-8.48h-54.88v-18.94h52.56v-8.29h-52.56v-16.86Z"/>
            <path id="polygon1382" class="cls-23" d="m628.48,171.82h31.49v52.32h9.47v-52.32h31.49v-8h-72.44v8Z"/>
            <path id="path1384" class="cls-23" d="m785.58,166.66c-3.41-2.08-10.13-3.12-20.5-3.12h-46.21v60.56h9.47v-23.11h37.88c8,0,11.03,1.04,12.17,1.94,1.83,1.92,2.7,4.56,2.37,7.2v13.97h9.47v-15.44c.16-3.13-.87-6.21-2.89-8.62-1.32-1.34-2.95-2.35-4.73-2.94,2.08-.54,3.98-1.6,5.54-3.08,1.98-2.4,2.95-5.47,2.7-8.57v-7.05c.51-4.58-1.5-9.07-5.26-11.74Zm-4.73,14.2v2.79c.36,2.67-.55,5.35-2.46,7.24-3.4,1.53-7.13,2.14-10.84,1.8h-39.16v-20.88h39.16c3.71-.35,7.44.27,10.84,1.8,1.9,1.85,2.84,4.47,2.56,7.1l-.09.14Z"/>
            <path id="path1386" class="cls-23" d="m886.43,167.13c-2.51-1.71-5.38-2.84-8.38-3.31-5.01-.74-10.08-1.06-15.15-.95h-21.21c-5.08-.11-10.17.21-15.2.95-2.99.48-5.83,1.61-8.33,3.31-2.45,1.8-4.26,4.34-5.16,7.24-1.17,3.88-1.69,7.93-1.56,11.98v16.05c-.09,3.77.43,7.53,1.56,11.13,1.03,2.8,2.86,5.24,5.26,7.01,2.48,1.71,5.31,2.84,8.29,3.31,5.04.77,10.15,1.08,15.25.95h21.12c5.12.12,10.23-.2,15.29-.95,2.96-.47,5.78-1.6,8.24-3.31,2.39-1.77,4.17-4.23,5.11-7.05,1.17-3.7,1.72-7.58,1.61-11.46v-16.38c.1-3.87-.44-7.72-1.61-11.41-.91-2.85-2.7-5.33-5.11-7.1Zm-19.79,49.19h-28.69c-3.18.11-6.37-.21-9.47-.95-1.84-.52-3.49-1.58-4.73-3.03-.84-1.06-1.44-2.28-1.75-3.6-.44-2.42-.62-4.88-.52-7.34v-15.48c-.09-2.46.08-4.92.52-7.34.3-1.32.9-2.55,1.75-3.6,1.24-1.45,2.89-2.49,4.73-2.98,3.1-.74,6.28-1.06,9.47-.95h28.69c3.18-.12,6.37.2,9.47.95,1.84.49,3.49,1.53,4.73,2.98.78,1.01,1.35,2.17,1.66,3.41.43,2.18.6,4.41.52,6.63v17.28c.08,2.22-.09,4.45-.52,6.63-.31,1.25-.87,2.43-1.66,3.46-1.26,1.44-2.9,2.49-4.73,3.03-3.11.7-6.29,1-9.47.9h0Z"/>
            <path id="polygon1388" class="cls-23" d="m994.57,163.82h-9.47v51.04l-56.34-51.04h-13.59v60.56h9.47v-52.08l57.1,52.08h12.69l.14-60.56Z"/>
            <path id="path1390" class="cls-23" d="m1047.46,163.82l-37.88,60.56h11.17l8.1-12.97h49.57l8.33,12.97h10.42l-37.88-60.56h-11.84Zm-13.92,39.68l19.7-31.39,20.08,31.39h-39.77Z"/>
            <path id="path1392" class="cls-23" d="m1182.21,196.96c-1.01-2.32-2.78-4.22-5.02-5.4-1.99-1-4.13-1.65-6.34-1.89-3.79-.45-7.6-.64-11.41-.57h-22.82c-4.58.41-9.18-.27-13.45-1.99-2.18-1.67-3.32-4.37-2.98-7.1-.33-2.71.83-5.39,3.03-7.01,4.1-1.62,8.53-2.29,12.93-1.94h21.64c4.2-.4,8.43.25,12.31,1.89,2,1.81,2.97,4.48,2.6,7.15v1.75h9.47v-2.56c.09-2.51-.28-5.01-1.09-7.39-.7-1.87-1.92-3.51-3.5-4.73-2.32-1.63-5-2.67-7.81-3.03-5.54-.71-11.13-.99-16.71-.85h-14.2c-10.65,0-17.85,1.23-21.92,3.79-4.38,3.03-6.77,8.2-6.25,13.49-.51,5.05,1.55,10.01,5.49,13.21,5.6,3.04,11.97,4.38,18.32,3.84h26.85c3.69-.38,7.41.27,10.75,1.89,1.81,1.84,2.69,4.4,2.37,6.96.44,3.21-.9,6.41-3.5,8.33-5.25,1.92-10.86,2.68-16.43,2.23h-16.57c-4.83.35-9.67-.34-14.2-2.04-2.42-1.44-3.78-4.16-3.46-6.96v-4.36h-9.56v.71c-.03.27-.03.54,0,.8v3.74c-.44,4.94,1.78,9.73,5.82,12.59,5.77,2.95,12.24,4.25,18.7,3.74h21.59c7.24.6,14.51-.79,21.02-4.02,4.29-3.4,6.57-8.75,6.06-14.2.16-3.44-.42-6.88-1.7-10.08Z"/>
          </g>
        </g>
        <g id="g1430">
          <path id="path1402" class="cls-20" d="m585.16,274.28v3.17h-17.94v21.12h-3.79v-44.03h23.06v3.31h-19.27v16.29h17.94v.14Z"/>
          <path id="path1404" class="cls-20" d="m631.47,276.6c0,13.4-7.15,22.77-17.23,22.77s-17.33-9.47-17.33-23.01,7.2-22.58,17.28-22.58,17.28,9.47,17.28,22.82Zm-30.54,0c0,11.55,5.4,19.6,13.21,19.6s13.21-8.05,13.21-19.41-5.49-19.32-13.21-19.32-13.21,7.86-13.21,18.94v.19Z"/>
          <path id="path1406" class="cls-20" d="m651.97,254.63c3.94-.33,7.91.09,11.69,1.23,4.64,1.55,7.66,6.01,7.39,10.89.08,5.7-3.89,10.66-9.47,11.84l12.07,20.08h-4.73l-11.79-19.51h-8.24v19.51h-3.74v-44.03h6.82Zm0,21.21c3.19.31,6.41-.01,9.47-.95,3.45-1.23,5.65-4.63,5.35-8.29.23-3.32-1.67-6.41-4.73-7.72-3.28-.99-6.72-1.33-10.13-.99h-3.17v17.9h3.12l.09.05Z"/>
          <path id="path1408" class="cls-20" d="m692.02,254.63l13.26,39.82,13.26-39.82h6.06v44.03h-3.74v-40.58l-13.64,40.58h-3.69l-13.73-40.58v40.58h-3.74v-44.03h5.97Z"/>
          <path id="path1410" class="cls-20" d="m743.58,254.63v26.18c0,7.91,0,9.09,1.66,11.13,2.3,2.82,5.84,4.34,9.47,4.07,3.98.41,7.86-1.41,10.08-4.73.99-1.94,1.04-3.03,1.14-10.27v-26.18h3.88v26.23c.38,3.45.09,6.94-.85,10.27-2.41,5.57-8.17,8.93-14.2,8.29-5.38.49-10.58-2.12-13.4-6.72-1.24-2.69-1.76-5.66-1.52-8.62v-29.45l3.74-.19Z"/>
          <path id="path1412" class="cls-20" d="m788.75,254.63v40.72h18.94v3.31h-22.63v-44.03h3.69Z"/>
          <path id="path1414" class="cls-20" d="m835.49,254.3l15.29,44.36h-3.98l-4.26-12.45h-16.9l-4.36,12.45h-3.88l15.29-44.36h2.79Zm-1.42,5.35l-7.43,23.25h14.72l-7.29-23.25Z"/>
          <path id="path1416" class="cls-20" d="m915.74,276.6c0,13.4-7.15,22.77-17.23,22.77s-17.33-9.47-17.33-23.01,7.24-22.44,17.28-22.44,17.28,9.33,17.28,22.68Zm-30.49,0c0,11.55,5.4,19.6,13.21,19.6s13.21-8.05,13.21-19.41-5.49-19.32-13.21-19.32-13.21,7.86-13.21,18.94v.19Z"/>
          <path id="path1418" class="cls-20" d="m933.64,254.63l22.16,38.59v-38.59h3.41v44.03h-4.36l-21.87-38.4v38.4h-3.55v-44.03h4.21Z"/>
          <path id="path1420" class="cls-20" d="m997.08,274.28v3.17h-17.94v17.8h19.55v3.31h-23.29v-44.03h23.01v3.27h-19.27v16.29h17.94v.19Z"/>
          <path id="path1422" class="cls-20" d="m1054.84,254.63v3.31h-11.36v40.72h-3.79v-40.72h-11.36v-3.31h26.51Z"/>
          <path id="path1424" class="cls-20" d="m1088.22,274.28v3.17h-17.94v17.8h19.55v3.31h-23.29v-44.03h23.01v3.27h-19.27v16.29h17.94v.19Z"/>
          <path id="path1426" class="cls-20" d="m1117.06,254.3l15.25,44.36h-3.93l-4.31-12.45h-16.86l-4.36,12.45h-3.88l15.25-44.36h2.84Zm-1.47,5.35l-7.39,23.25h14.72l-7.34-23.25Z"/>
          <path id="path1428" class="cls-20" d="m1150.01,254.63l13.3,39.82,13.26-39.82h6.06v44.03h-3.74v-40.58l-13.68,40.58h-3.74l-13.73-40.58v40.58h-3.88v-44.03h6.16Z"/>
        </g>
      </g>
    </g>
  </g>
</svg>