<?xml version="1.0" encoding="UTF-8"?>
<svg id="Layer_2" data-name="Layer 2" xmlns="http://www.w3.org/2000/svg" xmlns:xlink="http://www.w3.org/1999/xlink" viewBox="0 0 1183.73 362.11">
  <defs>
    <style>
      .cls-1 {
        fill: none;
      }

      .cls-2 {
        fill: url(#linear-gradient);
      }

      .cls-3 {
        clip-path: url(#clippath);
      }

      .cls-4 {
        fill: #fdd800;
      }

      .cls-5 {
        fill: #e21f26;
      }

      .cls-6 {
        fill: url(#linear-gradient-2);
      }
    </style>
    <linearGradient id="linear-gradient" x1="0" y1="236.81" x2="1182.68" y2="236.81" gradientUnits="userSpaceOnUse">
      <stop offset="0" stop-color="#b3b3b3"/>
      <stop offset=".5" stop-color="#585856"/>
      <stop offset=".64" stop-color="#6f6f6e"/>
      <stop offset=".93" stop-color="#a5a5a4"/>
      <stop offset="1" stop-color="#b3b3b3"/>
    </linearGradient>
    <clipPath id="clippath">
      <path class="cls-2" d="m303.26,230.86h-12.03c-132.57,0-291.23,2.79-291.23,4.73s131.1,7.15,291.28,7.15h600.12c132.57,0,291.28-2.79,291.28-4.73s-131.15-7.15-291.33-7.15H303.26Z"/>
    </clipPath>
    <linearGradient id="linear-gradient-2" x1="-485.71" y1="-1919.45" x2="-485.71" y2="-1834.8" gradientTransform="translate(1078 2198.61)" gradientUnits="userSpaceOnUse">
      <stop offset="0" stop-color="#8d8c8b"/>
      <stop offset=".5" stop-color="#9b9b9a"/>
      <stop offset=".66" stop-color="#868686"/>
      <stop offset="1" stop-color="#4e4e4d"/>
    </linearGradient>
  </defs>
  <g id="Layer_1-2" data-name="Layer 1">
    <g>
      <path class="cls-2" d="m303.26,230.86h-12.03c-132.57,0-291.23,2.79-291.23,4.73s131.1,7.15,291.28,7.15h600.12c132.57,0,291.28-2.79,291.28-4.73s-131.15-7.15-291.33-7.15H303.26Z"/>
      <g class="cls-3">
        <rect class="cls-1" y="230.82" width="1182.73" height="12.17"/>
      </g>
    </g>
    <path class="cls-6" d="m98.81,305.81c0-15.39-10.75-24.67-28.83-24.86H.9v81.11h11.74v-29.54h56.11c10.08,0,16.15,5.02,16.15,13.49v16.05h11.93v-15.96c.33-8.27-4.58-15.86-12.26-18.94,8.87-3.29,14.62-11.9,14.25-21.35Zm-28.69,16H12.64v-30.21h57.48c15.67,0,16.9,11.55,16.9,15.1s-1.23,15.1-16.9,15.1Zm234.75-24.9c-6.01-12.07-12.88-17-23.67-17s-17.9,5.11-23.67,17.04l-30.82,63.07-.99,2.04h12.64l.38-.8,10.94-22.49h62.97l10.98,22.49.33.8h12.69l-.95-2.04-30.82-63.11Zm-49.81,31.2l13.73-28.03c3.22-6.68,6.82-9.47,12.45-9.47s9.19,2.75,12.4,9.47l13.68,28.03h-52.27Zm204.59-6.63c0,27.41,11.93,40.29,37.55,40.53h63.49v-11.46h-62.78c-19.27,0-26.47-7.91-26.47-29.07s7.15-29.12,26.47-29.12h62.78v-11.46h-63.54c-25.9.28-37.5,12.78-37.5,40.58h0Zm233.94,40.53h11.69v-81.06h-11.69v81.06Zm241.99-11.69c-11.17,0-13.87-3.65-34.18-30.87l-.9-1.23c-21.87-29.26-27.75-37.17-46.87-37.36h-9.47v81.11h11.6v-69.22c10.56,0,13.16,3.46,33.14,29.45l2.46,3.22c22.06,28.79,27.98,36.55,46.45,36.69h9.47v-81.2h-11.69v69.41Zm236.21-30.11v30.35h-51.56c-19.27,0-26.42-7.95-26.42-29.21s7.15-28.98,26.42-28.98h62.4v-11.46h-62.92c-25.61.24-37.55,13.12-37.55,40.48s11.93,40.39,37.55,40.62h63.97v-41.81h-11.88Z"/>
    <path class="cls-5" d="m510.35,84.14v50.05c0,8.76-7.12,15.85-15.88,15.85-8.75,0-15.84-7.1-15.85-15.85v-50.05h-27.56v55.35c0,18.94,19.41,33.9,43.32,33.9s43.28-15.15,43.28-33.9v-55.35h-27.32Zm89.44-59.42v145.54h27.7V24.72h-27.7Zm-46.87,145.54h27.56V24.72h-27.75l.19,145.54Zm-135.74-75.76c7.67-6.91,12.1-16.71,12.22-27.04-.03-9.2-3.57-18.04-9.9-24.72-6.58-7.29-18.32-11.36-34.14-11.36h-47.35v138.87h61.22c23.67-.38,42.61-18.09,42.61-39.82-.43-15.81-5.97-27.08-24.67-35.75v-.19Zm-23.2,51.47h-26.56V55.06h18.51c8.28.38,14.78,7.24,14.72,15.53,0,8.13-6.59,14.72-14.72,14.72h-9.47v24.95h17.66c9.86.01,17.84,8.02,17.83,17.87-.01,9.84-7.99,17.81-17.83,17.83h-.14Z"/>
    <path class="cls-5" d="m93.46,72.44c-.21-22.88-18.92-41.26-41.8-41.05,0,0,0,0,0,0H.95v138.87h29.54V55.25h14.96c10.19-.26,18.67,7.79,18.94,17.98,0,.05,0,.1,0,.15-.41,10.45-9.21,18.59-19.66,18.18-.03,0-.05,0-.08,0h-6.53v33.14l29.45,45.5h34.71l-40.77-58c18.57-4.27,31.79-20.72,31.96-39.77Zm51.42,8.1c-25.64.82-45.76,22.27-44.94,47.91.78,24.49,20.45,44.16,44.94,44.94,17.12.83,33.31-7.79,42.19-22.44l-22.49-10.42c-3.25,6.59-10.03,10.71-17.38,10.56-10.01.43-18.48-7.32-18.94-17.33v-.9h61.31c0-1.94.28-3.88,0-5.82.62-30.02-19.22-46.49-44.7-46.49Zm-16.71,36.41c0-9.36,7.59-16.95,16.95-16.95s16.95,7.59,16.95,16.95h-33.9Zm171.63,53.31V24.72h-27.56v68.89c-7.39-7.45-17.44-11.65-27.93-11.69-22.92,0-41.48,20.31-41.48,45.41s18.56,45.36,41.48,45.36c10.58-.09,20.68-4.42,28.03-12.03v9.47h27.56l-.09.14Zm-47.73-21.26c-12.29,1.1-23.15-7.98-24.25-20.27-1.1-12.29,7.98-23.15,20.27-24.25,12.29-1.1,23.15,7.98,24.25,20.27.06.66.09,1.33.09,1.99.51,11.71-8.51,21.64-20.22,22.25h-.14Z"/>
    <circle class="cls-4" cx="933.73" cy="94.74" r="94.74"/>
    <path class="cls-4" d="m1182.3,158.23h0c-.11-.28-.23-.55-.38-.8v-1.7h0c-.13-1.54-.47-3.05-.99-4.5-1.05-2.42-3.2-4.18-5.78-4.73-.13-.78-.44-1.53-.9-2.18-1.57-2.02-3.52-3.73-5.73-5.02-.43-.28-.84-.58-1.23-.9l-.47-.33c-1.15-.94-2.59-1.44-4.07-1.42-2.63.16-5.07,1.46-6.68,3.55-.28-.71-.71-2.41-.99-3.31-.28-1.19-.63-2.36-1.04-3.5h0c-.03-.12-.03-.25,0-.38-.84-3.3-3.45-5.86-6.77-6.63-1.18-.18-2.36-.27-3.55-.28-1.17.05-2.33-.16-3.41-.62l.38-.99c.38-1.04.66-1.89.95-2.79,1.12-3.82,1.4-7.85.8-11.79,1.15.15,2.3.23,3.46.24,3.82,0,7.61-.77,11.13-2.27h0c7.86-3.63,12.93-11.46,13.02-20.12h0c-1.39-9.25-6.31-17.6-13.73-23.29,2.39-.53,4.66-1.48,6.72-2.79,6.33-4.59,9.19-12.61,7.2-20.17v-.62c-.25-2.89-2.79-5.03-5.69-4.79-1.19.1-2.3.6-3.17,1.42l-.62.62c-.46.51-1.01.94-1.61,1.28-1.64.81-3.4,1.36-5.21,1.61-1.6.33-3.18.74-4.73,1.23-6.38,1.61-11.63,6.11-14.2,12.17-1.05,3.7-.55,7.66,1.37,10.98v.24c2.45,3.47,5.3,6.65,8.48,9.47,4.04,3.04,7.08,7.23,8.71,12.03,0,.8.43,2.32-2.27,4.36-1.3.67-2.75.99-4.21.95-2.52-.02-5-.64-7.24-1.8h0c-3.45-1.83-6.79-3.87-9.99-6.11-5.2-3.95-10.94-7.14-17.04-9.47-2.8-1.14-5.72-1.95-8.71-2.41-3.23-.39-6.34-1.49-9.09-3.22h-.28c-1.04-.66-2.08-1.42-3.08-2.13-3.15-2.6-6.76-4.58-10.65-5.82-1.42-.44-2.88-.75-4.36-.9-1.09-.04-2.16-.33-3.12-.85l-2.08-1.47h0c-2.8-2.19-5.78-4.13-8.9-5.82-5.31-2.41-10.89-4.16-16.62-5.21-.33,0-1.14-1.04-1.66-1.7-1.01-1.32-2.19-2.49-3.5-3.5-4.46-4.07-10.21-6.44-16.24-6.68h-1.75c-3.7.5-7.14,2.16-9.85,4.73-4.97,4.31-10.37,8.24-15.62,12.07-8.56,5.81-16.49,12.49-23.67,19.93-6.5,7.59-10.95,16.72-12.93,26.51-.33,1.28-.71,2.51-1.04,3.84-.71,2.37-1.33,4.73-1.89,7.2-3.03,12.07-5.87,23.67-17.14,30.87-1.79,1.14-2.78,3.19-2.56,5.3.24,2.15,1.67,3.98,3.69,4.73,1.4.48,2.87.72,4.36.71.09,1.23.55,2.4,1.33,3.36,1.23,1.32,2.93,2.09,4.73,2.13h0c7.03-.44,13.57-3.73,18.13-9.09,1.85,1.8,4.16,3.06,6.68,3.65h1.61c2.58-.43,5.2-.62,7.81-.57,2.32.71,4.73,1.56,6.96,2.46s3.6,1.37,5.49,2.04l.95.28h.8c3.88-.48,7.27-2.86,9.04-6.34v-.71c.18-.38.33-.78.43-1.18h0l.33,1.09c.47,2.39,1.45,4.66,2.89,6.63,1.41,1.66,3.5,2.6,5.68,2.56h0c.72.06,1.45.06,2.18,0h0l.24.28c1.17,1.4,2.72,2.45,4.45,3.03,2.08.71,4.17,1.23,6.2,1.75,2.5.61,4.96,1.36,7.39,2.23h0c1.92.68,3.93,1.05,5.97,1.09,2.6.02,5.11-.92,7.05-2.65,2.36-1.76,4.03-4.29,4.73-7.15l1.56-.38c3.46-1.18,6.82-7.53,6.87-7.62.22-.43.47-.84.76-1.23.82-1.2,1.26-2.62,1.28-4.07-.03-3.32-2.7-6.01-6.01-6.06h-9.47c-.76.06-1.5.2-2.23.43h0s-1.04-1.99-1.75-2.37c.08.03.16.03.24,0h5.4c3.88-.11,7.75-.55,11.55-1.33,3.14-.37,6.31-.46,9.47-.28h5.54c1.65.21,3.31.32,4.97.33h1.85c1.61-.06,3.2-.35,4.73-.85,0,.8.33,1.8.57,3.03v1.04c.85,5.5,4,10.37,8.66,13.4l.99.66c2.77,2.09,6.03,3.42,9.47,3.88,1.58.18,3.18.1,4.73-.24,6.05-1.16,12.31.28,17.23,3.98l.43.28c.55.37,1.07.78,1.56,1.23,1.38,1.27,2.98,2.27,4.73,2.94,1.33.51,2.74.78,4.17.8h0c1.92.02,3.81-.5,5.44-1.52h0l.52.76c.95,1.41,2.04,2.71,3.27,3.88,2.51,2.2,5.83,3.23,9.14,2.84h5.78c.46.04.92.04,1.37,0,1.27,1.01,2.97,1.29,4.5.76l5.44-1.8c1.53-.43,2.78-1.52,3.41-2.98.76-2.5.38-5.2-1.04-7.39Zm-170.97-26.89l-.43-.62-.52-.85c-.73-.97-1.35-2.02-1.85-3.12l5.16.38-2.37,4.21Z"/>
    <path class="cls-4" d="m930.84,138.44l-2.84-1.42c-2.49-1.89-4.5-4.34-5.87-7.15-.78-1.42-1.63-2.79-2.56-4.12-.92-1.21-1.97-2.33-3.12-3.31l-.62-.52c-3.68-9.24-6.07-18.94-7.1-28.83-.5-3.58-1.68-7.03-3.46-10.18h0c-5.15-7.58-10.76-14.84-16.81-21.73l-1.28-1.33-.28-.28-20.12-16.71h-.28c-2.73-2.07-5.79-3.67-9.04-4.73-5.75-1.83-11.96-1.62-17.57.62h-.33c-1.7.9-3.31,1.94-4.73,2.94-2.16,1.53-4.5,2.78-6.96,3.74h-.43c-1.99.85-4.21,1.56-6.44,2.27-5.34,1.26-10.33,3.72-14.58,7.2l-2.75,2.56c-.8.8-1.63,1.56-2.51,2.27h-.85c-6.9-.3-13.67,2.01-18.94,6.49h0c-2.93,3.04-6.42,5.48-10.27,7.2-1.72.51-3.51.81-5.3.9h0c-2.5.13-4.97.53-7.39,1.18-5.82,1.9-11.17,5-15.72,9.09l-3.74,2.84-1.28.76c-4.15,3.06-9.07,4.91-14.2,5.35h0c-2.82-.29-5.24-2.11-6.3-4.73-.78-3.3.27-6.77,2.75-9.09,1.7-1.7,3.69-3.41,5.63-5.07,3.38-2.64,6.44-5.66,9.14-9,3.8-5.44,3.45-12.75-.85-17.8-3.83-3.39-8.54-5.64-13.59-6.49h-1.47l-1.56-.28-2.51-.52c-1.72-.65-3.31-1.58-4.73-2.75-1.23-.8-2.51-1.7-3.88-2.46l-3.74-2.04-2.32,3.6c-1.77,2.72-2.55,5.96-2.23,9.19h0c1.19,6.86,5.64,12.72,11.93,15.72h0l.66.24c1.31.51,2.68.82,4.07.95-3.47,2.83-6.64,6-9.47,9.47-5.09,6.54-6.38,15.27-3.41,23.01,3.41,8.07,10.9,13.7,19.6,14.72,1.28.21,2.58.31,3.88.28,2.23-.01,4.45-.25,6.63-.71h0c.02,2.25.19,4.5.52,6.72.62,2.69,1.5,5.33,2.6,7.86v.24c-1.58.94-3.27,1.7-5.02,2.27l-3.74.28h-1.56c-1.53.15-2.97.82-4.07,1.89-1.61,1.94-2.79,4.2-3.46,6.63-.47,1.23-.99,2.46-1.42,3.5-.46.61-1,1.15-1.61,1.61-.77-1.24-1.76-2.31-2.94-3.17h0c-2.26-1.63-5.31-1.63-7.58,0-.36.19-.71.41-1.04.66h-.33c-1.64,1.08-3.22,2.25-4.73,3.5-1.19,1.06-2.01,2.47-2.37,4.02-.42.06-.84.17-1.23.33-3.18,1.33-5.46,4.18-6.06,7.58,0,1.18-.28,3.31-.43,3.88-.14.57,0,0-.28.33-2.1,2.33-2.1,5.87,0,8.19,2.75,1.72,5.83,2.84,9.04,3.27h1.42c.37-.08.72-.23,1.04-.43h1.47c.89.11,1.78.27,2.65.47,1.8.46,3.64.72,5.49.76,2.01.02,4-.47,5.78-1.42,2.54-1.39,4.58-3.54,5.82-6.16.28-.54.6-1.06.95-1.56h.52c1,.31,2.03.5,3.08.57,4.27,0,8.4-1.53,11.65-4.31.83-.66,1.62-1.37,2.37-2.13.77-.74,1.57-1.43,2.41-2.08,1-.36,2.06-.52,3.12-.47,2.26.09,4.51.38,6.72.85,4.28,1.12,8.82.6,12.74-1.47l5.4-2.89h.28l2.18-1.18c3.5-2.35,6.27-5.63,8-9.47.88-1.77,1.67-3.59,2.37-5.44h1.04c2.37-.07,4.72-.3,7.05-.71,1.33-.25,2.67-.41,4.02-.47h1.33c2.58.04,5.16.21,7.72.52,1.99.24,3.36.43,5.97.57h1.14c.95.05,1.89.05,2.84,0,2.3.02,4.57-.49,6.63-1.52.52.52,1.33,1.66,1.89,2.18h0c-1.66-.01-3.25.65-4.4,1.85-1.98-.65-4.09-.84-6.16-.57-2.59.23-5.17.63-7.72,1.18-1.86.29-3.45,1.5-4.21,3.22-.86,1.89-.75,4.07.28,5.87,1.37,2.41,2.7,4.73,4.12,7.01l.62,1.04c1.19,1.92,3.33,3.03,5.59,2.89h1.37c-.02.16-.02.32,0,.47,1.15,2.25,2.77,4.23,4.73,5.82,2.41,2,5.44,3.07,8.57,3.03,1.38-.01,2.75-.22,4.07-.62,6.11-1.73,12.06-4.01,17.76-6.82h2.37c3.16.06,6.22-1.11,8.52-3.27l.28-.28v-.28c1.04-1.52,2.04-3.03,2.94-4.73v.57h0c1.51,3.58,5.06,5.87,8.95,5.78h0c3.56-.3,7.06-1.15,10.37-2.51h.24l1.28-.47h.28c3.06-1,6.32-1.18,9.47-.52h1.04c3.78-.39,7.35-1.96,10.18-4.5,4.99,5.34,12.01,8.3,19.32,8.14h2.51c2.42-.5,4.22-2.55,4.4-5.02.09-.47.09-.95,0-1.42h1.37c2.44-.38,4.35-2.3,4.73-4.73.74-2.58-.62-5.3-3.12-6.25Zm-66.29-12.78c-.2.23-.42.44-.66.62-1.55,1.33-2.93,2.84-4.12,4.5-.73-1.18-1.39-2.4-1.99-3.65,1.99-.3,3.93-.86,5.78-1.66h.99c0,.06,0,.13,0,.19Z"/>
    <path class="cls-5" d="m694.96,150.71h-.28c-1.56.68-2.74,2.01-3.22,3.65-.38,4.73-.52,5.44-1.89,6.96-.38.43-.62,1.42,0,1.85,1.86.81,3.8,1.44,5.78,1.89h0c.43,0,.8-1.23,1.8-4.73.52-1.85,1.09-3.93,1.8-5.78,0,0,0-.28-.43-.95-.43-.66-2.51-2.89-3.55-2.89Zm5.35,0c.48.46,1.13.72,1.8.71.54-.13,1.04-.37,1.47-.71,2.41-1.79,4.35-4.13,5.68-6.82.28-.8-.62-1.56-1.8-2.51h0c-.65-.42-1.48-.42-2.13,0l-1.33.9c-1.55,1-3.05,2.07-4.5,3.22-.54.54-.86,1.27-.9,2.04-.1.45,0,.92.28,1.28.44.57.91,1.11,1.42,1.61v.28Zm228.35-7.86l-2.98-1.47c-3.22-2.27-5.83-5.32-7.58-8.85-.8-1.33-1.56-2.65-2.46-3.88-.7-.93-1.51-1.77-2.41-2.51-.61-.46-1.14-1.02-1.56-1.66-3.97-9.87-6.53-20.24-7.62-30.82-.46-2.86-1.42-5.62-2.84-8.14-4.96-7.33-10.38-14.34-16.24-20.97l-1.14-1.23-.28-.28-19.79-16.48c-2.39-1.9-5.1-3.35-8-4.31-2-.68-4.09-1.02-6.2-.99-2.73-.03-5.43.49-7.95,1.52-1.56.8-3.12,1.85-4.73,2.75-2.47,1.74-5.14,3.17-7.95,4.26-2.23.99-4.73,1.7-6.91,2.46-4.69,1.08-9.07,3.2-12.83,6.2-1.09.95-1.94,1.8-2.7,2.51-3.41,3.22-3.74,3.55-6.53,3.55-5.76-.32-11.43,1.56-15.86,5.26-3.39,3.45-7.43,6.2-11.88,8.1-2.07.66-4.22,1.05-6.39,1.18-2.33.1-4.65.45-6.91,1.04-5.14,1.8-9.87,4.6-13.92,8.24-1.37,1.09-3.27,2.56-4.12,3.08l-1.42.9c-4.87,3.47-10.6,5.54-16.57,5.97h-.33c-4.76-.36-8.87-3.47-10.51-7.95-1.31-4.94.2-10.19,3.93-13.68,1.8-1.85,3.88-3.6,5.92-5.35,3.1-2.43,5.93-5.19,8.43-8.24,2.44-3.68,2.19-8.52-.62-11.93-3.27-2.63-7.14-4.38-11.27-5.11h-1.28c-1.47-.28-2.84-.47-4.31-.85-3.49-1.48-6.79-3.35-9.85-5.59-1.2,1.88-1.74,4.12-1.52,6.34,1.04,5.32,4.56,9.83,9.47,12.12h.57c1.41.53,2.9.77,4.4.71h1.89c.97-.04,1.94.04,2.89.24,1.01.32,1.74,1.18,1.89,2.23,0,.66,0,1.18-1.04,1.8-1.04.62-1.56,1.33-2.32,1.89-4.09,3.18-7.87,6.74-11.27,10.65-3.98,5.27-4.93,12.23-2.51,18.37,2.79,6.49,8.84,10.99,15.86,11.79,1.08.15,2.17.23,3.27.24,3.45-.12,6.87-.7,10.18-1.7h.33s.43,0,.47.71c0,1.52,0,3.17.24,4.73,0,2.6,0,5.07.43,6.11.56,2.39,1.35,4.72,2.37,6.96.26.56.47,1.15.62,1.75.31,1,.06,2.08-.66,2.84-2.5,1.96-5.36,3.39-8.43,4.21-1.52,0-3.12.28-4.26.33h-1.28c-.53.06-1.03.3-1.42.66-1.04,1.53-1.84,3.2-2.37,4.97l-1.66,4.02c-1.77,2.42-4.11,4.36-6.82,5.63l-1.89,1.09h0c-.94,1.65-2.12,3.15-3.5,4.45-1.04.86-2.34,1.34-3.69,1.37h0c-1.8,2.43-2.92,5.28-3.27,8.29,0,.47,0,.9-.28,1.37v.43h.24c1.1.13,2.19.32,3.27.57,1.47.39,2.98.61,4.5.66,1.29,0,2.55-.3,3.69-.9,1.73-1.01,3.1-2.54,3.93-4.36.59-1.17,1.35-2.24,2.27-3.17.52-.57,1.26-.88,2.04-.85.81.03,1.6.17,2.37.43.72.19,1.44.33,2.18.43,3.13-.11,6.14-1.27,8.52-3.31.75-.58,1.47-1.21,2.13-1.89,1.03-1.02,2.16-1.94,3.36-2.75,1.67-.72,3.48-1.05,5.3-.99,2.59.09,5.17.39,7.72.9,1.2.32,2.45.48,3.69.47,2.01.03,4-.44,5.78-1.37,1.99-1.14,3.98-2.18,5.54-2.98l2.41-1.28c2.65-1.99,4.75-4.61,6.11-7.62.85-1.66,2.27-5.26,2.27-5.3h0l-3.31-2.56v.24s-2.23,3.6-3.6,5.26c-5.82,7.91-15.29,8.9-22.87,8.9h-1.61c-8.55-.35-16.8,3.12-22.54,9.47-.23.25-.62.26-.87.03-.01,0-.02-.02-.03-.03-.1-.21-.1-.45,0-.66.1-.55.29-1.08.57-1.56,5.92-8.33,15.96-9.47,24.1-9.75,4.92-.1,9.76-1.25,14.2-3.36,4.68-2.74,8.18-7.1,9.85-12.26.85-2.88,1.46-5.83,1.85-8.81.29-2.34.72-4.67,1.28-6.96.1-.3.39-.49.71-.47h.24c.33,0,.9.28.9.71-1.49,5.28-1.49,10.87,0,16.15.95,2.08,3.03,3.08,6.34,3.08,2.13-.06,4.25-.28,6.34-.66,1.57-.27,3.15-.46,4.73-.57h1.7c2.59.08,5.16.43,7.67,1.04,2.18.49,4.4.8,6.63.95h1.33c.8.05,1.61.05,2.41,0,1.53.12,3.05-.3,4.31-1.18.66-.57.47-1.37,0-2.46h0c.01-.2.01-.41,0-.62-.43-1.42-1.09-3.55,0-4.73.2-.05.41-.05.62,0,.22,0,.43.13.52.33.1.42.23.83.38,1.23.39,1.78,1.1,3.48,2.08,5.02,2.81,3.4,6.33,6.15,10.32,8.05,3.58,2.15,6,5.8,6.58,9.94,0,2.08-2.08,3.55-3.6,4.45-2.58,1.42-5.44,2.28-8.38,2.51-1.03-.09-2.01-.47-2.84-1.09-2.37-2.13-2.08-2.89-3.6-5.4-.76-1.41-1.67-2.75-2.7-3.98-1.42-1.6-3.57-2.35-5.68-1.99-2.41.23-4.8.62-7.15,1.18-.53.06-.98.41-1.18.9-.26.54-.26,1.17,0,1.7,1.33,2.37,2.65,4.73,4.02,6.87l.62,1.04c.37.51.99.76,1.61.66h2.23c.9-.12,1.81.22,2.41.9.43.62.8,1.33,1.18,1.99.81,1.72,1.97,3.26,3.41,4.5,1.58,1.32,3.58,2.03,5.63,1.99.93,0,1.85-.13,2.75-.38,6.21-1.77,12.23-4.14,17.99-7.05h2.32c1.99.12,3.96-.52,5.49-1.8,1.78-2.61,3.36-5.35,4.73-8.19,1.26-2.18,1.26-4.87,0-7.05-2.43-3.52-4.39-7.34-5.82-11.36h0l-1.33-.47c-.9-.44-1.89-.68-2.89-.71h0c-.97-.14-1.93.31-2.46,1.14h0l6.63,13.12c.58,1.1.81,2.36.66,3.6-1.01,2.72-2.54,5.21-4.5,7.34-.19.04-.38.04-.57,0,0,0-.43,0,0-.85.78-2.84,1.18-5.77,1.18-8.71-1.71-3.97-3.72-7.8-6.01-11.46h0c-1.04-1.36-1.62-3.02-1.66-4.73.08-.7.56-1.3,1.23-1.52.94-.32,1.91-.57,2.89-.76,2.37-.47,4.73-1.04,5.68-2.37,2.77-4.3,4.58-9.14,5.3-14.2,0-.24,0-.76.57-.76s.47,0,.52.57c.96,5.59-.35,11.34-3.65,15.96-.19.4-.27.84-.24,1.28.11.34.33.64.62.85,3.22.77,6.61.26,9.47-1.42,2.47.01,4.94-.28,7.34-.85l2.23-.38c.28,0,.47.33.47.52-1.96,2.24-3.27,4.97-3.79,7.91l-1.75,1.66c-2.44,1.62-4.14,4.14-4.73,7.01-.03.6.44,1.11,1.04,1.14,0,0,0,0,0,0,.4,0,.8-.11,1.14-.33.34-.2.74-.3,1.14-.28.34.06.61.32.66.66l-2.46,3.65c-.68,1.51-.68,3.23,0,4.73.33.85,0,1.56.43,2.32.87,1.79,2.76,2.85,4.73,2.65,3.1-.26,6.13-1.01,9-2.23l1.56-.57c3.9-1.4,8.12-1.67,12.17-.8,3.81-.64,7.28-2.56,9.85-5.44,1.53.19,2.92.97,3.88,2.18,4.09,4.55,9.98,7.06,16.1,6.87h1.42c.49-.05.88-.45.9-.95,0-.52-.38-.99-1.09-1.37l-3.69-1.94c-3.06-1.51-5.52-3.99-7.01-7.05-1.01-2.97-2.36-5.82-4.02-8.48-.26-.44-.55-.87-.85-1.28-.53-.72-1.01-1.48-1.42-2.27h0c4.11,1.84,7.31,5.25,8.9,9.47,2.58,4.36,7.12,7.21,12.17,7.62.63.07,1.26.07,1.89,0,.48-.06.87-.42.95-.9-.66-.9-.71-1.28-1.18-1.52v.28Zm-71.3-59.04c0,.43-.33.66-.62.66s-.38,0-.47-.52c-.49-3.57-1.46-7.06-2.89-10.37-.38-.71-.81-1.39-1.28-2.04-.9-1.18-1.66-2.23-.8-3.69.38-.47.96-.72,1.56-.66.31-.07.64-.07.95,0,1.38.9,2.44,2.21,3.03,3.74,1.47,4.04,1.65,8.44.52,12.59v.28Zm33.14,52.79c-.06.79-.36,1.55-.85,2.18-1.46.75-3.1,1.08-4.73.95-1.37,0-1.8-.28-2.08-.66-.28-.38,0-1.33,0-1.33.92-2.05,2.63-3.63,4.73-4.4.63-.22,1.31-.22,1.94,0,1.66.28,1.23,2.65,1.18,3.17l-.19.09Zm9.09-20.83c-.07.75-.3,1.47-.66,2.13-.22.56-.77.92-1.37.9-.99,0-.95-1.18-.95-1.33-.02-1.61-.27-3.2-.76-4.73-.66-1.52-3.93-5.68-5.82-5.54-1.05.38-1.96,1.07-2.6,1.99-1.14,1.42-1.14,1.61-1.42,1.85-.28.24-.8,0-.95-.76-.26-1.04-.26-2.13,0-3.17.31-1.1.74-2.16,1.28-3.17.39-.97.84-1.92,1.33-2.84.51-.86,1.42-1.4,2.41-1.42,1.11-.02,2.16.51,2.79,1.42.6.72,1.12,1.49,1.56,2.32.57.95,1.25,1.83,2.04,2.6,1.32,1.6,2.3,3.46,2.89,5.44.35,1.31.5,2.67.43,4.02l-.19.28Zm-78.45,26.61c.56.92,1.06,1.89,1.47,2.89.76,1.66,1.42,3.08,2.18,3.27.36.08.73.08,1.09,0,2.12-.14,4.15-.92,5.82-2.23.99-.85.66-1.37.24-2.08l-.47-.85c-.41-.85-.72-1.74-.95-2.65-.47-1.66-.9-3.08-2.7-2.84-2.57.37-5.17.54-7.76.52,0,0-.9,0-1.18.62-.28.62.43,1.33,1.14,2.04.47.3.92.65,1.33,1.04l-.19.28Z"/>
    <path class="cls-5" d="m1178.14,160.17c-.27-.52-.49-1.05-.66-1.61-.16-.78-.27-1.57-.33-2.37-.09-1.13-.33-2.25-.71-3.31-.55-1.16-1.7-1.91-2.98-1.94-.42.02-.84.12-1.23.28-1.85.95-2.94,1.94-2.65,4.07.9,2.7,1.63,5.45,2.18,8.24,0,.47.43,1.99,1.14,1.99h0l5.35-1.75c.26-.04.48-.22.57-.47.43-.76-.14-1.94-.66-3.12Zm-7.95-13.21c-1.24-1.52-2.75-2.81-4.45-3.79l-1.75-1.23-.28-.24c-.34-.29-.78-.44-1.23-.43-1.57.26-2.9,1.29-3.55,2.75,0,.99,1.42,2.84,3.31,5.11l.38.47c.73,1.03,1.87,1.7,3.12,1.85h0c1.09,0,2.14-.44,2.89-1.23.76-.66,2.23-2.27,1.56-3.27h0Zm-125.37-7.76c-.98.07-1.96.07-2.94,0h-2.6c-.52-.05-1.04-.05-1.56,0h0c-.99,1.69-1.55,3.59-1.66,5.54,0,2.23,2.51,2.7,4.26,3.03.68.05,1.36.05,2.04,0,.99.12,1.97-.34,2.51-1.18.91-2.22,1.56-4.54,1.94-6.91.1-.21.1-.45,0-.66-.35-.27-.79-.41-1.23-.38-.16-.21-.45-.25-.66-.09-.21.16-.25.45-.09.66h0Zm121.16,15.72h0c-3.12,0-5.02-2.32-6.87-4.73-.62-.8-1.18-1.56-1.8-2.23-.93-1.01-1.93-1.96-2.98-2.84-.91-.74-1.7-1.6-2.37-2.56-.55-1.41-1.01-2.85-1.37-4.31-.24-1.07-.54-2.13-.9-3.17-.03-.16-.03-.32,0-.47-.52-1.47-1.28-3.36-3.17-3.69-1.01-.05-2.02-.05-3.03,0-2.62.23-5.21-.73-7.05-2.6-1.1-1.61-1.1-3.74,0-5.35.32-.73.57-1.5.76-2.27,1.05-3.39,1.24-6.98.57-10.46,0-.47-.28-.95-.43-1.42-.51-1.14-.71-2.4-.57-3.65.28-.57.57-.62,1.18-.62.53.03,1.06.13,1.56.28l1.04.28c4.87,1.26,10.02.84,14.63-1.18,6.22-2.83,10.27-8.98,10.42-15.81-.76-7.34-5.26-14.54-13.97-21.78l-.66-.52c-1.09-.95-2.46-2.13-2.51-3.17-.05-1.04,2.65-1.7,4.4-2.08l1.04-.28h.43c2.19-.43,4.29-1.25,6.2-2.41,4.7-3.68,6.78-9.79,5.3-15.58-.03-.12-.03-.25,0-.38,0-.52-.28-1.18-.76-1.18-.15-.06-.32-.06-.47,0l-.57.57c-.73.73-1.54,1.38-2.41,1.94-2.09,1.05-4.32,1.77-6.63,2.13-1.47.27-2.93.64-4.36,1.09-5.06,1.2-9.27,4.7-11.36,9.47-.65,2.47-.28,5.1,1.04,7.29,2.22,3.18,4.81,6.09,7.72,8.66,4.87,3.68,8.42,8.82,10.13,14.68.52,3.58-1.19,7.12-4.31,8.95-2.07,1.15-4.41,1.72-6.77,1.66-3.3-.01-6.55-.83-9.47-2.37-3.62-1.9-7.12-4.04-10.46-6.39-4.94-3.64-10.36-6.59-16.1-8.76-2.6-1.03-5.29-1.77-8.05-2.23-3.92-.5-7.68-1.9-10.98-4.07-1.09-.71-2.18-1.52-3.22-2.27-2.81-2.28-6.02-4.02-9.47-5.11-1.22-.37-2.47-.64-3.74-.8-1.85-.09-3.65-.66-5.21-1.66l-2.18-1.56c-2.66-2.24-5.53-4.22-8.57-5.92-4.96-2.26-10.2-3.85-15.58-4.73-1.73-.59-3.2-1.76-4.17-3.31-.75-1.02-1.66-1.92-2.7-2.65-3.66-3.49-8.44-5.56-13.49-5.82h-1.47c-2.68.5-5.14,1.81-7.05,3.74-5.16,4.5-10.65,8.48-15.96,12.31-8.36,5.66-16.14,12.15-23.2,19.36-5.99,7.05-10.05,15.53-11.79,24.62-.38,1.28-.76,2.56-1.09,3.84-.66,2.32-1.28,4.73-1.85,7.1-3.17,12.69-6.44,25.38-18.94,33.62-.49.29-.66.93-.36,1.43.13.23.35.39.6.47,4,1.15,8.3-.19,10.94-3.41,3.31-3.88,5.02-7.62,8.81-11.74,0,0,.57-.57.95-.43.38.14.38.24.24.71-.57,1.63-1.4,3.15-2.46,4.5-1.1,1.43-1.96,3.03-2.56,4.73-1.71,3.66-4.34,6.82-7.62,9.19-.27.19-.52.39-.76.62-.28.38-.24.52-.24.52,0,.85.52,1.28,1.85,1.37h0c7.1,0,12.12-5.07,17.05-9.94.19-.24.5-.37.8-.33.26-.08.54-.08.8,0,.33,0,1.04.9,1.66,1.37,1.44,1.61,3.32,2.78,5.4,3.36h0c2.43-.4,4.88-.62,7.34-.66h1.94c2.6.8,5.16,1.75,7.72,2.7,1.75.66,3.55,1.37,5.4,1.99h0c2.37,0,4.07-2.32,5.3-4.26.43-1.32.43-2.75,0-4.07-.21-.76-.3-1.54-.28-2.32.55-.17,1.15-.17,1.7,0,.53.08,1.08.08,1.61,0,.75-.13,1.25-.84,1.11-1.59,0-.04-.02-.08-.03-.11-.54-2.06-1.51-3.98-2.84-5.63-1.05-1.45-1.9-3.05-2.51-4.73-.97-2.14-2.34-4.09-4.02-5.73-1.92-1.7-3.34-3.9-4.12-6.34v-.76c0-.24.71,0,.71,0l2.56,1.99c2.49,2.32,5.54,3.96,8.85,4.73,3.31.45,6.65.6,9.99.43.7-.06,1.22-.68,1.16-1.39,0-.11-.03-.21-.07-.32-1.48-3.04-2.69-6.21-3.6-9.47-1.47-4.59-1.7-9.49-.66-14.2.07-.39.41-.67.8-.66h0c.53.22.91.71.99,1.28v1.28c-.21,6.6,1.55,13.11,5.07,18.7,1.1,1.53,2.56,2.77,4.26,3.6,1.14.53,2.17,1.27,3.03,2.18.86,1.22,1.02,2.8.43,4.17l-5.11,7.53c-1.25,1.61-2.2,3.44-2.79,5.4-.26,1.84-.26,3.7,0,5.54v.43c-.16-.1-.27-.25-.33-.43-1.97-2.74-2.5-6.27-1.42-9.47.66-1.56,4.73-7.43,6.01-9.47.38-.62.71-1.23.38-1.66-1.32-.9-2.8-1.53-4.36-1.85h0c-.68.32-1.25.85-1.61,1.52l-.28.38-6.3,11.41v.43c-.48,1.08-.62,2.29-.38,3.46.38,1.7.9,3.55,1.33,4.73l.28,1.14c.37,1.69,1.04,3.29,1.99,4.73.54.64,1.34.98,2.18.95h1.42c.75-.14,1.52-.14,2.27,0,.92.33,1.73.92,2.32,1.7.61.83,1.45,1.46,2.41,1.8,1.94.66,4.02,1.23,5.97,1.7,2.68.66,5.32,1.47,7.91,2.41,1.52.55,3.12.85,4.73.9,1.55.02,3.05-.58,4.17-1.66,1.75-1.4,2.9-3.42,3.22-5.63.38-2.18,1.09-2.32,2.7-2.41.53.09,1.08.09,1.61,0,1.77-1.47,3.22-3.29,4.26-5.35.28-.58.61-1.14.99-1.66.29-.44.45-.95.47-1.47,0-.84-.68-1.52-1.52-1.52h-8.95c-2.79,0-3.98,2.84-4.73,5.16-.35.86-.74,1.7-1.18,2.51-.81,1.39-2.33,2.19-3.93,2.08-.75-.09-1.5-.25-2.23-.47-3.65-.9-7.39-1.8-8.9-5.4-.31-1.02-.12-2.13.52-2.98,2.15-2.59,4.55-4.97,7.15-7.1,3.96-.89,7.39-3.38,9.47-6.87.36-.61.65-1.26.85-1.94.22-1.02.77-1.93,1.56-2.6.62-.28,1.09,0,1.18.33.2,1.88-.16,3.77-1.04,5.44,0,.43-.33.8-.47,1.18v.33h.28c1.02.07,2.05.07,3.08,0,3.61-.09,7.21-.5,10.75-1.23,3.49-.74,7.04-1.17,10.61-1.28h1.18c1.61,0,3.22,0,4.73.28,1.52.28,2.98.28,4.73.28h.62c3.93.28,7.59-2.02,9.04-5.68.96-4.86.84-9.87-.33-14.68v-.57h0c-.05-.27.09-.54.33-.66.47,0,.9,0,1.14.52,1.57,4.75,2.69,9.63,3.36,14.58.71,4.23,2.32,8.25,4.73,11.79,3.36,5,9.03,7.96,15.06,7.86,1.42,0,2.94-.33,4.36-.47.68-.06,1.36-.06,2.04,0,7.88-.03,15.31,3.67,20.03,9.99.05.09.05.2,0,.28-.06.31-.36.51-.66.45-.03,0-.06-.01-.09-.03l-.66-.57c-4.18-3.89-9.33-6.58-14.91-7.76-1.09-.19-2.2-.29-3.31-.28-1.58.04-3.16.16-4.73.38-1.57.21-3.15.32-4.73.33-1.79.03-3.58-.27-5.26-.9-6.39-2.86-11.37-8.14-13.87-14.68-.12-.28-.41-.45-.71-.43h-.57c-.8.47-.9.76-.99,1.23.13,1.79.4,3.56.8,5.3.43,4.65,2.96,8.85,6.87,11.41,2.44,2.05,5.41,3.38,8.57,3.84.99.14,1.99.14,2.98,0,1.69-.38,3.42-.57,5.16-.57,5.69.05,11.23,1.89,15.81,5.26.79.5,1.54,1.07,2.23,1.7.95.93,2.08,1.67,3.31,2.18.8.33,1.65.49,2.51.47,1.51-.02,2.98-.5,4.21-1.37.56-.28,1.17-.42,1.8-.43,1.7,0,2.65,1.33,3.84,2.98.76,1.16,1.65,2.22,2.65,3.17,1.5,1.26,3.44,1.87,5.4,1.7h6.11c-.2-3.48-1.09-6.89-2.6-10.04h0Zm-178.31-15.91c-.49.64-1.28.98-2.08.9-.8.02-1.59-.2-2.27-.62-1.37-1.07-2.16-2.72-2.13-4.45-.12-.53.1-1.08.57-1.37.28-.09.58-.09.85,0,1.62.09,3.14.82,4.21,2.04,0,0,1.66,2.04.85,3.5Zm1.7-28.03c-.37.62-1.12.9-1.8.66-.62,0-1.18-1.04-1.52-1.66-.33-.62-.8-1.47-1.85-1.37h0c-.86.14-1.66.52-2.32,1.09l-2.23,1.7c-2.05,1.39-3.61,3.4-4.45,5.73l-.28,1.28c0,.81-.35,1.58-.95,2.13h-.52c-.31,0-.61-.1-.85-.28-.26-.18-.42-.48-.43-.8-.42-3.85,1.02-7.67,3.88-10.27,1.75-1.59,3.34-3.35,4.73-5.26.67-.93,1.4-1.81,2.18-2.65.57-.62,1.47,0,2.98,1.56,1.43,1.98,2.64,4.1,3.6,6.34.2.6.13,1.26-.19,1.8Zm33.47-47.06l-2.37,2.23c-2.91,2.42-5.48,5.2-7.67,8.29-.88,1.28-1.62,2.64-2.23,4.07,0,0-.24.47-.57.47-.14.05-.29.05-.43,0-.36-2.1-.15-4.26.62-6.25,2.09-4.88,5.48-9.08,9.8-12.17.52-.3,1.1-.47,1.7-.47.78-.07,1.53.37,1.85,1.09.4.97.11,2.09-.71,2.75h0Z"/>
  </g>
</svg>