<?xml version="1.0" encoding="UTF-8"?>
<svg id="Layer_2" data-name="Layer 2" xmlns="http://www.w3.org/2000/svg" xmlns:xlink="http://www.w3.org/1999/xlink" viewBox="0 0 1088.82 339.85">
  <defs>
    <style>
      .cls-1 {
        fill: none;
      }

      .cls-2 {
        fill: #fff;
      }

      .cls-3 {
        fill: #fedc00;
      }

      .cls-4 {
        fill: #149fda;
      }

      .cls-5 {
        fill: #1a447d;
      }

      .cls-6 {
        fill: #9eddf9;
        isolation: isolate;
        opacity: .4;
      }

      .cls-7 {
        fill: url(#Jive_2);
      }
    </style>
    <pattern id="Jive_2" data-name="Jive 2" x="0" y="0" width="108.34" height="109.64" patternTransform="translate(-456.28 -7510.23) rotate(-90) scale(6.39 -6.39)" patternUnits="userSpaceOnUse" viewBox="0 0 108.34 109.64">
      <g>
        <rect class="cls-1" x="0" y="0" width="108.34" height="109.64"/>
        <rect class="cls-1" x="0" y="0" width="108.34" height="109.64"/>
        <path class="cls-5" d="m87.47-34.7c.03.12.13.2.25.21,12.91.14,24.75,3.27,34,11.52-8-5.56-22.94-7.51-31.52-3.62-.13.05-.19.2-.13.33.04.1.14.16.24.15,10.68-.29,19.28,3,26,9-6.87.42-12.57,4.74-12.55,9.84,0,.12.08.22.2.25.11.02.23-.04.28-.14,1.12-2.49,4.75-3.79,8.58-2.88,4.18,1,7,4.18,6.3,7.16-.47,2-2.43,3.4-4.95,3.79-.13.02-.22.13-.22.26.01.12.11.22.23.24,1.1.11,2.22.11,3.32,0,6.49-.62,11.52-4.6,12-9.18,4.71.55,8.89,3.16,10.38,6.77.04.11.15.18.27.16.12-.02.21-.11.22-.23.37-4.75-1.26-7.84-5-10.86,5.58,2.2,11.82,2.01,17.25-.53.11-.05.17-.16.15-.28-.03-.11-.12-.2-.24-.21-4.44-.02-8.68-1.85-11.74-5.07,18.26,5.13,33.09-6.2,28-23.05-.04-.12-.15-.19-.27-.18-.12.01-.22.11-.23.23-.91,9.71-7.7,16.11-17.86,17.07,6.63-2.37,11.19-8.49,11.56-15.53,0-.12-.07-.23-.19-.26-.12-.03-.24.03-.3.14-2.55,5.63-7.99,9.41-14.16,9.81,6.34-2.58,10.4-8.6,11.57-16.42.02-.12-.05-.24-.17-.28-.12-.04-.25.02-.3.13-3.87,7.58-12.16,12.79-22.45,8.81-10.62-4.11-15.27-16.39-16.3-25-.02-.12-.12-.21-.24-.22-.12,0-.23.07-.26.19-3.72,15.69,3.58,31.95,16.64,38.84-7.1-2-13.44-6.26-17-13.35-8.3-1-14-3.87-16.86-9.24-.05-.11-.17-.16-.29-.13-.12.04-.2.15-.19.27.19,2.11.94,6.33,4.08,8.27-7,0-12.51.89-17.8,3-.14-.02-.28.07-.3.21h0Zm29.53-53.46c-.09.08-.22.08-.31,0-.09-.08-.11-.21-.05-.31,1.62-2.8.14-6.82-3-6.82-5.72,0-8.47,10.77-7.6,20.59,2.17-5.75,4-8,7.35-10.79.09-.08.23-.08.32,0,.09.07.12.2.07.31-4.11,7.35-6.15,15.67-5.9,24.09,1.46-6,3.19-9.32,8.13-14.38.09-.08.23-.08.32,0,.1.07.14.2.09.31-4.93,10.82-5.29,23.18-1,34.27.04.1.02.21-.06.28-.09.06-.2.06-.29,0-5.2-2.55-8.26-4.23-12.75-10.39,1.36-7.4.23-11.05-3.17-17.2,3.94,9.92,1.84,23.9-8.19,29.6-.11.06-.25.03-.32-.07-.08-.1-.08-.23,0-.33,4.58-4.75,6.18-11.64,4.16-17.93,1.53,10.39-7.6,19.12-17.78,19.12-9.6,0-16.15-7.51-15.61-14.94s5.44-11,9.67-12.5c.11-.04.24,0,.3.1.07.09.07.23,0,.32-5.61,5.69-6.38,16.49,3.58,19.76-5.86-5.06-3.69-16.83,5.69-17.73.12-.01.23.06.27.17.03.11-.01.23-.11.3-2.25,1.44-3.63,3.9-3.68,6.57,0,4.68,3.43,6.51,5.68,6.51,3.42,0,6.26-3.25,6.26-8.18,0-5.84-5.26-10.68-12-11.43s-12.78,2.15-15.75,6.46c-.07.1-.2.13-.31.08-.11-.05-.17-.17-.14-.29,2.33-9.18,11.65-14.73,20.83-12.4,2.19.55,4.24,1.54,6.05,2.89-6.61-7.5-17-7.6-25.72.09-.09.07-.23.07-.32,0-.1-.07-.13-.2-.07-.31,2.66-5.41,9.25-11.82,18.6-10.89,8.56.86,13.52,9,14.53,15.69.55-8.52-1.4-14.53-8.76-20.14-.1-.07-.13-.21-.07-.32.06-.11.18-.16.3-.13,6.78,2,12.23,5.43,15,12.55,0-6.17-2.14-12.38-7.53-16.52-.1-.07-.13-.2-.07-.31.05-.11.17-.16.29-.13,3.46,1,6.17,2.49,8.14,5.18,1.31-11.1,6.52-17.69,12.53-17.69,4.12,0,7.2,3,7.2,7.87-.08,3.6-1.86,6.94-4.8,9.02ZM216.23,3.45c-3.17,3.91-9.54,5.4-16.44,4,.47,3.9-.09,7.86-1.61,11.49-.05.13-.2.19-.33.14-.1-.04-.16-.15-.15-.26.37-8.77-4.62-15.85-13.45-18.91,6.91,4.75,8.93,14.19,5.64,19.06-.07.1-.2.14-.31.09-.11-.05-.17-.16-.15-.28.37-2.06-.61-4.68-2.72-6.72-2.9-2.82-6.84-3.45-8.81-1.43s-1.19,6,1.71,8.76c.96.96,2.12,1.69,3.39,2.17.11.05.18.16.17.28-.02.12-.11.21-.23.22-6.39.55-10.77-3.25-13.52-7.88s-7.57-8.41-13.21-7.67c-.12.01-.23-.06-.27-.17-.04-.11,0-.24.11-.3,2.93-1.9,6.59-2.29,9.86-1.05-5.79-4.91-14.05-7.74-21.84-5.23-.11.04-.23,0-.29-.1-.07-.09-.07-.22,0-.31,5.9-6.57,17.69-6.7,25.11-1.37-3-4.32-7.07-7.49-14.3-8.48-.11-.02-.2-.11-.22-.23,0-.11.06-.22.17-.26,8.29-3.08,16.6,0,23.44,8.21-2.85-6.45-8.16-11.5-14.76-14-.12-.04-.19-.16-.17-.28.02-.12.13-.21.25-.21,3.94-.08,7.48.86,12.26,3.57-3.46-5.66-2.69-15.66,2.44-22.27.07-.09.19-.12.3-.08.11.05.17.16.15.28-1.18,7.2,1.3,15.33,5.61,19.64-2.27-7.14.08-14.93,5.9-19.64.07-.06.16-.08.25-.05.09.04.15.12.17.21,1.23,9.41,11.77,19,20.6,19.77.14,0,.25.11.25.25s-.11.25-.25.25c-4.14.94-8.46.59-12.39-1,2.58,2.89,5.88,5.05,9.56,6.25.13.04.21.18.17.31-.03.1-.12.18-.23.18-4.52.27-9-.98-12.73-3.54,4.48,6.85,11.45,11.69,19.44,13.48.14.02.23.15.2.29,0,0,0,0,0,0,0,.13-.1.23-.22.24-11.92,1.3-21.75-3.32-28.22-11.92,1.64,4.9,6.36,9.76,12.94,12.62,5.85,2.55,11.85,2.95,16.42,1.51.11-.03.22,0,.29.1.04.08.03.18-.02.26h.04Zm-52.91-75.57c4.81,10.49,4.47,18.69.6,29-.06.13-.21.2-.34.14-.1-.04-.16-.13-.16-.24.63-12.62-2.82-21.65-10.29-27.8,8.25,9.85,4.35,29.56-8.83,29.56-9.58,0-17.51-8-19.45-17.53-.03-.12.04-.25.16-.29.12-.04.25,0,.31.11,2.84,4.76,7.4,7.85,12.45,7.85,8.14,0,10.54-6.46,10.54-11,0-6.18-4.92-11.34-8.7-11.34-2.72-.04-4.96,2.14-5,4.86,0,.02,0,.05,0,.07.15,3.81,2.71,7.09,6.37,8.16.12.04.2.16.18.28-.02.13-.12.22-.25.22-4.01.14-7.75-2.02-9.63-5.57-.37,2.59-.15,5.23.64,7.72.04.12-.01.24-.12.3-.11.06-.25.03-.32-.07-7.36-9.39-3.84-25.62,2-32.35-5.53,4-10.42,12.63-10.34,24.39,0,.12-.09.23-.21.25-.12.03-.24-.04-.28-.15-4.11-10.26-1.93-29.25,9.28-39.86-3.05-.47-6.17-.23-9.12.7-.12.03-.24-.02-.3-.12-.06-.11-.04-.24.06-.32,4.09-3.46,9.81-4.54,15.26-4.54-4.69,5.5-3.13,16.55,4.36,16.55,5.35,0,7.77-8.3,3.64-12.78-.07-.09-.07-.22,0-.31.06-.1.19-.14.3-.1,4.78,1.65,9.94,5.79,9.94,11s-4.81,9.39-11.8,9.05c8.82,2.5,18-.27,22.88-6.26.08-.09.21-.12.31-.06.11.05.17.17.13.29-2.79,10.71-12,15.2-23.43,13.7,9.28,3.76,23.25.48,29.42-7.31.07-.09.2-.12.3-.07.11.05.17.16.15.28-1.5,6.69-5.03,11.64-10.75,13.59h.04Z"/>
        <path class="cls-6" d="m189.67-52.83c-.03-.12-.13-.2-.25-.21-12.91-.14-24.75-3.27-34-11.52,8,5.56,22.94,7.51,31.53,3.62.1-.06.16-.17.14-.29-.04-.11-.14-.19-.26-.19-10.68.29-19.28-3-26-9,6.87-.42,12.57-4.74,12.55-9.84,0-.12-.08-.22-.2-.25-.08.02-.15.07-.18.15-1.12,2.48-4.75,3.78-8.58,2.88-4.18-1-7-4.19-6.3-7.17.47-2,2.43-3.4,5-3.79.12-.02.22-.12.22-.25,0-.13-.1-.23-.23-.25-1.1-.1-2.22-.1-3.32,0-6.49.62-11.51,4.6-11.95,9.18-4.71-.55-8.88-3.16-10.38-6.77-.04-.13-.18-.21-.31-.17-.11.03-.18.13-.18.24-.37,4.75,1.26,7.84,5,10.86-5.58-2.2-11.82-2.01-17.25.53-.13.07-.18.22-.11.35.04.08.12.13.21.14,4.44.02,8.68,1.85,11.73,5.07-18.26-5.13-33.09,6.2-28,23.05.04.12.15.19.27.18.12-.01.22-.11.23-.23.91-9.71,7.7-16.11,17.86-17.07-6.63,2.37-11.19,8.49-11.56,15.53,0,.12.07.23.19.26.12.03.25-.03.3-.14,2.55-5.63,7.99-9.41,14.16-9.81-6.34,2.58-10.4,8.6-11.57,16.42-.02.12.05.24.17.28.12.04.25-.02.3-.13,3.87-7.58,12.16-12.79,22.45-8.81,10.62,4.11,15.27,16.39,16.3,25,.02.12.12.21.24.23.12,0,.23-.08.26-.2,3.72-15.69-3.58-31.95-16.63-38.84,7.09,2,13.44,6.26,17,13.35,8.3,1,14,3.87,16.86,9.24.05.11.17.16.29.13.12-.04.2-.15.19-.27-.19-2.11-.95-6.33-4.08-8.27,7,0,12.51-.89,17.8-3,.06-.05.1-.14.09-.22ZM160.18.64c.09-.07.23-.07.32,0,.07.1.07.22,0,.32-1.62,2.79-.14,6.81,3.05,6.81,5.72,0,8.47-10.77,7.6-20.59-2.16,5.75-4,8-7.35,10.79-.09.08-.23.08-.32,0-.1-.07-.13-.21-.06-.31,4.1-7.35,6.14-15.68,5.89-24.09-1.46,6-3.19,9.32-8.13,14.38-.09.08-.23.08-.32,0-.1-.07-.14-.2-.09-.31,4.91-10.83,5.25-23.18.95-34.26-.04-.1-.01-.21.06-.29.09-.05.2-.05.29,0,5.2,2.55,8.26,4.23,12.75,10.39-1.36,7.4-.23,11.05,3.17,17.19-3.94-9.91-1.84-23.89,8.19-29.58.11-.07.25-.04.32.06.08.1.08.23,0,.33-4.58,4.75-6.18,11.64-4.16,17.93-1.53-10.39,7.6-19.12,17.78-19.12,9.6,0,16.15,7.51,15.61,14.94s-5.44,11-9.67,12.5c-.11.04-.24,0-.3-.1-.08-.09-.08-.22,0-.31,5.61-5.7,6.38-16.5-3.58-19.76,5.86,5,3.69,16.82-5.69,17.72-.12.01-.23-.06-.27-.17-.03-.11.01-.23.11-.3,2.25-1.44,3.63-3.9,3.68-6.57,0-4.67-3.43-6.51-5.68-6.51-3.42,0-6.26,3.25-6.26,8.18,0,5.84,5.26,10.68,12,11.43s12.78-2.15,15.75-6.46c.07-.1.2-.13.31-.08.11.05.17.17.14.29-2.34,9.17-11.67,14.71-20.84,12.38-2.15-.55-4.17-1.51-5.96-2.83,6.61,7.5,17,7.6,25.72-.09.09-.07.23-.07.32,0,.1.07.13.21.07.32-2.66,5.4-9.25,11.81-18.6,10.88-8.56-.86-13.52-9-14.53-15.69-.55,8.52,1.4,14.53,8.76,20.14.1.08.13.21.07.32-.06.11-.18.16-.3.13-6.78-2-12.23-5.43-15-12.54,0,6.16,2.14,12.37,7.53,16.51.1.07.13.2.07.31-.05.11-.17.16-.29.13-3.46-1-6.17-2.49-8.14-5.18-1.31,11.1-6.52,17.69-12.53,17.69-4.12,0-7.2-3-7.2-7.87.06-3.6,1.83-6.97,4.76-9.06ZM61-90.98c3.17-3.91,9.54-5.39,16.43-4-.48-3.9.06-7.85,1.57-11.48.06-.1.17-.16.29-.13.12.03.19.14.19.26-.37,8.76,4.62,15.84,13.45,18.9-6.93-4.75-8.93-14.19-5.64-19.06.07-.1.2-.14.31-.09.11.05.17.16.15.28-.37,2.06.61,4.68,2.71,6.72,2.91,2.82,6.85,3.45,8.82,1.43s1.19-6-1.71-8.76c-.98-.97-2.16-1.71-3.45-2.18-.09-.06-.13-.16-.12-.27.02-.12.11-.21.23-.22,6.39-.55,10.77,3.26,13.52,7.88s7.57,8.41,13.21,7.67c.12-.01.23.06.27.17.04.11,0,.24-.11.3-2.93,1.9-6.59,2.29-9.86,1.05,5.79,4.91,14.05,7.74,21.84,5.23.11-.03.22,0,.29.1.07.09.07.22,0,.31-5.9,6.57-17.69,6.7-25.1,1.37,3,4.32,7.06,7.49,14.29,8.48.11.02.2.12.22.23,0,.11-.06.22-.17.26-8.29,3.08-16.6,0-23.44-8.21,2.85,6.45,8.16,11.5,14.76,14,.12.04.19.16.17.28-.02.12-.13.21-.25.21-3.94.08-7.48-.86-12.26-3.57,3.51,5.69,2.74,15.64-2.37,22.26-.07.09-.19.12-.3.08-.11-.05-.17-.16-.15-.28,1.18-7.2-1.3-15.33-5.61-19.64,2.27,7.14-.08,14.93-5.9,19.64-.07.06-.16.08-.25.05-.09-.03-.15-.11-.17-.2-1.23-9.42-11.77-19-20.6-19.78-.14,0-.25-.11-.25-.25s.11-.25.25-.25c4.14-.94,8.46-.59,12.39,1-2.61-2.88-5.94-5.01-9.65-6.17-.12-.04-.19-.16-.17-.28.01-.12.11-.21.23-.22,4.51-.27,8.98.96,12.71,3.5-4.47-6.86-11.44-11.71-19.43-13.51-.12-.03-.2-.14-.19-.26,0-.12.1-.22.22-.24,11.92-1.3,21.75,3.32,28.22,11.92-1.64-4.9-6.36-9.76-12.94-12.62-5.85-2.54-11.85-2.95-16.42-1.51-.11.03-.22,0-.29-.1-.05-.1-.03-.23.06-.3ZM113.91-15.41c-4.81-10.49-4.47-18.68-.6-29.05.06-.13.21-.2.34-.14.1.04.16.14.16.24-.63,12.62,2.82,21.65,10.29,27.8-8.25-9.85-4.35-29.56,8.83-29.56,9.58,0,17.51,8,19.45,17.53.03.12-.04.25-.16.29-.11.04-.24,0-.3-.11-2.85-4.76-7.41-7.85-12.46-7.85-8.14,0-10.54,6.46-10.54,11,0,6.18,4.92,11.34,8.7,11.34,2.73.06,4.99-2.1,5.05-4.83,0-.03,0-.07,0-.1-.16-3.81-2.72-7.09-6.38-8.16-.12-.03-.2-.15-.18-.28.02-.12.12-.22.25-.22,4.01-.14,7.75,2.02,9.63,5.57.37-2.59.15-5.23-.64-7.72-.04-.12.01-.24.12-.3.11-.06.25-.03.32.07,7.36,9.39,3.84,25.62-2,32.35,5.53-4,10.42-12.63,10.34-24.39.01-.14.14-.25.28-.24.09,0,.17.06.21.14,4.11,10.26,1.93,29.25-9.28,39.86,3.05.47,6.17.23,9.12-.7.12-.03.24.02.3.12.06.11.04.24-.06.32-4.09,3.45-9.81,4.54-15.26,4.54,4.7-5.5,3.13-16.55-4.36-16.55-5.34,0-7.77,8.3-3.64,12.78.07.09.07.22,0,.31-.06.1-.19.14-.3.1-4.77-1.65-9.94-5.79-9.94-11s4.81-9.39,11.8-9c-8.82-2.5-18.05.27-22.88,6.26-.08.11-.23.14-.35.07-.1-.07-.13-.19-.09-.3,2.79-10.71,12-15.2,23.44-13.7-9.29-3.76-23.25-.49-29.43,7.31-.08.09-.2.12-.31.07-.1-.05-.16-.17-.14-.28,1.37-6.69,4.86-11.63,10.62-13.59h.05Z"/>
        <path class="cls-5" d="m-20.86-34.7c.02.12.12.21.24.21,12.91.14,24.76,3.27,34,11.52-8-5.56-22.94-7.51-31.52-3.62-.11.05-.17.17-.15.29.03.12.14.19.26.19,10.68-.29,19.28,3,26,9-6.87.42-12.57,4.74-12.55,9.84,0,.12.08.22.2.25.11.02.23-.04.28-.14,1.12-2.49,4.75-3.79,8.58-2.88,4.18,1,7,4.18,6.3,7.16-.47,2-2.43,3.4-4.95,3.79-.14,0-.25.11-.25.25s.11.25.25.25c1.1.1,2.21.1,3.31,0,6.49-.62,11.52-4.6,12-9.18,4.71.55,8.89,3.16,10.38,6.77.05.11.16.18.28.16.11-.02.2-.12.21-.23.38-4.75-1.26-7.84-5-10.86,5.58,2.2,11.82,2.01,17.25-.53.11-.05.17-.16.15-.28-.03-.11-.12-.2-.24-.21-4.44-.01-8.68-1.85-11.73-5.07,18.25,5.13,33.08-6.2,28-23.05-.04-.12-.15-.19-.27-.18-.12.01-.22.11-.23.23-.91,9.71-7.7,16.11-17.86,17.07,6.64-2.37,11.19-8.49,11.56-15.53.01-.14-.09-.26-.22-.27-.11-.01-.21.05-.26.15-2.55,5.63-7.99,9.4-14.16,9.81,6.33-2.58,10.39-8.6,11.57-16.42.02-.12-.06-.24-.18-.28-.11-.08-.27-.06-.35.05-.02.02-.03.05-.04.08-3.87,7.58-12.16,12.79-22.45,8.81-10.61-4.11-15.27-16.39-16.3-25-.02-.12-.12-.21-.24-.22-.12,0-.23.07-.26.19-3.75,15.62,3.57,31.88,16.63,38.77-7.1-2-13.44-6.26-17-13.35-8.29-1-14-3.87-16.86-9.24-.05-.11-.17-.16-.29-.13-.13.02-.23.14-.23.27.19,2.11,1,6.33,4.08,8.27-7,0-12.51.89-17.8,3-.11.05-.17.17-.14.29Zm29.48-53.47c-.09.08-.22.08-.31,0-.09-.08-.11-.21-.05-.31,1.62-2.8.14-6.82-3-6.82-5.72,0-8.47,10.77-7.6,20.59,2.17-5.75,4-8,7.35-10.79.09-.08.23-.08.32,0,.1.07.13.2.07.31-4.11,7.35-6.15,15.67-5.9,24.09,1.46-6,3.2-9.32,8.13-14.38.09-.08.23-.08.32,0,.1.07.14.2.09.31-4.92,10.83-5.28,23.18-1,34.27.04.1.02.21-.06.28-.09.06-.2.06-.29,0-5.2-2.55-8.26-4.23-12.75-10.39,1.36-7.4.23-11.05-3.17-17.2,3.94,9.92,1.84,23.9-8.19,29.6-.11.06-.25.03-.32-.07-.08-.1-.08-.23,0-.33,4.59-4.75,6.19-11.64,4.16-17.93,1.53,10.39-7.59,19.12-17.78,19.12-9.6,0-16.15-7.51-15.61-14.94.54-7.43,5.45-11,9.67-12.5.11-.04.24,0,.3.1.07.09.07.23,0,.32-5.61,5.69-6.38,16.49,3.58,19.76-5.86-5.06-3.69-16.83,5.69-17.73.12-.01.23.06.27.17.04.11,0,.24-.11.3-2.24,1.44-3.62,3.91-3.67,6.57,0,4.68,3.42,6.51,5.67,6.51,3.42,0,6.26-3.25,6.26-8.18,0-5.84-5.26-10.68-12-11.43-6.74-.75-12.78,2.15-15.75,6.46-.07.1-.2.13-.31.08-.11-.05-.17-.17-.14-.29,2.33-9.18,11.67-14.73,20.85-12.4,2.18.56,4.24,1.54,6.04,2.89-6.62-7.5-17-7.6-25.73.09-.09.07-.23.07-.32,0-.1-.07-.13-.2-.07-.31,2.66-5.41,9.25-11.82,18.6-10.89,8.56.86,13.52,9,14.53,15.69.55-8.52-1.4-14.53-8.76-20.14-.09-.08-.12-.21-.07-.32.06-.11.18-.16.3-.13,6.78,2,12.23,5.43,15.05,12.55,0-6.17-2.14-12.38-7.53-16.52-.1-.07-.13-.2-.07-.31.05-.11.17-.16.29-.13,3.46,1,6.18,2.49,8.14,5.18,1.26-11.1,6.48-17.69,12.49-17.69,4.12,0,7.2,3,7.2,7.87-.08,3.6-1.87,6.95-4.81,9.02ZM107.85,3.45c-3.16,3.91-9.54,5.4-16.43,4,.46,3.9-.09,7.86-1.61,11.49-.06.1-.18.16-.3.13-.11-.03-.19-.13-.19-.25.38-8.77-4.62-15.85-13.45-18.91,6.91,4.75,8.93,14.19,5.64,19.06-.06.12-.22.17-.34.1-.11-.06-.16-.18-.12-.29.37-2.06-.61-4.68-2.71-6.72-2.91-2.82-6.85-3.45-8.81-1.43s-1.2,6,1.7,8.76c.98.97,2.16,1.71,3.45,2.18.12.04.19.16.17.28-.02.12-.11.21-.23.22-6.39.57-10.77-3.26-13.52-7.89s-7.57-8.41-13.21-7.67c-.12.01-.23-.06-.27-.17-.04-.11,0-.24.11-.3,2.93-1.9,6.59-2.29,9.86-1.05C51.8.08,43.59-2.75,35.75-.24c-.11.04-.23,0-.29-.1-.07-.09-.07-.22,0-.31,5.91-6.57,17.69-6.7,25.11-1.37-3-4.32-7.07-7.49-14.3-8.48-.11-.02-.2-.12-.21-.23-.02-.11.05-.22.16-.26,8.29-3.08,16.6,0,23.44,8.21-2.85-6.45-8.16-11.5-14.76-14-.12-.04-.19-.16-.17-.28.02-.12.13-.21.25-.21,3.94-.08,7.49.86,12.26,3.57-3.5-5.69-2.74-15.64,2.37-22.26.08-.09.2-.12.31-.08.1.05.16.17.14.28-1.17,7.2,1.3,15.33,5.61,19.64-2.27-7.14.08-14.93,5.9-19.64.07-.06.17-.08.26-.05.08.04.14.12.16.21,1.23,9.41,11.77,19,20.6,19.77.14,0,.25.11.25.25s-.11.25-.25.25c-4.14.94-8.46.59-12.39-1,2.58,2.89,5.88,5.05,9.56,6.25.12.03.19.15.18.27-.02.12-.12.21-.24.22-4.51.25-8.98-1.01-12.7-3.58,4.47,6.86,11.44,11.71,19.43,13.51.12.03.2.14.2.26,0,.12-.11.23-.23.24-11.92,1.3-21.75-3.32-28.22-11.92,1.65,4.9,6.36,9.76,12.94,12.62,5.85,2.55,11.85,2.95,16.43,1.51.13-.04.27.03.32.16.03.08.01.18-.05.24h.03Zm-52.91-75.57c4.81,10.49,4.47,18.69.6,29-.05.12-.17.19-.29.17-.12-.03-.21-.14-.2-.27.62-12.62-2.83-21.65-10.3-27.8,8.25,9.85,4.35,29.56-8.83,29.56-9.58,0-17.51-8-19.45-17.53-.02-.14.09-.27.23-.29.09-.01.19.03.24.11,2.84,4.76,7.41,7.85,12.45,7.85,8.14,0,10.54-6.46,10.54-11,0-6.18-4.92-11.34-8.7-11.34-2.72-.04-4.96,2.14-5,4.86,0,.02,0,.05,0,.07.15,3.81,2.71,7.09,6.37,8.16.12.04.2.16.18.28-.02.13-.12.22-.25.22-4.01.14-7.75-2.02-9.63-5.57-.37,2.59-.15,5.23.64,7.72.04.12,0,.25-.12.3-.11.06-.25.03-.32-.07-7.35-9.39-3.83-25.62,2-32.35-5.53,4-10.42,12.63-10.34,24.39,0,.12-.08.23-.2.25-.12.02-.24-.04-.29-.15-4.17-10.21-1.99-29.2,9.22-39.81-3.05-.47-6.17-.23-9.12.7-.12.03-.24-.02-.3-.12-.06-.11-.04-.24.06-.32,4.09-3.46,9.81-4.54,15.26-4.54-4.69,5.5-3.13,16.55,4.36,16.55,5.35,0,7.77-8.3,3.65-12.78-.07-.09-.07-.22,0-.31.06-.1.19-.14.3-.1,4.78,1.65,9.94,5.79,9.94,11s-4.81,9.39-11.8,9.05c8.82,2.5,18-.27,22.88-6.26.09-.11.26-.12.37-.03.07.06.11.16.08.26-2.8,10.71-12,15.2-23.44,13.7,9.28,3.76,23.25.48,29.42-7.31.08-.09.2-.12.31-.07.1.05.16.17.14.28-1.4,6.64-4.9,11.59-10.66,13.54Z"/>
        <path class="cls-6" d="m81.33-52.83c-.02-.12-.13-.21-.25-.21-12.91-.14-24.75-3.27-34-11.52,8,5.56,22.94,7.51,31.53,3.62.11-.05.17-.17.14-.29-.03-.12-.14-.19-.26-.19-10.68.29-19.27-3-26-9,6.87-.42,12.57-4.74,12.56-9.84-.01-.14-.14-.25-.28-.24-.09,0-.17.06-.21.14-1.12,2.48-4.75,3.78-8.58,2.88-4.18-1-7-4.19-6.3-7.17.47-2,2.44-3.4,5-3.79.14,0,.25-.11.25-.25s-.11-.25-.25-.25c-1.1-.1-2.22-.1-3.32,0-6.49.62-11.51,4.6-12,9.18-4.71-.55-8.88-3.16-10.38-6.77-.04-.13-.18-.21-.31-.17-.11.03-.18.13-.18.24-.37,4.75,1.26,7.84,5,10.86-5.58-2.2-11.82-2.01-17.25.53-.11.06-.16.17-.14.29.03.11.12.19.24.2,4.44.02,8.68,1.85,11.73,5.07C9.82-74.61-5-63.28.12-46.43c.04.12.15.19.27.18.12-.01.22-.11.23-.23.92-9.71,7.7-16.11,17.86-17.07-6.64,2.37-11.19,8.49-11.56,15.53,0,.12.08.22.19.26.12.03.25-.03.3-.14,2.55-5.63,7.99-9.4,14.16-9.81-6.34,2.58-10.4,8.6-11.57,16.42-.02.12.05.24.17.28.12.04.25-.02.3-.13,3.87-7.58,12.16-12.79,22.45-8.81,10.62,4.11,15.27,16.39,16.3,25,.02.12.12.21.24.23.12,0,.23-.08.26-.2,3.72-15.69-3.58-31.95-16.63-38.84,7.09,2,13.44,6.26,17,13.35,8.3,1,14,3.87,16.86,9.24.06.11.18.16.3.13.11-.04.19-.15.18-.27-.18-2.11-.94-6.33-4.08-8.27,7,0,12.51-.89,17.8-3,.11-.03.18-.14.18-.25ZM51.84.64c.09-.07.23-.07.32,0,.07.1.07.22,0,.32-1.62,2.79-.14,6.81,3,6.81,5.72,0,8.47-10.77,7.6-20.59-2.16,5.75-4,8-7.35,10.79-.09.08-.23.08-.32,0-.1-.07-.13-.21-.06-.31,4.13-7.34,6.19-15.65,5.97-24.07-1.46,6-3.19,9.32-8.12,14.38-.1.08-.23.08-.33,0-.1-.07-.14-.2-.09-.31,4.93-10.82,5.29-23.17,1-34.26-.04-.1-.01-.21.06-.29.09-.05.2-.05.29,0,5.19,2.53,8.19,4.22,12.71,10.38-1.36,7.4-.23,11.05,3.17,17.19-3.94-9.91-1.84-23.89,8.19-29.58.11-.07.25-.04.32.06.08.09.08.24,0,.33-4.6,4.75-6.21,11.64-4.2,17.93-1.53-10.39,7.6-19.12,17.78-19.12,9.6,0,16.15,7.51,15.61,14.94s-5.44,11-9.67,12.5c-.11.04-.24,0-.3-.1-.07-.09-.07-.22,0-.31,5.61-5.7,6.38-16.5-3.58-19.76,5.86,5,3.69,16.82-5.69,17.72-.12.01-.23-.06-.26-.17-.04-.11,0-.23.1-.3,2.25-1.44,3.63-3.9,3.68-6.57,0-4.67-3.42-6.51-5.68-6.51-3.42,0-6.26,3.25-6.26,8.18,0,5.84,5.26,10.68,12,11.43s12.78-2.15,15.75-6.46c.07-.1.21-.13.32-.08.11.05.17.17.14.29-2.35,9.18-11.69,14.71-20.87,12.36-2.15-.55-4.16-1.51-5.94-2.82,6.61,7.5,17,7.6,25.72-.09.09-.07.23-.07.32,0,.1.08.13.21.08.32-2.67,5.4-9.26,11.81-18.61,10.88-8.56-.86-13.52-9-14.52-15.69-.56,8.52,1.39,14.53,8.75,20.14.11.1.12.26.02.37-.06.07-.15.1-.24.08-6.79-2-12.23-5.43-15.05-12.54,0,6.16,2.14,12.37,7.52,16.51.1.07.13.2.07.31-.05.11-.17.17-.29.13-3.45-1-6.17-2.49-8.14-5.18-1.31,11.1-6.52,17.69-12.52,17.69-4.13,0-7.21-3-7.21-7.87.07-3.61,1.86-6.98,4.81-9.06ZM-47.39-90.98c3.17-3.91,9.54-5.39,16.44-4-.47-3.9.09-7.86,1.61-11.49.06-.1.17-.16.29-.13.12.02.2.14.19.26-.37,8.76,4.62,15.84,13.45,18.9-6.91-4.75-8.92-14.19-5.64-19.06.07-.1.2-.14.31-.09.11.05.17.16.15.28-.37,2.06.61,4.68,2.72,6.72,2.9,2.82,6.85,3.45,8.81,1.43s1.19-6-1.71-8.76c-.98-.97-2.16-1.71-3.45-2.18-.11-.05-.18-.16-.17-.28.02-.12.11-.21.23-.22,6.39-.55,10.77,3.26,13.52,7.88s7.57,8.41,13.21,7.67c.12-.01.23.06.27.17.04.11,0,.24-.11.3-2.93,1.9-6.59,2.29-9.86,1.05,5.8,4.91,14.05,7.74,21.84,5.23.11-.03.22,0,.29.1.07.09.07.22,0,.31-5.91,6.57-17.69,6.7-25.11,1.37,3,4.32,7.06,7.49,14.29,8.48.11.02.2.12.22.23,0,.11-.06.22-.17.26-8.29,3.08-16.6,0-23.44-8.21,2.85,6.46,8.17,11.5,14.77,14,.11.04.18.16.16.28-.02.12-.13.21-.25.21-3.94.08-7.48-.86-12.26-3.57,3.51,5.69,2.74,15.64-2.37,22.26-.07.09-.19.12-.3.08-.11-.05-.17-.16-.15-.28,1.18-7.2-1.3-15.33-5.61-19.64,2.27,7.14-.08,14.93-5.9,19.64-.07.06-.16.08-.25.05-.09-.03-.15-.11-.17-.2-1.23-9.42-11.77-19-20.6-19.78-.12-.01-.22-.11-.23-.24,0-.12.08-.23.2-.26,4.14-.94,8.46-.59,12.39,1-2.59-2.86-5.9-4.99-9.58-6.15-.12-.04-.19-.16-.17-.28.01-.12.11-.21.23-.22,4.51-.28,8.99.95,12.73,3.5-4.47-6.86-11.44-11.71-19.43-13.51-.12-.03-.2-.14-.19-.26.01-.11.09-.2.19-.23,11.92-1.3,21.75,3.32,28.22,11.92-1.64-4.9-6.36-9.76-12.94-12.62-5.85-2.54-11.85-2.95-16.42-1.51-.11.03-.22,0-.29-.1-.06-.1-.04-.23.04-.31ZM5.52-15.41c-4.81-10.49-4.47-18.68-.6-29.05.06-.13.21-.2.34-.14.1.04.16.14.16.24-.62,12.62,2.82,21.65,10.3,27.8-8.25-9.85-4.36-29.56,8.82-29.56,9.58,0,17.51,8,19.45,17.53.02.12-.04.24-.15.29-.12.05-.25,0-.31-.11-2.85-4.76-7.41-7.85-12.46-7.85-8.14,0-10.54,6.46-10.54,11,0,6.18,4.92,11.34,8.71,11.34,2.73.03,4.97-2.15,5-4.88,0-.02,0-.03,0-.05-.16-3.81-2.72-7.09-6.38-8.16-.12-.03-.2-.15-.18-.28.02-.12.12-.22.25-.22,4.01-.14,7.75,2.02,9.63,5.57.4-2.58.2-5.22-.56-7.72-.04-.12.02-.25.13-.3.11-.06.24-.03.31.07,7.36,9.39,3.84,25.62-2,32.35,5.53-4,10.42-12.63,10.34-24.39,0-.12.09-.23.21-.25.12-.02.23.04.28.15,4.11,10.26,1.93,29.25-9.28,39.86,3.05.47,6.17.23,9.12-.7.12-.03.24.02.3.12.07.09.07.23,0,.32-4.1,3.45-9.82,4.54-15.27,4.54,4.7-5.5,3.14-16.55-4.35-16.55-5.35,0-7.78,8.3-3.65,12.78.08.09.08.22,0,.31-.06.1-.18.14-.29.1-4.78-1.65-10-5.79-10-11S17.66-1.64,24.65-1.25C15.83-3.75,6.65-.98,1.77,5.01c-.08.11-.23.14-.35.07-.1-.07-.13-.19-.09-.3,2.79-10.71,12-15.2,23.44-13.7C15.49-12.68,1.52-9.41-4.66-1.61c-.07.09-.2.12-.3.07-.11-.05-.17-.16-.14-.28C-3.73-8.51-.24-13.45,5.52-15.41Z"/>
        <path class="cls-5" d="m87.47,74.95c.03.11.13.2.25.2,12.91.14,24.75,3.27,34,11.52-8-5.56-22.94-7.51-31.52-3.62-.13.03-.22.16-.2.29.03.12.14.2.26.19,10.68-.29,19.28,3,26,9-6.87.42-12.57,4.74-12.55,9.84,0,.12.08.22.2.25.12.03.23-.03.28-.14,1.12-2.49,4.75-3.78,8.58-2.88,4.18,1,7,4.19,6.3,7.16-.47,2-2.43,3.41-4.95,3.79-.13.02-.22.13-.22.26.01.12.11.22.23.24,1.1.11,2.22.11,3.32,0,6.49-.62,11.52-4.6,12-9.18,4.71.55,8.89,3.16,10.38,6.78.06.13.22.18.35.12.08-.04.13-.11.14-.2.37-4.75-1.26-7.84-5-10.86,5.58,2.2,11.82,2.01,17.25-.53.11-.05.17-.16.15-.28-.03-.11-.12-.2-.24-.21-4.44-.02-8.68-1.85-11.74-5.07,18.26,5.14,33.09-6.2,28-23.05-.04-.12-.15-.19-.27-.18-.12.01-.22.11-.23.23-.91,9.71-7.7,16.12-17.86,17.08,6.63-2.37,11.19-8.5,11.56-15.54,0-.12-.07-.23-.19-.26-.12-.03-.24.03-.3.14-2.54,5.64-7.99,9.41-14.16,9.81,6.34-2.58,10.4-8.6,11.57-16.42.02-.12-.05-.24-.17-.28-.12-.04-.25.02-.3.13-3.87,7.58-12.16,12.79-22.45,8.81-10.62-4.11-15.27-16.39-16.3-25-.02-.12-.12-.21-.24-.22-.12,0-.23.07-.26.19-3.78,15.58,3.52,31.88,16.58,38.77-7.1-2-13.44-6.26-17-13.35-8.3-1-14-3.86-16.86-9.24-.05-.11-.17-.16-.29-.13-.12.04-.2.15-.19.27.19,2.11.94,6.33,4.08,8.27-7,0-12.51.89-17.8,3-.13.04-.21.17-.19.3Zm29.53-53.48c-.09.08-.22.08-.31,0-.09-.08-.11-.21-.05-.31,1.62-2.8.14-6.82-3-6.82-5.72,0-8.47,10.77-7.6,20.6,2.17-5.76,4-8.06,7.35-10.8.09-.08.23-.08.32,0,.1.08.13.21.07.32-4.11,7.34-6.15,15.67-5.9,24.08,1.46-6,3.19-9.32,8.13-14.38.09-.08.23-.08.32,0,.1.07.14.2.09.31-4.93,10.82-5.29,23.18-1,34.27.04.1.02.21-.06.28-.09.06-.2.06-.29,0-5.2-2.55-8.26-4.23-12.75-10.39,1.36-7.4.23-11-3.17-17.19,3.94,9.91,1.84,23.89-8.19,29.59-.11.06-.25.03-.32-.07-.08-.1-.08-.23,0-.33,4.6-4.77,6.18-11.69,4.13-17.99,1.53,10.44-7.6,19.17-17.77,19.17-9.6,0-16.15-7.51-15.61-14.94s5.44-11,9.67-12.5c.11-.04.24,0,.3.1.07.09.07.23,0,.32-5.61,5.69-6.38,16.49,3.58,19.76-5.94-5.06-3.73-16.83,5.65-17.73.12-.01.23.06.27.17.03.11-.01.23-.11.3-2.25,1.44-3.63,3.9-3.68,6.57,0,4.68,3.43,6.51,5.68,6.51,3.42,0,6.26-3.25,6.26-8.18,0-5.84-5.26-10.68-12-11.43s-12.78,2.15-15.75,6.46c-.07.1-.2.14-.31.09-.11-.05-.17-.18-.14-.3,2.33-9.18,11.65-14.73,20.83-12.4,2.19.55,4.24,1.54,6.05,2.89-6.61-7.5-17-7.6-25.72.09-.09.07-.23.07-.32,0-.1-.07-.13-.2-.07-.31,2.66-5.41,9.25-11.82,18.6-10.89,8.56.86,13.52,9,14.53,15.69.55-8.52-1.4-14.53-8.76-20.14-.1-.07-.13-.21-.07-.32.06-.11.18-.16.3-.13,6.78,2,12.23,5.43,15,12.55,0-6.16-2.14-12.38-7.53-16.51-.11-.1-.12-.26-.02-.37.06-.07.15-.1.24-.08,3.46,1,6.17,2.49,8.14,5.19,1.31-11.1,6.52-17.7,12.53-17.7,4.12,0,7.2,3,7.2,7.88-.07,3.59-1.82,6.93-4.74,9.02Zm99.19,91.62c-3.17,3.91-9.54,5.4-16.44,4,.47,3.9-.09,7.86-1.61,11.49-.05.11-.17.17-.29.14-.11-.04-.19-.14-.19-.26.34-8.82-4.66-15.82-13.45-18.92,6.91,4.75,8.93,14.19,5.64,19.06-.07.1-.2.14-.31.1-.11-.05-.17-.16-.15-.28.37-2.06-.61-4.69-2.72-6.73-2.9-2.81-6.84-3.45-8.81-1.43-1.97,2.02-1.19,6,1.71,8.76.98.96,2.15,1.71,3.43,2.19.11.04.18.15.17.27-.02.12-.11.21-.23.22-6.39.55-10.77-3.25-13.52-7.88-2.75-4.63-7.57-8.41-13.21-7.67-.12.02-.24-.05-.27-.17-.04-.11,0-.24.11-.3,2.94-1.87,6.6-2.24,9.86-1-5.77-4.96-14.03-7.79-21.82-5.28-.11.04-.23,0-.29-.1-.07-.09-.07-.22,0-.31,5.9-6.56,17.69-6.69,25.11-1.37-3-4.32-7.07-7.49-14.3-8.48-.11-.02-.2-.11-.22-.22-.01-.12.06-.23.17-.27,8.29-3.08,16.6.05,23.44,8.22-2.85-6.45-8.16-11.5-14.76-14-.12-.04-.19-.16-.17-.28.02-.12.13-.21.25-.21,3.94-.08,7.48.86,12.26,3.57-3.48-5.71-2.71-15.66,2.42-22.31.07-.09.2-.12.3-.07.11.04.17.16.15.27-1.18,7.2,1.3,15.33,5.61,19.64-2.27-7.14.08-14.93,5.9-19.64.08-.04.17-.04.25,0,.09.04.15.12.17.21,1.23,9.42,11.77,19,20.6,19.77.12.01.22.12.23.24,0,.12-.08.24-.2.26-4.14.94-8.46.59-12.39-1,2.57,2.9,5.87,5.05,9.56,6.25.13.04.21.18.17.31-.03.1-.12.18-.23.18-4.52.27-9-.98-12.73-3.54,4.47,6.84,11.43,11.67,19.41,13.46.12.02.21.14.2.26,0,.13-.1.23-.22.24-11.93,1.3-21.78-3.32-28.23-11.92,1.64,4.9,6.36,9.76,12.94,12.62,5.85,2.55,11.85,2.95,16.42,1.51.11-.03.22,0,.29.1.06.09.06.21,0,.3Zm-52.91-75.57c4.81,10.49,4.47,18.69.6,29.06-.05.11-.17.18-.29.16-.13-.03-.21-.14-.21-.27.63-12.62-2.82-21.65-10.29-27.8,8.25,9.85,4.35,29.56-8.83,29.56-9.58,0-17.51-8-19.45-17.53-.03-.12.04-.24.16-.28.11-.04.24,0,.31.1,2.84,4.76,7.4,7.85,12.45,7.85,8.14,0,10.54-6.46,10.54-11,0-6.19-4.92-11.35-8.7-11.35-2.73-.03-4.97,2.15-5,4.88,0,.02,0,.03,0,.05.15,3.81,2.71,7.1,6.37,8.16.12.04.2.16.18.28-.02.13-.12.22-.25.22-4.01.15-7.76-2.02-9.63-5.57-.37,2.59-.15,5.23.64,7.73.04.11-.01.24-.12.29-.11.06-.24.03-.32-.06-7.36-9.4-3.84-25.63,2-32.36-5.59,4-10.44,12.64-10.44,24.4,0,.12-.09.23-.21.25-.12.03-.24-.04-.28-.15-4.11-10.25-1.93-29.25,9.28-39.85-3.05-.48-6.17-.24-9.12.69-.12.03-.24-.02-.3-.12-.06-.11-.04-.24.06-.32,4.09-3.45,9.81-4.54,15.26-4.54-4.69,5.5-3.13,16.56,4.36,16.56,5.35,0,7.77-8.3,3.64-12.79-.07-.09-.07-.22,0-.31.07-.1.19-.14.3-.1,4.78,1.66,9.94,5.79,9.94,11s-4.81,9.39-11.8,9.05c8.82,2.5,18-.27,22.88-6.25.07-.09.2-.12.31-.07.11.05.17.17.13.29-2.79,10.72-12,15.2-23.43,13.71,9.28,3.75,23.25.48,29.42-7.31.07-.1.19-.13.3-.08.11.05.17.16.15.28-1.36,6.66-4.89,11.59-10.61,13.54Z"/>
        <path class="cls-6" d="m189.67,56.81c-.03-.12-.13-.2-.25-.21-12.91-.13-24.75-3.27-34-11.51,8,5.55,22.94,7.51,31.53,3.62.1-.06.16-.17.14-.29-.03-.12-.14-.2-.26-.2-10.68.29-19.28-3-26-9,6.87-.43,12.57-4.74,12.55-9.85,0-.12-.08-.22-.2-.25-.12-.02-.23.04-.28.15-1.12,2.49-4.75,3.78-8.58,2.88-4.18-1-7-4.19-6.3-7.17.47-2,2.43-3.4,5-3.79.13-.01.23-.12.22-.25,0-.13-.1-.23-.23-.25-1.1-.1-2.22-.1-3.32,0-6.49.62-11.51,4.6-11.95,9.18-4.71-.54-8.88-3.16-10.38-6.77-.04-.11-.15-.17-.27-.16-.12.02-.21.12-.22.24-.37,4.75,1.26,7.83,5,10.85-5.6-2.19-11.85-1.97-17.28.61-.11.05-.17.16-.14.28.02.11.12.2.24.2,4.44.02,8.67,1.85,11.73,5.07-18.26-5.13-33.09,6.2-28,23.05.04.12.15.19.27.18.12,0,.22-.11.23-.23.91-9.71,7.7-16.11,17.86-17.07-6.62,2.38-11.16,8.5-11.52,15.52,0,.12.07.23.19.27.12.02.24-.04.3-.15,2.55-5.63,7.99-9.41,14.16-9.81-6.34,2.58-10.4,8.6-11.57,16.42-.02.12.05.24.17.28.12.04.25-.01.3-.13,3.87-7.6,12.19-12.81,22.45-8.88,10.62,4.11,15.27,16.39,16.3,25,0,.14.11.25.25.25s.25-.11.25-.25c3.72-15.69-3.58-32-16.63-38.84,7.09,2,13.44,6.26,17,13.36,8.3,1,14,3.86,16.86,9.24.06.1.18.15.29.12.12-.03.19-.14.19-.26-.19-2.11-.95-6.33-4.08-8.28,6.07.19,12.12-.83,17.8-3,.08-.02.15-.09.18-.17Zm-29.49,53.47c.09-.07.23-.07.32,0,.07.1.07.22,0,.32-1.62,2.79-.14,6.81,3.05,6.81,5.72,0,8.47-10.77,7.6-20.59-2.16,5.75-4,8-7.35,10.79-.09.08-.23.08-.32,0-.1-.07-.13-.21-.06-.31,4.1-7.35,6.14-15.68,5.89-24.09-1.46,6-3.19,9.32-8.13,14.38-.09.09-.23.09-.32,0-.1-.07-.14-.2-.09-.31,4.91-10.83,5.25-23.18.95-34.26-.05-.13.02-.28.15-.34.06-.02.14-.02.2,0,5.2,2.55,8.26,4.23,12.75,10.39-1.36,7.4-.23,11,3.17,17.2-3.94-9.92-1.84-23.9,8.19-29.59.11-.07.25-.04.32.06.08.1.08.23,0,.33-4.58,4.75-6.18,11.64-4.16,17.93-1.5-10.37,7.66-19.06,17.81-19.06,9.6,0,16.15,7.5,15.61,14.94s-5.44,11-9.67,12.49c-.11.04-.24,0-.3-.1-.08-.09-.08-.22,0-.31,5.61-5.7,6.38-16.5-3.58-19.76,5.86,5,3.69,16.83-5.69,17.72-.12.01-.23-.06-.27-.17-.03-.11.01-.23.11-.29,2.24-1.45,3.62-3.91,3.68-6.58,0-4.67-3.43-6.51-5.68-6.51-3.42,0-6.26,3.26-6.26,8.18,0,5.84,5.26,10.68,12,11.43s12.78-2.15,15.75-6.45c.08-.11.23-.14.35-.07.09.06.13.17.1.27-2.32,9.17-11.63,14.73-20.81,12.41-2.2-.56-4.26-1.54-6.07-2.9,6.61,7.5,17,7.61,25.72-.09.09-.07.23-.07.32,0,.1.07.13.21.07.32-2.66,5.4-9.25,11.82-18.6,10.88-8.56-.85-13.52-9-14.53-15.69-.55,8.52,1.4,14.54,8.76,20.14.1.08.13.21.07.32-.05.11-.18.17-.3.13-6.78-2-12.23-5.42-15-12.54,0,6.16,2.14,12.37,7.53,16.51.1.07.13.2.07.31-.05.11-.17.17-.29.13-3.46-1-6.17-2.49-8.14-5.18-1.31,11.1-6.52,17.69-12.53,17.69-4.12,0-7.2-3-7.2-7.87.08-3.6,1.87-6.95,4.81-9.03ZM61,18.64c3.17-3.9,9.54-5.39,16.43-4-.48-3.89.06-7.83,1.57-11.45.05-.11.17-.17.29-.14.11.04.19.14.19.26-.37,8.76,4.62,15.84,13.45,18.91-6.93-4.76-8.93-14.2-5.64-19.07.07-.1.2-.14.31-.09.11.05.17.16.15.28-.37,2.06.61,4.68,2.71,6.72,2.91,2.82,6.85,3.46,8.82,1.43s1.19-5.94-1.71-8.76c-.98-.96-2.16-1.71-3.45-2.18-.11-.04-.18-.15-.17-.27.01-.12.11-.21.23-.22,6.39-.56,10.77,3.25,13.52,7.87s7.57,8.41,13.21,7.67c.12-.01.23.06.27.17.04.11,0,.24-.11.3-2.93,1.9-6.59,2.29-9.86,1.06,5.79,4.9,14.05,7.74,21.84,5.22.11-.03.23.01.29.11.07.09.07.21,0,.3-5.9,6.57-17.69,6.7-25.1,1.38,3,4.31,7.06,7.48,14.29,8.47.11.02.2.12.22.23,0,.11-.06.22-.17.26-8.29,3.08-16.6,0-23.44-8.21,2.84,6.46,8.16,11.5,14.76,14,.12.04.19.16.17.28-.02.12-.13.21-.25.21-3.94.08-7.48-.86-12.26-3.57,3.51,5.69,2.74,15.64-2.37,22.26-.07.09-.19.12-.3.08-.11-.05-.17-.16-.15-.28,1.18-7.2-1.3-15.32-5.61-19.64,2.26,7.14-.08,14.94-5.9,19.65-.08.04-.17.04-.25,0-.09-.03-.15-.11-.17-.2-1.23-9.42-11.77-19-20.6-19.78-.12-.01-.22-.11-.23-.23,0-.13.08-.24.2-.27,4.14-.94,8.46-.59,12.39,1-2.59-2.87-5.89-4.99-9.57-6.16-.11-.04-.19-.15-.17-.27,0-.12.11-.22.23-.23,4.52-.26,9,.98,12.73,3.54-4.47-6.87-11.45-11.71-19.45-13.51-.12-.03-.2-.14-.19-.26,0-.12.1-.22.22-.24,11.92-1.3,21.75,3.32,28.22,11.92-1.59-4.9-6.36-9.75-12.94-12.62-5.85-2.54-11.85-2.93-16.42-1.51-.11.04-.23,0-.29-.1-.06-.11-.03-.24.06-.32Zm52.91,75.57c-4.81-10.48-4.47-18.68-.6-29.05.06-.13.21-.2.34-.14.1.04.16.14.16.24-.63,12.62,2.82,21.65,10.29,27.81-8.25-9.86-4.35-29.56,8.83-29.56,9.58,0,17.51,8,19.45,17.52.03.12-.04.25-.16.29-.11.04-.24,0-.3-.11-2.85-4.76-7.41-7.85-12.46-7.85-8.14,0-10.54,6.47-10.54,11,0,6.18,4.92,11.34,8.7,11.34,2.73.06,4.99-2.1,5.05-4.83,0-.03,0-.06,0-.09-.17-3.81-2.76-7.09-6.43-8.14-.12-.03-.2-.15-.18-.28.02-.12.12-.22.25-.22,4.01-.14,7.75,2.02,9.63,5.57.37-2.59.15-5.23-.64-7.72-.04-.12.01-.24.12-.3.11-.06.25-.03.32.07,7.36,9.39,3.84,25.62-2,32.36,5.53-4,10.42-12.64,10.34-24.4,0-.12.09-.23.21-.25.12-.02.24.05.28.16,4.11,10.25,1.93,29.24-9.28,39.85,3.05.47,6.17.23,9.12-.69.11-.04.24,0,.3.11.06.11.04.24-.06.32-4.09,3.46-9.81,4.54-15.26,4.54,4.7-5.5,3.13-16.55-4.36-16.55-5.34,0-7.77,8.3-3.64,12.78.07.09.07.22,0,.31-.06.1-.19.14-.3.1-4.77-1.65-9.94-5.79-9.94-11s4.81-9.4,11.8-9.06c-8.82-2.5-18.05.27-22.88,6.26-.07.07-.18.08-.27.04-.11-.05-.17-.17-.13-.29,2.79-10.71,12-15.2,23.44-13.7-9.29-3.76-23.25-.48-29.43,7.31-.08.09-.2.12-.31.07-.1-.05-.16-.17-.14-.28,1.38-6.62,4.87-11.56,10.63-13.52l.05-.02Z"/>
        <path class="cls-5" d="m-20.86,74.95c.02.11.12.2.24.2,12.91.14,24.76,3.27,34,11.52-8-5.56-22.94-7.51-31.52-3.62-.11.05-.17.17-.15.29.03.12.14.2.26.19,10.68-.29,19.28,3,26,9-6.92.39-12.62,4.71-12.6,9.81,0,.12.08.22.2.25.12.03.23-.03.28-.14,1.15-2.49,4.75-3.81,8.58-2.88,4.18,1,7,4.19,6.3,7.16-.47,2.02-2.43,3.41-4.95,3.79-.13.02-.22.13-.21.26,0,.13.1.23.23.24,1.1.11,2.21.11,3.31,0,6.49-.62,11.52-4.6,12-9.18,4.66.55,8.89,3.16,10.33,6.8.05.11.16.17.28.15.11-.02.2-.12.21-.23.38-4.75-1.26-7.84-5-10.86,5.58,2.2,11.82,2.01,17.25-.53.11-.05.17-.16.15-.28-.03-.11-.12-.2-.24-.21-4.44-.01-8.68-1.85-11.73-5.07,18.25,5.14,33.08-6.2,28-23.05-.04-.12-.15-.19-.27-.18-.12.01-.22.11-.23.23-.93,9.69-7.72,16.1-17.86,17.03,6.62-2.38,11.16-8.49,11.54-15.51.01-.14-.09-.26-.22-.27-.11-.01-.21.05-.26.15-2.55,5.63-7.99,9.4-14.16,9.81,6.33-2.58,10.39-8.6,11.57-16.42.02-.12-.06-.24-.18-.28-.12-.04-.25.02-.3.13-3.87,7.58-12.16,12.79-22.45,8.81-10.61-4.11-15.27-16.39-16.3-25-.02-.12-.12-.21-.24-.22-.12,0-.23.07-.26.19-3.74,15.61,3.58,31.91,16.64,38.8-7.1-2-13.44-6.26-17-13.35-8.29-1-14-3.86-16.86-9.24-.05-.11-.17-.16-.29-.13-.13.02-.23.14-.23.27.19,2.11,1,6.33,4.08,8.27-7,0-12.51.89-17.8,3-.11.05-.17.18-.14.3ZM8.62,21.47c-.09.08-.22.08-.31,0-.09-.08-.11-.21-.05-.31,1.62-2.8.14-6.82-3-6.82C-.46,14.34-3.21,25.11-2.34,34.94-.17,29.18,1.66,26.88,5.01,24.14c.09-.08.23-.08.32,0,.1.07.13.21.07.32C1.28,31.79-.78,40.11-.55,48.52c1.46-6,3.2-9.32,8.13-14.38.09-.08.23-.08.32,0,.09.06.13.17.1.28-4.91,10.81-5.27,23.14-1,34.22.09.09.09.24,0,.33-.09.06-.2.06-.29,0-5.22-2.51-8.28-4.19-12.77-10.33,1.36-7.4.23-11-3.17-17.19,3.94,9.91,1.84,23.89-8.19,29.59-.11.06-.25.03-.32-.07-.08-.1-.08-.23,0-.33,4.62-4.76,6.23-11.69,4.17-18,1.57,10.44-7.59,19.17-17.78,19.17-9.6,0-16.15-7.51-15.61-14.94.54-7.43,5.45-11,9.67-12.5.11-.04.24,0,.3.1.07.09.07.23,0,.32-5.61,5.69-6.38,16.49,3.58,19.76-5.86-5.06-3.69-16.83,5.69-17.73.12-.01.23.06.27.17.04.11,0,.24-.11.3-2.24,1.44-3.62,3.91-3.67,6.57,0,4.68,3.42,6.51,5.67,6.51,3.42,0,6.26-3.25,6.26-8.18,0-5.84-5.26-10.68-12-11.43s-12.78,2.15-15.75,6.46c-.07.1-.2.14-.31.09-.11-.06-.17-.18-.14-.3,2.33-9.18,11.67-14.73,20.85-12.4,2.18.56,4.24,1.54,6.04,2.89-6.62-7.5-17-7.6-25.73.09-.09.07-.23.07-.32,0-.1-.07-.13-.2-.07-.31,2.66-5.41,9.25-11.82,18.6-10.89,8.56.86,13.52,9,14.53,15.69.55-8.52-1.4-14.53-8.76-20.14-.09-.08-.12-.21-.07-.32.06-.11.18-.16.3-.13,6.78,2,12.23,5.43,15.05,12.55,0-6.16-2.14-12.38-7.53-16.51-.1-.07-.13-.21-.07-.32.05-.11.17-.16.29-.13,3.46,1,6.18,2.49,8.14,5.19C-5,11.18.22,4.58,6.23,4.58c4.12,0,7.2,3,7.2,7.88-.09,3.6-1.87,6.94-4.81,9.01Zm99.23,91.62c-3.16,3.91-9.54,5.4-16.43,4,.46,3.9-.09,7.86-1.61,11.49-.06.11-.18.16-.3.14-.11-.04-.19-.14-.19-.26.38-8.82-4.62-15.82-13.45-18.92,6.91,4.75,8.93,14.19,5.64,19.1-.07.1-.2.14-.31.1-.11-.05-.17-.16-.15-.28.37-2.06-.61-4.69-2.71-6.73-2.91-2.81-6.85-3.45-8.81-1.43-1.96,2.02-1.2,6,1.7,8.76.98.97,2.16,1.71,3.45,2.19.11.04.19.15.17.27-.02.12-.11.21-.23.22-6.39.55-10.77-3.25-13.52-7.88-2.75-4.63-7.57-8.45-13.21-7.71-.12.02-.24-.05-.27-.17-.04-.11,0-.24.11-.3,2.94-1.87,6.6-2.24,9.86-1-5.79-4.96-14.04-7.79-21.84-5.28-.11.04-.23,0-.29-.1-.07-.09-.07-.22,0-.31,5.94-6.56,17.72-6.69,25.14-1.35-3-4.32-7.07-7.49-14.3-8.48-.11-.02-.2-.11-.21-.22-.02-.12.05-.23.16-.27,8.29-3.08,16.6.05,23.44,8.22-2.85-6.45-8.16-11.5-14.76-14-.12-.04-.19-.16-.17-.28.02-.12.13-.21.25-.21,3.94-.08,7.49.86,12.26,3.57-3.5-5.73-2.74-15.68,2.37-22.33.1-.1.26-.1.36,0,.1.05.16.16.14.27-1.17,7.2,1.3,15.33,5.61,19.64-2.27-7.14.08-14.93,5.9-19.64.08-.04.18-.04.26,0,.08.04.14.12.16.21,1.23,9.42,11.77,19,20.6,19.77.13.01.23.11.23.24.01.13-.08.24-.2.26-4.14.94-8.46.59-12.39-1,2.57,2.9,5.87,5.05,9.56,6.25.12.03.19.15.18.27-.02.12-.12.21-.24.22-4.56.25-9.07-1.04-12.81-3.66,4.47,6.87,11.46,11.72,19.46,13.51.12.03.2.14.2.26,0,.12-.11.23-.23.24-11.92,1.3-21.75-3.32-28.22-11.92,1.65,4.9,6.36,9.76,12.94,12.62,5.85,2.55,11.85,2.95,16.43,1.46.11-.03.22.01.28.1.09.1.09.26,0,.35ZM54.94,37.52c4.81,10.49,4.47,18.69.6,29.06-.05.11-.17.18-.29.16-.12-.03-.21-.14-.2-.27.62-12.62-2.83-21.65-10.3-27.8,8.25,9.85,4.35,29.56-8.83,29.56-9.58,0-17.51-8-19.45-17.53-.02-.12.05-.24.16-.28.11-.04.24,0,.31.1,2.84,4.76,7.41,7.85,12.45,7.85,8.14,0,10.54-6.46,10.54-11,0-6.19-4.92-11.35-8.7-11.35-2.73-.03-4.97,2.15-5,4.88,0,.02,0,.03,0,.05.15,3.81,2.71,7.1,6.37,8.16.12.04.2.16.18.28-.02.13-.12.22-.25.22-4.01.14-7.75-2.02-9.63-5.57-.37,2.59-.15,5.23.64,7.73.04.11,0,.24-.12.29-.11.06-.24.03-.32-.06-7.39-9.36-3.87-25.62,1.9-32.36-5.49,4-10.38,12.64-10.3,24.4,0,.12-.08.23-.2.25-.12.02-.24-.04-.29-.15-4.11-10.25-1.93-29.25,9.28-39.85-3.05-.48-6.17-.24-9.12.69-.12.03-.24-.02-.3-.12-.06-.11-.04-.24.06-.32C18.22,1.09,23.94,0,29.39,0c-4.69,5.5-3.13,16.56,4.36,16.56,5.35,0,7.77-8.3,3.65-12.79-.07-.09-.07-.22,0-.31.07-.09.19-.13.3-.1,4.78,1.66,9.94,5.79,9.94,11s-4.81,9.39-11.8,9.05c8.82,2.5,18-.27,22.88-6.25.1-.11.26-.12.37-.02.07.06.1.15.08.24-2.8,10.72-12,15.2-23.44,13.71,9.27,3.77,23.27.5,29.39-7.29.07-.1.2-.13.31-.08.1.05.16.17.14.28-1.37,6.64-4.87,11.57-10.63,13.52Z"/>
        <path class="cls-6" d="m81.33,56.81c-.02-.12-.13-.21-.25-.21-12.91-.13-24.75-3.27-34-11.51,8,5.55,22.94,7.51,31.53,3.62.13-.07.18-.22.11-.35-.04-.09-.13-.14-.23-.14-10.68.29-19.27-3-26-9,6.87-.43,12.57-4.74,12.56-9.85-.01-.14-.14-.25-.28-.24-.09,0-.17.06-.21.14-1.12,2.49-4.75,3.78-8.58,2.88-4.18-1-7-4.19-6.3-7.17.47-2,2.44-3.4,5-3.79.13-.01.23-.12.22-.25,0-.13-.1-.24-.23-.25-1.1-.1-2.22-.1-3.32,0-6.49.62-11.51,4.6-12,9.18-4.71-.54-8.88-3.16-10.38-6.77-.04-.11-.15-.17-.27-.16-.12.02-.21.12-.22.24-.37,4.75,1.26,7.83,5,10.85-5.58-2.18-11.82-1.96-17.23.61-.13.05-.19.2-.13.33.04.09.13.15.23.15,4.44.02,8.67,1.85,11.73,5.07C9.82,35.03-5,46.36.12,63.21c.04.12.15.19.27.18.12,0,.22-.11.23-.23.92-9.71,7.7-16.11,17.86-17.07-6.64,2.37-11.2,8.51-11.56,15.55,0,.12.08.23.19.27.12.02.24-.04.3-.15,2.55-5.63,7.99-9.4,14.16-9.81-6.34,2.58-10.4,8.6-11.57,16.42-.02.12.05.24.17.28.12.04.25-.01.3-.13,3.87-7.6,12.16-12.81,22.45-8.88,10.62,4.11,15.27,16.39,16.3,25,.02.12.12.22.24.23.12,0,.23-.08.26-.2,3.72-15.69-3.58-32-16.63-38.84,7.09,2,13.44,6.26,17,13.36,8.3,1,14,3.86,16.86,9.24.06.1.18.15.3.12.11-.04.19-.14.18-.26-.18-2.11-.94-6.33-4.08-8.28,6.07.19,12.12-.83,17.8-3,.09-.03.16-.11.18-.2Zm-29.49,53.47c.09-.07.23-.07.32,0,.07.1.07.22,0,.32-1.62,2.79-.14,6.81,3,6.81,5.84.02,8.56-10.77,7.69-20.57-2.16,5.75-4,8-7.35,10.79-.09.08-.23.08-.32,0-.1-.07-.13-.21-.06-.31,4.1-7.35,6.13-15.68,5.88-24.09-1.46,6-3.19,9.32-8.12,14.38-.09.08-.24.08-.33,0-.1-.07-.14-.2-.09-.31,4.93-10.82,5.29-23.17,1-34.26-.05-.13.02-.28.15-.34.06-.02.14-.02.2,0,5.19,2.58,8.19,4.26,12.71,10.42-1.36,7.4-.23,11,3.17,17.2-3.94-9.92-1.84-23.9,8.19-29.59.11-.07.25-.04.32.06.08.09.08.24,0,.33-4.6,4.75-6.21,11.64-4.2,17.93-1.5-10.42,7.63-19.11,17.81-19.11,9.6,0,16.15,7.5,15.61,14.94s-5.44,11-9.67,12.49c-.11.04-.24,0-.3-.1-.07-.09-.07-.22,0-.31,5.61-5.7,6.38-16.5-3.58-19.76,5.86,5,3.69,16.83-5.69,17.72-.12.01-.23-.06-.26-.17-.04-.11,0-.23.1-.29,2.24-1.45,3.62-3.91,3.68-6.58,0-4.67-3.42-6.51-5.68-6.51-3.42,0-6.26,3.26-6.26,8.18,0,5.84,5.26,10.68,12,11.43s12.78-2.15,15.75-6.45c.06-.13.2-.19.33-.13s.19.2.13.33c-2.32,9.18-11.65,14.73-20.82,12.41-2.19-.56-4.25-1.54-6.07-2.9,6.61,7.5,17,7.61,25.72-.09.09-.07.23-.07.32,0,.1.08.13.21.08.32-2.62,5.39-9.2,11.81-18.56,10.87-8.56-.85-13.52-9-14.52-15.69-.56,8.52,1.39,14.54,8.75,20.14.1.07.13.21.07.32-.05.11-.17.17-.29.13-6.79-2-12.23-5.42-15.05-12.54,0,6.16,2.14,12.37,7.52,16.51.1.07.13.2.07.31-.05.11-.18.15-.29.11-3.45-1-6.17-2.47-8.14-5.16-1.31,11.1-6.52,17.69-12.52,17.69-4.13,0-7.21-3-7.21-7.87.09-3.6,1.87-6.94,4.81-9.02ZM-47.39,18.64c3.17-3.9,9.54-5.39,16.44-4-.47-3.9.09-7.86,1.61-11.48.05-.11.17-.17.29-.14.12.03.2.14.19.26-.37,8.76,4.62,15.84,13.45,18.91-6.91-4.76-8.92-14.2-5.64-19.07.07-.1.2-.14.31-.09.11.05.17.16.15.28-.37,2.06.61,4.68,2.72,6.72,2.9,2.82,6.85,3.46,8.81,1.43s1.19-5.94-1.71-8.76c-.98-.96-2.16-1.71-3.45-2.18-.11-.04-.18-.15-.17-.27.01-.12.11-.21.23-.22C-7.77-.53-3.39,3.28-.64,7.9s7.57,8.44,13.21,7.74c.12-.01.23.06.27.17.04.11,0,.24-.11.3-2.93,1.9-6.59,2.29-9.86,1.06,5.8,4.9,14.05,7.74,21.84,5.22.14-.03.28.05.32.19.02.08,0,.16-.05.22-5.91,6.53-17.69,6.66-25.11,1.34,3.03,4.31,7.06,7.5,14.29,8.5.11.02.2.12.22.23,0,.11-.06.22-.17.26-8.29,3.08-16.6,0-23.44-8.21,2.85,6.46,8.17,11.5,14.77,14,.11.05.18.16.16.28-.02.12-.13.21-.25.21-3.94.08-7.48-.86-12.26-3.57,3.51,5.69,2.74,15.64-2.37,22.26-.07.09-.19.12-.3.08-.11-.05-.17-.16-.15-.28,1.18-7.2-1.3-15.32-5.61-19.64,2.26,7.14-.08,14.94-5.9,19.65-.08.04-.17.04-.25,0-.09-.03-.15-.11-.17-.2-1.23-9.42-11.77-19-20.6-19.78-.12-.01-.22-.11-.23-.23,0-.13.08-.24.2-.27,4.14-.94,8.46-.59,12.39,1-2.57-2.89-5.87-5.05-9.56-6.24-.11-.04-.19-.15-.17-.27,0-.12.11-.22.23-.23,4.52-.26,9,.98,12.73,3.54-4.48-6.84-11.45-11.67-19.43-13.46-.12-.03-.2-.14-.19-.26.01-.12.1-.22.22-.24,11.92-1.3,21.75,3.32,28.22,11.92-1.64-4.9-6.36-9.75-12.94-12.62-5.85-2.54-11.85-2.94-16.42-1.51-.11.04-.23,0-.29-.1-.07-.1-.07-.23.01-.32ZM5.52,94.23c-4.81-10.48-4.47-18.68-.6-29.05.06-.13.21-.2.34-.14.1.04.16.14.16.24-.62,12.62,2.82,21.65,10.3,27.81-8.25-9.86-4.36-29.56,8.82-29.56,9.58,0,17.51,8,19.45,17.52.02.12-.04.24-.15.29-.12.05-.25,0-.31-.11-2.85-4.76-7.41-7.85-12.46-7.85-8.14,0-10.54,6.47-10.54,11,0,6.18,4.92,11.34,8.71,11.34,2.73.03,4.97-2.15,5-4.88,0-.01,0-.03,0-.04-.15-3.8-2.7-7.08-6.34-8.16-.12-.03-.2-.15-.18-.28.02-.12.12-.22.25-.22,4.01-.14,7.75,2.02,9.63,5.57.38-2.59.18-5.23-.6-7.73-.04-.12.02-.25.13-.3.11-.06.24-.03.31.07,7.36,9.39,3.84,25.62-2,32.36,5.53-4,10.42-12.64,10.34-24.4,0-.12.09-.23.21-.25.12-.02.24.05.28.16,4.09,10.25,1.91,29.24-9.27,39.85,3.05.47,6.17.23,9.12-.69.11-.04.24,0,.3.11.07.09.07.23,0,.32-4.1,3.46-9.82,4.54-15.27,4.54,4.7-5.5,3.14-16.55-4.35-16.55-5.35,0-7.78,8.3-3.65,12.78.08.09.08.22,0,.31-.06.1-.18.14-.29.1-4.78-1.65-10-5.79-10-11s4.81-9.4,11.8-9.06c-8.82-2.5-18,.27-22.88,6.26-.08.1-.22.12-.32.05-.11-.05-.17-.17-.13-.29,2.79-10.71,11.96-15.2,23.44-13.71-9.28-3.76-23.25-.48-29.43,7.31-.07.11-.22.15-.34.08-.11-.05-.17-.16-.14-.28,1.41-6.62,4.9-11.56,10.66-13.52Z"/>
      </g>
    </pattern>
  </defs>
  <g id="Layer_1-2" data-name="Layer 1">
    <path class="cls-3" d="m568.87,141.75h31.63V2.27h-31.63v139.48ZM476.78,2.27h-31.63v139.44h91.9v-25.19h-60.27V2.27Zm395.35,75.05L804.57.66h-4.21v141.19h30.49v-51.32c.14-7.9-.19-15.81-.99-23.67,3.35,5.1,6.95,10.03,10.8,14.77l29.4,36.22h4.45l29.26-36.22c5.26-6.49,10.61-14.72,10.61-14.72-.76,7.87-1.09,15.77-.99,23.67v51.37h30.54V.71h-4.26l-67.52,76.61Zm177.08-19.18l-7.2-3.08c-9.47-3.98-17.66-8.43-17.66-17.09-.46-5.97,4.01-11.18,9.98-11.64.81-.06,1.62-.03,2.42.09,8.07.26,15.35,4.93,18.94,12.17l23.67-14.2c-8.71-15.69-25.53-25.12-43.46-24.34-25.66,0-41.71,16.86-42.19,38.4-.47,23.96,16.57,34.8,37.36,43.65l7.2,3.03c13.16,5.82,19.32,10.13,18.94,18.94-.38,8.81-5.78,14.2-17.66,14.2-12.15.27-23.15-7.12-27.51-18.47l-25.05,14.2c6.77,15.72,25.57,30.16,52.37,30.16s48.48-14.2,49.43-39.91c.76-22.3-14.2-36.13-39.82-46.4M91.43,1.04l-51.18,111.41,10.75,29.31h5.02l30.96-69.84c2.81-5.64,5.11-11.52,6.87-17.57,1.79,5.98,4.05,11.81,6.77,17.42l31.15,69.98h5.02l10.7-29.31L96.11,1.13l-4.69-.09Zm-58.85,1.23H0l36.93,101.13,17.42-37.88L32.57,2.27Zm100.56,62.88l17.61,38.26L187.78,2.27h-33.14l-21.5,62.88Zm96.97,76.61h31.63V2.27h-31.63v139.48ZM352.12,2.27h-31.63v139.44h91.9v-25.19h-60.27V2.27Zm348.9,92.71h-15.77l12.03-30.78c2.27-5.82,3.74-10.7,3.74-10.7,0,0,1.52,4.73,3.74,10.7l12.03,30.63-15.77.14Zm2.27-94.17h-4.45l-62.26,140.72h30.35l9.09-22.3h50.09l9.09,22.3h30.4L703.29.8Z"/>
    <path class="cls-3" d="m576.35,198.14h31.63v139.48h-31.63v-139.48Zm-62.17,92.94l-.8,1.28c-8.95,13.59-18.94,19.41-33.95,19.41-23.2,0-39.91-18.32-39.91-43.46s16.38-43.13,39.91-43.13c12.93-.43,25.1,6.11,31.86,17.14l.85,1.37,23.67-17-.76-1.18c-12.31-19.27-30.54-28.64-55.82-28.64-39.47-1.02-72.29,30.16-73.31,69.63-1.02,39.47,30.16,72.29,69.63,73.31,1.23.03,2.45.03,3.68,0,23.54.87,45.75-10.88,58.28-30.82l.76-1.18-24.1-16.71Zm446.62-27.75v-1.37h-66.85v27.37h33.71c-3.55,11.6-15.67,22.63-35.84,22.63-23.67,0-40.58-18.37-40.58-43.75s16.57-43.13,40.34-43.13c13.22-.48,25.61,6.46,32.1,17.99l.8,1.33,24.53-17.38-.76-1.23c-12.64-19.51-31.15-28.98-56.82-28.98-38.76-1.1-71.08,29.42-72.19,68.19-.03,1.07-.04,2.14-.02,3.21,0,41.48,30.54,71.54,72.49,71.54,21.45,0,39.11-6.58,50.99-19.18,12.78-13.35,18.94-33.14,17.71-57.29m-210.46-64.87v58.71c0,6.11-.33,11.88,0,17.23-3.73-4.29-7.75-8.33-12.03-12.07l-68.94-64.68-.38-.43h-4.73v140.72h29.21v-58.71c0-5.78,0-11.6-.28-17.38,3.75,4.35,7.78,8.45,12.07,12.26l69.22,64.34.43.43h4.73v-140.57l-29.31.14Zm-549.23,46.31c0,13.02-6.77,18.94-21.26,18.94h-20.41v-37.88h20.31c14.49,0,21.26,6.01,21.26,18.94m5.78,40.43c16.43-6.62,26.89-22.88,26.09-40.58,0-28.98-19.55-46.35-52.08-46.35h-52.08v139.44h30.73v-47.35h15.62l27.7,47.35h35.75l-31.72-52.51Zm118.37,5.68h-15.77l11.98-30.78c2.32-5.78,3.79-10.7,3.79-10.7,0,0,1.52,4.97,3.79,10.7l11.98,30.63-15.77.14Zm2.27-94.13h-4.73l-62.21,140.72h30.4l9.09-22.3h50.09l9.09,22.35h30.4l-62.12-140.76Z"/>
    <path class="cls-7" d="m568.87,141.75h31.63V2.27h-31.63v139.48ZM476.78,2.27h-31.63v139.44h91.9v-25.19h-60.27V2.27Zm395.35,75.05L804.57.66h-4.21v141.19h30.49v-51.32c.14-7.9-.19-15.81-.99-23.67,3.35,5.1,6.95,10.03,10.8,14.77l29.4,36.22h4.45l29.26-36.22c5.26-6.49,10.61-14.72,10.61-14.72-.76,7.87-1.09,15.77-.99,23.67v51.37h30.54V.71h-4.26l-67.52,76.61Zm177.08-19.18l-7.2-3.08c-9.47-3.98-17.66-8.43-17.66-17.09-.46-5.97,4.01-11.18,9.98-11.64.81-.06,1.62-.03,2.42.09,8.07.26,15.35,4.93,18.94,12.17l23.67-14.2c-8.71-15.69-25.53-25.12-43.46-24.34-25.66,0-41.71,16.86-42.19,38.4-.47,23.96,16.57,34.8,37.36,43.65l7.2,3.03c13.16,5.82,19.32,10.13,18.94,18.94-.38,8.81-5.78,14.2-17.66,14.2-12.15.27-23.15-7.12-27.51-18.47l-25.05,14.2c6.77,15.72,25.57,30.16,52.37,30.16s48.48-14.2,49.43-39.91c.76-22.3-14.2-36.13-39.82-46.4M91.43,1.04l-51.18,111.41,10.75,29.31h5.02l30.96-69.84c2.81-5.64,5.11-11.52,6.87-17.57,1.79,5.98,4.05,11.81,6.77,17.42l31.15,69.98h5.02l10.7-29.31L96.11,1.13l-4.69-.09Zm-58.85,1.23H0l36.93,101.13,17.42-37.88L32.57,2.27Zm100.56,62.88l17.61,38.26L187.78,2.27h-33.14l-21.5,62.88Zm96.97,76.61h31.63V2.27h-31.63v139.48ZM352.12,2.27h-31.63v139.44h91.9v-25.19h-60.27V2.27Zm348.9,92.71h-15.77l12.03-30.78c2.27-5.82,3.74-10.7,3.74-10.7,0,0,1.52,4.73,3.74,10.7l12.03,30.63-15.77.14Zm2.27-94.17h-4.45l-62.26,140.72h30.35l9.09-22.3h50.09l9.09,22.3h30.4L703.29.8Z"/>
    <path class="cls-7" d="m576.35,198.14h31.63v139.48h-31.63v-139.48Zm-62.17,92.94l-.8,1.28c-8.95,13.59-18.94,19.41-33.95,19.41-23.2,0-39.91-18.32-39.91-43.46s16.38-43.13,39.91-43.13c12.93-.43,25.1,6.11,31.86,17.14l.85,1.37,23.67-17-.76-1.18c-12.31-19.27-30.54-28.64-55.82-28.64-39.47-1.02-72.29,30.16-73.31,69.63-1.02,39.47,30.16,72.29,69.63,73.31,1.23.03,2.45.03,3.68,0,23.54.87,45.75-10.88,58.28-30.82l.76-1.18-24.1-16.71Zm446.62-27.75v-1.37h-66.85v27.37h33.71c-3.55,11.6-15.67,22.63-35.84,22.63-23.67,0-40.58-18.37-40.58-43.75s16.57-43.13,40.34-43.13c13.22-.48,25.61,6.46,32.1,17.99l.8,1.33,24.53-17.38-.76-1.23c-12.64-19.51-31.15-28.98-56.82-28.98-38.76-1.1-71.08,29.42-72.19,68.19-.03,1.07-.04,2.14-.02,3.21,0,41.48,30.54,71.54,72.49,71.54,21.45,0,39.11-6.58,50.99-19.18,12.78-13.35,18.94-33.14,17.71-57.29m-210.46-64.87v58.71c0,6.11-.33,11.88,0,17.23-3.73-4.29-7.75-8.33-12.03-12.07l-68.94-64.68-.38-.43h-4.73v140.72h29.21v-58.71c0-5.78,0-11.6-.28-17.38,3.75,4.35,7.78,8.45,12.07,12.26l69.22,64.34.43.43h4.73v-140.57l-29.31.14Zm-549.23,46.31c0,13.02-6.77,18.94-21.26,18.94h-20.41v-37.88h20.31c14.49,0,21.26,6.01,21.26,18.94m5.78,40.43c16.43-6.62,26.89-22.88,26.09-40.58,0-28.98-19.55-46.35-52.08-46.35h-52.08v139.44h30.73v-47.35h15.62l27.7,47.35h35.75l-31.72-52.51Zm118.37,5.68h-15.77l11.98-30.78c2.32-5.78,3.79-10.7,3.79-10.7,0,0,1.52,4.97,3.79,10.7l11.98,30.63-15.77.14Zm2.27-94.13h-4.73l-62.21,140.72h30.4l9.09-22.3h50.09l9.09,22.35h30.4l-62.12-140.76Z"/>
    <path class="cls-2" d="m568.87,141.75h31.63V2.27h-31.63v139.48ZM476.78,2.27h-31.63v139.44h91.9v-25.19h-60.27V2.27Zm395.35,75.05L804.57.66h-4.21v141.19h30.49v-51.32c.14-7.9-.19-15.81-.99-23.67,3.35,5.1,6.95,10.03,10.8,14.77l29.4,36.22h4.45l29.26-36.22c5.26-6.49,10.61-14.72,10.61-14.72-.76,7.87-1.09,15.77-.99,23.67v51.37h30.54V.71h-4.26l-67.52,76.61Zm177.08-19.18l-7.2-3.08c-9.47-3.98-17.66-8.43-17.66-17.09-.46-5.97,4.01-11.18,9.98-11.64.81-.06,1.62-.03,2.42.09,8.07.26,15.35,4.93,18.94,12.17l23.67-14.2c-8.71-15.69-25.53-25.12-43.46-24.34-25.66,0-41.71,16.86-42.19,38.4-.47,23.96,16.57,34.8,37.36,43.65l7.2,3.03c13.16,5.82,19.32,10.13,18.94,18.94-.38,8.81-5.78,14.2-17.66,14.2-12.15.27-23.15-7.12-27.51-18.47l-25.05,14.2c6.77,15.72,25.57,30.16,52.37,30.16s48.48-14.2,49.43-39.91c.76-22.3-14.2-36.13-39.82-46.4M91.43,1.04l-51.18,111.41,10.75,29.31h5.02l30.96-69.84c2.81-5.64,5.11-11.52,6.87-17.57,1.79,5.98,4.05,11.81,6.77,17.42l31.15,69.98h5.02l10.7-29.31L96.11,1.13l-4.69-.09Zm-58.85,1.23H0l36.93,101.13,17.42-37.88L32.57,2.27Zm100.56,62.88l17.61,38.26L187.78,2.27h-33.14l-21.5,62.88Zm96.97,76.61h31.63V2.27h-31.63v139.48ZM352.12,2.27h-31.63v139.44h91.9v-25.19h-60.27V2.27Zm348.9,92.71h-15.77l12.03-30.78c2.27-5.82,3.74-10.7,3.74-10.7,0,0,1.52,4.73,3.74,10.7l12.03,30.63-15.77.14Zm2.27-94.17h-4.45l-62.26,140.72h30.35l9.09-22.3h50.09l9.09,22.3h30.4L703.29.8Z"/>
    <path class="cls-4" d="m576.35,198.14h31.63v139.48h-31.63v-139.48Zm-62.17,92.94l-.8,1.28c-8.95,13.59-18.94,19.41-33.95,19.41-23.2,0-39.91-18.32-39.91-43.46s16.38-43.13,39.91-43.13c12.93-.43,25.1,6.11,31.86,17.14l.85,1.37,23.67-17-.76-1.18c-12.31-19.27-30.54-28.64-55.82-28.64-39.47-1.02-72.29,30.16-73.31,69.63-1.02,39.47,30.16,72.29,69.63,73.31,1.23.03,2.45.03,3.68,0,23.54.87,45.75-10.88,58.28-30.82l.76-1.18-24.1-16.71Zm446.62-27.75v-1.37h-66.85v27.37h33.71c-3.55,11.6-15.67,22.63-35.84,22.63-23.67,0-40.58-18.37-40.58-43.75s16.57-43.13,40.34-43.13c13.22-.48,25.61,6.46,32.1,17.99l.8,1.33,24.53-17.38-.76-1.23c-12.64-19.51-31.15-28.98-56.82-28.98-38.76-1.1-71.08,29.42-72.19,68.19-.03,1.07-.04,2.14-.02,3.21,0,41.48,30.54,71.54,72.49,71.54,21.45,0,39.11-6.58,50.99-19.18,12.78-13.35,18.94-33.14,17.71-57.29m-210.46-64.87v58.71c0,6.11-.33,11.88,0,17.23-3.73-4.29-7.75-8.33-12.03-12.07l-68.94-64.68-.38-.43h-4.73v140.72h29.21v-58.71c0-5.78,0-11.6-.28-17.38,3.75,4.35,7.78,8.45,12.07,12.26l69.22,64.34.43.43h4.73v-140.57l-29.31.14Zm-549.23,46.31c0,13.02-6.77,18.94-21.26,18.94h-20.41v-37.88h20.31c14.49,0,21.26,6.01,21.26,18.94m5.78,40.43c16.43-6.62,26.89-22.88,26.09-40.58,0-28.98-19.55-46.35-52.08-46.35h-52.08v139.44h30.73v-47.35h15.62l27.7,47.35h35.75l-31.72-52.51Zm118.37,5.68h-15.77l11.98-30.78c2.32-5.78,3.79-10.7,3.79-10.7,0,0,1.52,4.97,3.79,10.7l11.98,30.63-15.77.14Zm2.27-94.13h-4.73l-62.21,140.72h30.4l9.09-22.3h50.09l9.09,22.35h30.4l-62.12-140.76Z"/>
  </g>
</svg>