<?xml version="1.0" encoding="UTF-8"?>
<svg id="Layer_2" data-name="Layer 2" xmlns="http://www.w3.org/2000/svg" viewBox="0 0 4000 4000">
  <g id="_Слой_1" data-name="Слой 1">
    <g>
      <g>
        <path d="m587.32,232.54c-38.04-13.63-68.86-27.01-95.22-42.23-26.45-15.16-48.47-32.16-70.95-51.53-22.46-19.32-45.38-40.95-72.98-64.28-27.5-23.34-59.64-48.26-98.16-74.51-3.19,26.37-10.12,48.08-21.76,66.24-11.59,18.28-27.77,33.04-48.54,48.38-20.76,15.36-46.13,31.28-76.27,52.54-30.02,21.18-65.35,47.76-103.43,82.84,38.04,6.65,67.83,15.68,92.42,27.89,24.69,12.17,44.12,27.51,63.77,45.92,19.67,18.39,39.49,39.83,65.47,63.79,25.89,23.96,57.99,50.4,100.27,79,14.91-30.11,30.51-53.62,48.9-72.66,18.3-19.12,39.45-33.73,63.38-47.9,23.83-14.19,50.45-27.86,77.19-45.5,26.7-17.58,53.29-39.15,75.92-67.99Z"/>
        <path d="m1124.64,304.28c-37.7-22.37-69.87-44.21-98.86-67.71-29.07-23.42-55.05-48.58-82.11-75.6-27.02-26.92-55.17-55.67-87.2-83.59-31.91-27.92-67.51-54.64-106.46-77.38-2.67,23-6.17,45.07-13.81,63.45-7.49,18.62-18.95,33.83-33.72,48.87-14.74,15.07-32.64,30.12-52.09,49.24-19.52,19.03-40.45,42.14-63.06,70.98,38.04,13.66,69.88,29.3,98.25,48.17,28.46,18.86,53.47,40.94,79.77,67.33,26.27,26.38,53.88,57.05,86.85,92.97,32.8,35.88,71.05,77.09,114.44,123.7,4.11-30.6,9.45-55.15,18.57-74.46,8.98-19.49,21.7-33.72,37.16-47.92,15.39-14.27,33.46-28.52,51.43-49.68,17.99-21.02,35.78-49.24,50.84-88.36Z"/>
        <path d="m1606.3,394.43c-30.18-21.98-56.41-46.36-80.66-74.41-24.35-28-46.73-59.81-71.54-95.46-24.78-35.49-52.1-75-85.74-114.68-33.43-39.52-73.37-78.95-118.36-109.89,3.25,31.16,2.86,60.18-2.44,84.06-5.18,24.18-15.19,43.51-28.37,62.56-13.13,19.1-29.4,38.08-46.01,62.97-16.64,24.73-33.5,55.58-48.54,94.69,37.69,22.39,68.9,46.61,96.29,74.65,27.44,28.01,51.12,59.9,74.8,96.9,23.62,36.92,47.26,79.01,73.05,125.6,25.7,46.46,53.35,97.46,82.57,149,5.48-41.52,11.34-75.6,20.08-103.11,8.63-27.73,20.1-48.98,34.13-70.24,13.98-21.28,30.49-42.67,47.9-71.41,17.39-28.58,35.7-64.55,52.83-111.25Z"/>
        <path d="m2000,366.89c-21.71-8.11-39.99-20.5-55.9-38.71-16.02-18.16-29.67-42.01-44.73-72.18-15.13-30.14-31.61-66.71-54.8-109.98-23.13-43.03-53.19-93.54-94.57-146.02-.38,52.38-4.42,92.28-12.05,124.37-7.59,32.21-18.81,56.56-32.58,80.4-13.74,23.83-30.04,47.08-47.1,76.92-17.08,29.69-34.87,66.03-51.98,112.74,30.15,21.96,53.75,44.21,73.41,69.25,19.7,24.95,35.44,52.76,50.69,83.68,15.23,30.81,29.91,64.72,46.97,99.15,16.99,34.38,36.34,69.04,59.54,100.18,6.8-40.89,14.28-74.57,23.8-103.18,9.47-28.75,20.94-52.45,34.54-76.81,13.58-24.37,29.22-49.38,46.63-81.05,17.45-31.58,36.55-69.75,58.13-118.76Z"/>
        <path d="m676.2,728.81c-41.57-16.93-75.41-32.33-103.23-49.35-28-16.95-50.06-35.49-72.29-56.91-22.22-21.34-44.7-45.55-73.34-72.09-28.46-26.47-63.1-55.23-105.41-83.86-14.93,30.12-32.86,54.33-54.57,74.88-21.66,20.65-47.19,37.65-76.32,55.66-29.02,18-61.8,37.05-95.38,61.65-33.44,24.45-67.65,54.58-95.66,91.22,28.18,5.13,54.55,13.34,76.65,25.24,22.37,11.86,40.69,27.39,59.25,46.2,18.62,18.78,37.59,40.85,62.8,65.06,25.06,24.2,56.59,50.51,96.96,77.45,18.12-32.25,38.09-57.8,61.78-78.69,23.65-20.97,51.04-37.3,82.99-52.77,31.87-15.44,68.33-29.99,108.42-46.67,39.97-16.62,83.64-35.17,127.35-57.02Z"/>
        <path d="m1234.99,952.97c-24.86-26.84-45.2-51.91-62.38-77.33-17.32-25.46-31.42-51.37-47.12-80.89-15.74-29.46-33.11-62.64-58.05-101.18-24.82-38.37-57.43-82.2-100.81-128.86-4.19,30.55-13.77,51.32-28.23,65.75-14.48,14.51-33.84,22.66-58.01,29.7-24.18,7.04-53.22,12.91-87.28,22.88-34.02,9.91-73.22,23.89-116.92,45.77,41.52,16.99,72.67,35.16,96.79,54.72,24.2,19.6,41.43,40.58,56.89,64.19,15.42,23.6,29.06,49.83,44.96,79.92,15.79,30.06,33.67,63.98,54.71,102.24,21.58-20.02,41.98-33.53,63.27-41.89,21.27-8.45,43.48-11.66,68.1-12.93,24.56-1.33,51.52-.61,80.94-2.54,29.32-1.97,61.13-6.5,93.13-19.54Z"/>
        <path d="m1638.18,1088.35c-23.2-10.04-40.53-23.81-54.05-41.45-13.6-17.67-23.35-39.22-33.32-65.75-10-26.55-20.15-58.15-35.22-96.28-15.05-38.07-35.01-82.88-64.24-134.42-5.55,41.44-14.5,70.86-26.29,92.37-11.81,21.57-26.47,35.26-44.09,46.45-17.63,11.13-38.23,19.73-62.32,29.71-24.1,9.86-51.7,20.91-83.66,34.01,24.82,26.81,42.46,50.88,55.28,74.63,12.87,23.75,20.84,47.21,27.41,72.6,6.6,25.34,11.7,52.58,19.45,82.69,7.75,30.01,18.12,62.92,35.38,97.29,18.92-19.39,36.68-34.61,54.98-46.65,18.29-12.16,37.21-21.05,58.35-30.86,21.09-9.86,44.45-20.65,70.22-38.05,25.68-17.32,53.74-41.4,82.12-76.28Z"/>
        <path d="m2000,967.09c-14.11-6.69-27.91-14.15-39.73-25.46-11.97-11.19-22.12-26.1-32.56-44.78-10.49-18.65-21.35-40.95-35.66-66.05-14.26-25.16-31.97-52.99-55.15-84.1-6.81,40.85-15.35,73.29-26.27,100.88-10.92,27.66-24.23,50.48-40.34,73.54-16.1,23.01-34.97,46.3-56.89,73.71-21.92,27.23-46.88,58.61-75.22,93.52,23.19,9.97,41.47,19.89,56.18,32.5,14.8,12.5,26.01,27.63,37.22,45.23,11.22,17.53,22.45,37.47,37.67,58.07,15.1,20.58,34.36,41.77,59,61.44,11.33-31.55,22.81-58.47,35.61-82.38,12.74-24.01,26.83-45.05,42.16-67.11,15.28-22.04,31.76-45.13,48-72.7,16.24-27.47,32.03-59.31,45.98-96.32Z"/>
        <path d="m585.72,1199.84c-32.89-12.65-59.58-24.96-81.26-39.61-21.84-14.57-38.65-31.46-55.67-51.23-17.06-19.71-34.35-42.27-58.28-66.89-23.77-24.58-54.47-51.21-94.86-78.16-18.11,32.26-36.93,58.48-58.26,80.83-21.26,22.43-45.1,41.02-71.45,60.04-26.26,19-55.02,38.48-83.74,62.05-28.71,23.46-57.05,50.94-82.21,83.13,25.44,9.51,49.95,19.52,70.66,32.49,20.97,12.89,38.45,28.65,56.18,47.51,17.77,18.82,35.94,40.64,59.34,64.78,23.3,24.16,51.85,50.55,87.9,79.26,12.14-32.7,26.74-58.99,44.89-81.08,18.13-22.17,39.8-40.14,65.49-58.14,25.67-17.99,55.32-36.04,88.96-57.91,33.61-21.73,71.21-47.34,112.31-77.06Z"/>
        <path d="m1078.42,1352.32c-25.13-23.75-43.53-45.71-56.88-67.73-13.43-22.04-21.75-44.18-28.68-68.69-6.97-24.49-12.43-51.34-21.29-82.18-8.86-30.75-21.03-65.55-42.03-103.84-21.6,20.04-42.56,35.03-64.7,46.36-22.15,11.44-45.58,19.15-72.47,27.33-26.84,8.23-57.23,16.95-91.94,31.54-34.6,14.49-73.58,35.01-114.72,64.73,32.86,12.7,56.52,27.85,74.55,45.8,18.12,17.97,30.57,38.76,42.84,63.41,12.28,24.63,24.33,53.18,41.84,86.44,17.43,33.17,40.36,71.2,72.69,112.82,9.86-31.74,22.82-54.88,38.51-71.63,15.71-16.83,34.16-27.34,55.57-35.72,21.41-8.35,45.79-14.59,73.48-22.07,27.68-7.4,58.68-15.9,93.2-26.56Z"/>
        <path d="m1563.96,1520.57c-30.39-10.58-53.77-23.1-71.83-37.37-18.14-14.31-31.01-30.37-42.5-49.05-11.48-18.7-21.58-40.02-33.75-65.26-12.08-25.23-26.1-54.39-43.37-88.72-18.92,19.35-37.2,32.17-56.53,40.28-19.32,8.16-39.73,11.5-62.88,13.01-23.1,1.56-48.96,1.16-78.24,2.84-29.19,1.7-61.88,5.38-96.45,16.01,25.14,23.76,44.79,45.15,60.82,66.29,16.14,21.15,28.63,42.13,42.1,65.38,13.49,23.17,28.04,48.67,48.72,77.15,20.54,28.36,47.39,59.69,82.14,91.49,6.63-21.34,17.05-36.4,31.05-47.12,14-10.8,31.58-17.26,52.71-23.19,21.12-5.95,45.85-11.33,74.04-20.35,28.15-8.99,59.88-21.56,93.96-41.4Z"/>
        <path d="m2000,1433.69c-15.79-.5-30.77-3.87-43.38-10.99-12.77-7.05-23.29-17.79-33.96-31.48-10.72-13.66-21.67-30.27-36.45-48.36-14.7-18.1-33.35-37.62-57.96-57.27-11.35,31.52-24.05,56.41-39.37,77.27-15.31,20.9-33.24,37.8-54.73,54.05-21.45,16.21-46.49,31.74-75.16,48.73-28.59,16.92-60.93,35.1-95.03,54.93,30.4,10.53,54.18,20.02,73.28,31.05,19.2,10.95,33.79,23.38,48.2,37.78,14.4,14.34,28.68,30.61,46.84,47.85,18.04,17.21,39.95,35.37,66.63,52.64,11.28-22.89,23.9-42.32,38.46-59.74,14.52-17.51,31.03-33.01,49.29-50.06,18.2-17.05,38.22-35.71,58.13-59.48,19.85-23.64,39.51-52.54,55.2-86.91Z"/>
        <path d="m589.99,1754.66c-38.26-16.08-69.11-32.56-94.9-51.26-25.89-18.65-46.73-39.58-67.2-63.43-20.48-23.78-40.52-50.52-64.88-78.94-24.29-28.37-52.88-58.26-88.93-86.98-12.12,32.7-25.12,58.62-41.21,80.07-16.02,21.54-35.1,38.63-57.72,55.91-22.59,17.28-48.61,34.75-77.74,56.93-29.18,22.1-61.28,48.88-97.4,83.06,36.31,7.55,66.09,17.78,91.44,31.64,25.5,13.83,46.6,31.22,69.18,52.39,22.62,21.13,46.7,46.13,79.24,74.47,32.38,28.2,73.55,60.14,127.04,91.5,3.74-31.33,11.75-55.89,24.38-75.7,12.56-19.9,29.73-35.03,50.31-49.79,20.55-14.77,44.5-29.13,69.84-47.82,25.36-18.62,52.04-41.58,78.56-72.04Z"/>
        <path d="m1133.89,1823.18c-34.73-13.92-63.99-29.26-89.56-47.43-25.66-18.17-47.68-39.18-69.91-64.37-22.2-25.15-44.63-54.53-70.29-88.62-25.57-33.99-54.21-72.82-86.49-114.45-9.8,31.77-19.78,56.79-32.89,76.53-13.01,19.88-29.13,34.53-48.7,48.94-19.5,14.41-42.44,28.61-67.46,47.67-24.98,18.93-52.04,42.73-78.6,73.21,38.27,16.08,69.77,33.04,97.57,51.77,27.89,18.69,52.13,39.22,77.97,61.47,25.79,22.16,53.32,46.1,86.55,69.38,33.02,23.21,71.84,45.57,115.01,62.71.62-17.28,4.73-33.65,13.35-47.25,8.53-13.77,21.51-24.88,37.64-35.88,16.09-11.04,35.28-22.06,55.31-36.74,20.04-14.6,40.84-32.97,60.51-56.96Z"/>
        <path d="m1592,1860.74c-27.77-7.53-51.08-16.48-71.62-27.6-20.62-11.12-38.45-24.41-57.22-40.62-18.77-16.22-38.48-35.33-62.88-58.3-24.28-22.97-53.35-49.84-88.09-81.59-6.58,21.35-13.87,38.04-24.2,51.07-10.22,13.14-23.45,22.63-39.46,32.01-15.95,9.41-34.67,18.71-54.44,32.23-19.75,13.41-40.51,31.23-60.2,55.25,34.72,13.89,62.83,27.13,87.18,41.15,24.4,13.96,45.07,28.75,66.03,44.41,20.91,15.6,42.13,32.02,66.27,47.8,24.04,15.79,50.84,30.72,80.31,43.47,5.32-12.89,11.15-25.42,19.85-36,8.6-10.72,19.97-19.62,33.84-28.56,13.84-8.97,30.08-18.08,47.71-29.88,17.66-11.76,36.61-26.22,56.9-44.82Z"/>
        <path d="m2000,1820.14c-24.15-1.99-43.17-6.35-58.73-13.28-15.63-6.9-27.78-16.37-39.9-27.97-12.14-11.58-24.21-25.3-40.16-40.35-15.9-15.06-35.66-31.42-62.3-48.66-11.27,22.86-23.05,40.49-36.76,54.9-13.67,14.45-29.33,25.65-47.3,36.44-17.91,10.79-38.16,21.11-59.37,33.66-21.17,12.5-43.18,27.23-63.48,45.85,27.75,7.51,49.52,15.02,67.68,23.85,18.21,8.78,32.83,18.87,47.54,30.47,14.7,11.58,29.48,24.62,47.57,38.81,18.01,14.21,39.27,29.49,65.35,46.13,4.31-16.74,10.84-30.73,20.28-42.73,9.42-12.07,21.69-22.16,36.87-33.04,15.16-10.92,33.26-22.59,54.07-38.78,20.72-16.15,44.47-36.91,68.64-65.32Z"/>
      </g>
      <g>
        <path d="m2525.96,274.07c-32.7-12.12-58.62-25.12-80.07-41.21-21.54-16.02-38.63-35.1-55.91-57.72-17.28-22.59-34.74-48.61-56.93-77.74-22.1-29.18-48.88-61.28-83.06-97.4-7.55,36.31-17.78,66.09-31.64,91.44-13.83,25.5-31.22,46.6-52.39,69.18-21.13,22.62-46.12,46.7-74.47,79.24-28.2,32.38-60.14,73.55-91.5,127.04,31.33,3.74,55.89,11.75,75.7,24.38,19.91,12.56,35.03,29.73,49.79,50.32,14.77,20.55,29.12,44.5,47.82,69.84,18.62,25.36,41.58,52.05,72.04,78.56,16.07-38.26,32.56-69.11,51.26-94.9,18.65-25.89,39.58-46.73,63.43-67.2,23.78-20.48,50.52-40.52,78.94-64.88,28.36-24.29,58.26-52.88,86.98-88.93Z"/>
        <path d="m3036.05,295.65c-32.26-18.11-58.48-36.93-80.83-58.26-22.43-21.26-41.01-45.1-60.04-71.45-19-26.26-38.48-55.02-62.05-83.74-23.46-28.71-50.94-57.05-83.13-82.21-9.51,25.44-19.52,49.95-32.49,70.66-12.89,20.97-28.66,38.45-47.51,56.18-18.82,17.77-40.64,35.94-64.78,59.34-24.16,23.3-50.55,51.85-79.25,87.9,32.69,12.14,59,26.74,81.08,44.89,22.17,18.13,40.14,39.8,58.14,65.49,17.99,25.67,36.04,55.32,57.91,88.96,21.73,33.61,47.34,71.21,77.06,112.31,12.65-32.89,24.96-59.58,39.61-81.26,14.58-21.84,31.46-38.65,51.23-55.67,19.71-17.06,42.27-34.35,66.89-58.28,24.57-23.78,51.21-54.47,78.16-94.86Z"/>
        <path d="m3533.4,321.93c-30.12-14.94-54.33-32.86-74.88-54.57-20.65-21.66-37.65-47.19-55.66-76.32-18-29.02-37.05-61.8-61.65-95.38-24.45-33.44-54.57-67.65-91.22-95.66-5.13,28.18-13.34,54.55-25.24,76.65-11.85,22.37-27.39,40.69-46.2,59.25-18.78,18.62-40.84,37.59-65.06,62.8-24.2,25.06-50.52,56.59-77.45,96.96,32.26,18.12,57.79,38.09,78.69,61.78,20.97,23.64,37.31,51.04,52.77,82.99,15.43,31.87,29.98,68.33,46.67,108.42,16.62,39.97,35.17,83.64,57.02,127.35,16.93-41.57,32.33-75.41,49.35-103.23,16.95-28,35.49-50.06,56.91-72.29,21.34-22.22,45.55-44.7,72.09-73.34,26.47-28.46,55.23-63.1,83.86-105.41Z"/>
        <path d="m4000,250c-26.37-3.2-48.08-10.12-66.24-21.76-18.28-11.59-33.04-27.77-48.38-48.54-15.37-20.76-31.28-46.13-52.54-76.27-21.18-30.02-47.75-65.35-82.84-103.43-6.65,38.04-15.68,67.83-27.89,92.42-12.17,24.69-27.51,44.12-45.92,63.77-18.39,19.67-39.83,39.49-63.79,65.47-23.96,25.89-50.4,57.98-79,100.27,30.1,14.91,53.62,30.51,72.66,48.9,19.12,18.3,33.73,39.45,47.9,63.38,14.19,23.83,27.86,50.45,45.5,77.19,17.58,26.69,39.15,53.29,67.99,75.92,13.63-38.04,27.01-68.86,42.23-95.22,15.16-26.45,32.16-48.47,51.53-70.95,19.33-22.46,40.94-45.38,64.28-72.98,23.34-27.5,48.26-59.64,74.51-98.16Z"/>
        <path d="m2491.69,817.64c-31.77-9.8-56.8-19.78-76.53-32.89-19.88-13.01-34.54-29.13-48.94-48.7-14.4-19.5-28.61-42.44-47.67-67.46-18.92-24.98-42.74-52.05-73.21-78.6-16.08,38.27-33.04,69.77-51.77,97.57-18.69,27.9-39.22,52.12-61.47,77.97-22.16,25.79-46.1,53.32-69.38,86.55-23.21,33.02-45.57,71.84-62.71,115.01,17.28.62,33.65,4.73,47.25,13.35,13.77,8.53,24.88,21.52,35.88,37.64,11.04,16.08,22.06,35.28,36.74,55.31,14.6,20.04,32.97,40.84,56.96,60.51,13.92-34.73,29.26-63.99,47.43-89.56,18.17-25.66,39.18-47.68,64.37-69.9,25.15-22.2,54.53-44.63,88.62-70.29,33.99-25.57,72.82-54.2,114.45-86.49Z"/>
        <path d="m2970.12,929.55c-20.04-21.6-35.03-42.57-46.36-64.7-11.44-22.15-19.15-45.58-27.33-72.47-8.23-26.84-16.96-57.23-31.54-91.94-14.5-34.6-35.01-73.58-64.72-114.72-12.7,32.86-27.85,56.52-45.8,74.55-17.97,18.12-38.76,30.57-63.41,42.84-24.63,12.29-53.18,24.33-86.44,41.84-33.17,17.43-71.2,40.36-112.82,72.69,31.74,9.86,54.88,22.82,71.63,38.51,16.83,15.71,27.34,34.16,35.72,55.57,8.35,21.42,14.59,45.79,22.07,73.48,7.4,27.67,15.9,58.68,26.56,93.2,23.75-25.13,45.72-43.53,67.73-56.88,22.04-13.44,44.17-21.75,68.69-28.68,24.49-6.97,51.35-12.44,82.18-21.29,30.75-8.87,65.55-21.03,103.84-42.03Z"/>
        <path d="m3435.29,966.63c-30.55-4.19-51.32-13.77-65.75-28.23-14.51-14.48-22.66-33.84-29.7-58.01-7.04-24.18-12.91-53.22-22.88-87.28-9.91-34.02-23.88-73.22-45.77-116.92-16.99,41.53-35.17,72.67-54.72,96.79-19.59,24.2-40.59,41.43-64.19,56.89-23.6,15.41-49.83,29.06-79.92,44.96-30.06,15.79-63.98,33.67-102.24,54.71,20.02,21.58,33.52,41.98,41.89,63.27,8.45,21.27,11.66,43.48,12.93,68.1,1.33,24.56.61,51.52,2.54,80.94,1.97,29.32,6.5,61.13,19.54,93.13,26.84-24.86,51.9-45.2,77.33-62.38,25.46-17.32,51.37-31.43,80.89-47.12,29.46-15.74,62.64-33.11,101.18-58.05,38.37-24.82,82.2-57.43,128.86-100.81Z"/>
        <path d="m4000,750c-23-2.67-45.07-6.16-63.45-13.81-18.62-7.48-33.84-18.95-48.87-33.72-15.07-14.74-30.12-32.64-49.24-52.09-19.03-19.52-42.14-40.45-70.98-63.06-13.66,38.04-29.3,69.87-48.17,98.25-18.86,28.46-40.94,53.47-67.33,79.77-26.38,26.27-57.05,53.88-92.97,86.85-35.88,32.79-77.1,71.06-123.7,114.44,30.59,4.11,55.15,9.45,74.46,18.57,19.49,8.98,33.72,21.7,47.92,37.16,14.27,15.39,28.53,33.46,49.68,51.43,21.01,17.98,49.24,35.78,88.36,50.84,22.37-37.71,44.21-69.86,67.71-98.86,23.42-29.07,48.58-55.05,75.6-82.11,26.92-27.02,55.66-55.17,83.59-87.2,27.92-31.91,54.64-67.51,77.38-106.46Z"/>
        <path d="m2347.38,1312.19c-21.35-6.58-38.04-13.87-51.07-24.2-13.14-10.22-22.63-23.45-32.01-39.46-9.41-15.96-18.71-34.67-32.23-54.44-13.41-19.75-31.23-40.51-55.25-60.2-13.89,34.72-27.13,62.83-41.15,87.18-13.97,24.4-28.75,45.07-44.41,66.03-15.59,20.91-32.02,42.13-47.8,66.27-15.78,24.03-30.72,50.84-43.46,80.31,12.89,5.33,25.42,11.15,36,19.85,10.72,8.6,19.61,19.97,28.56,33.84,8.98,13.85,18.07,30.09,29.88,47.71,11.76,17.66,26.22,36.61,44.82,56.9,7.53-27.77,16.47-51.08,27.6-71.62,11.12-20.62,24.41-38.45,40.62-57.22,16.22-18.76,35.33-38.48,58.3-62.88,22.97-24.28,49.84-53.35,81.59-88.09Z"/>
        <path d="m2719.82,1372.52c-19.36-18.92-32.18-37.2-40.28-56.53-8.16-19.32-11.5-39.74-13.01-62.88-1.56-23.11-1.17-48.96-2.84-78.24-1.7-29.19-5.39-61.89-16.01-96.45-23.76,25.15-45.15,44.79-66.29,60.82-21.15,16.14-42.14,28.63-65.38,42.1-23.17,13.49-48.67,28.04-77.15,48.72-28.36,20.54-59.69,47.38-91.49,82.14,21.34,6.63,36.4,17.05,47.12,31.05,10.79,14,17.26,31.58,23.19,52.71,5.95,21.12,11.34,45.85,20.35,74.04,8.99,28.15,21.56,59.88,41.4,93.96,10.58-30.39,23.1-53.78,37.37-71.83,14.31-18.14,30.37-31.01,49.05-42.5,18.7-11.47,40.01-21.58,65.26-33.75,25.23-12.08,54.39-26.1,88.72-43.37Z"/>
        <path d="m3249.57,1451.35c-41.44-5.54-70.86-14.5-92.37-26.29-21.57-11.81-35.26-26.47-46.45-44.09-11.14-17.63-19.74-38.23-29.71-62.32-9.86-24.1-20.91-51.7-34.01-83.66-26.81,24.82-50.88,42.46-74.63,55.28-23.75,12.87-47.21,20.83-72.6,27.41-25.34,6.6-52.58,11.69-82.69,19.45-30.01,7.75-62.92,18.12-97.29,35.38,19.39,18.92,34.62,36.68,46.65,54.98,12.16,18.29,21.05,37.2,30.86,58.35,9.86,21.09,20.65,44.45,38.05,70.22,17.33,25.68,41.4,53.74,76.28,82.12,10.04-23.19,23.81-40.53,41.45-54.05,17.67-13.6,39.22-23.35,65.75-33.32,26.55-10,58.15-20.15,96.28-35.22,38.07-15.05,82.88-35.02,134.42-64.24Z"/>
        <path d="m4000,1250c-31.17,3.25-60.18,2.86-84.06-2.44-24.18-5.18-43.52-15.19-62.56-28.37-19.1-13.13-38.08-29.4-62.97-46.01-24.73-16.64-55.58-33.5-94.69-48.54-22.39,37.69-46.61,68.9-74.65,96.29-28.02,27.44-59.9,51.12-96.9,74.8-36.92,23.62-79.02,47.26-125.6,73.05-46.46,25.7-97.46,53.35-149,82.57,41.52,5.48,75.6,11.34,103.11,20.08,27.73,8.63,48.98,20.1,70.24,34.13,21.29,13.98,42.67,30.49,71.41,47.9,28.58,17.4,64.55,35.69,111.25,52.83,21.98-30.18,46.35-56.41,74.41-80.66,27.99-24.35,59.81-46.73,95.46-71.54,35.49-24.78,75.01-52.1,114.68-85.74,39.52-33.43,78.95-73.37,109.89-118.36Z"/>
        <path d="m2310.11,1798.92c-22.86-11.28-40.49-23.05-54.9-36.76-14.45-13.67-25.65-29.33-36.44-47.3-10.79-17.9-21.11-38.16-33.66-59.37-12.5-21.17-27.24-43.18-45.85-63.48-7.51,27.75-15.02,49.52-23.85,67.68-8.79,18.21-18.87,32.83-30.47,47.54-11.58,14.7-24.62,29.48-38.81,47.57-14.22,18.01-29.49,39.27-46.13,65.35,16.74,4.31,30.73,10.83,42.73,20.28,12.08,9.42,22.16,21.69,33.04,36.87,10.92,15.16,22.59,33.26,38.78,54.08,16.15,20.72,36.91,44.47,65.32,68.64,1.99-24.15,6.35-43.17,13.28-58.73,6.9-15.63,16.37-27.77,27.97-39.9,11.58-12.14,25.3-24.22,40.35-40.16,15.06-15.9,31.42-35.66,48.66-62.3Z"/>
        <path d="m2714.41,1828.25c-31.52-11.35-56.41-24.05-77.27-39.37-20.9-15.3-37.8-33.24-54.05-54.73-16.21-21.45-31.74-46.48-48.73-75.16-16.92-28.59-35.1-60.93-54.93-95.03-10.52,30.4-20.02,54.18-31.05,73.28-10.95,19.21-23.38,33.79-37.78,48.2-14.34,14.4-30.61,28.68-47.85,46.84-17.21,18.04-35.37,39.95-52.64,66.63,22.89,11.28,42.32,23.9,59.74,38.46,17.51,14.52,33.01,31.03,50.06,49.29,17.05,18.2,35.7,38.22,59.48,58.13,23.64,19.85,52.54,39.52,86.91,55.2.5-15.79,3.87-30.76,10.99-43.38,7.05-12.77,17.79-23.29,31.48-33.96,13.66-10.72,30.27-21.67,48.36-36.45,18.1-14.7,37.62-33.35,57.27-57.96Z"/>
        <path d="m3253.31,1836.9c-40.85-6.82-73.28-15.34-100.88-26.27-27.66-10.92-50.48-24.23-73.54-40.34-23.02-16.1-46.3-34.97-73.71-56.89-27.23-21.92-58.61-46.88-93.52-75.22-9.97,23.2-19.9,41.47-32.5,56.18-12.5,14.8-27.63,26.01-45.23,37.22-17.53,11.22-37.48,22.45-58.07,37.67-20.58,15.1-41.77,34.36-61.44,59,31.55,11.34,58.47,22.82,82.38,35.61,24.01,12.74,45.05,26.83,67.1,42.16,22.04,15.28,45.12,31.76,72.7,48,27.47,16.23,59.31,32.03,96.32,45.98,6.69-14.11,14.15-27.91,25.46-39.73,11.19-11.98,26.1-22.11,44.78-32.57,18.65-10.48,40.94-21.35,66.05-35.65,25.16-14.26,52.99-31.97,84.1-55.15Z"/>
        <path d="m4000,1750c-52.38-.38-92.28-4.41-124.37-12.05-32.21-7.59-56.56-18.81-80.4-32.58-23.83-13.74-47.08-30.04-76.92-47.1-29.69-17.08-66.04-34.87-112.74-51.98-21.96,30.15-44.22,53.75-69.25,73.41-24.95,19.7-52.77,35.44-83.68,50.69-30.81,15.23-64.72,29.91-99.15,46.97-34.38,17-69.04,36.34-100.18,59.54,40.89,6.8,74.58,14.29,103.18,23.8,28.75,9.47,52.45,20.94,76.81,34.54,24.37,13.59,49.38,29.22,81.05,46.63,31.58,17.45,69.74,36.55,118.76,58.13,8.1-21.71,20.5-39.99,38.71-55.9,18.16-16.02,42.02-29.66,72.19-44.73,30.15-15.12,66.71-31.61,109.98-54.8,43.02-23.13,93.55-53.19,146.02-94.57Z"/>
      </g>
      <g>
        <path d="m746.69,2163.1c-40.89-6.8-74.57-14.28-103.18-23.8-28.75-9.47-52.45-20.94-76.81-34.54-24.37-13.59-49.38-29.22-81.05-46.63-31.58-17.45-69.75-36.55-118.76-58.13-8.11,21.71-20.51,39.99-38.71,55.9-18.16,16.02-42.01,29.66-72.18,44.73-30.14,15.13-66.71,31.61-109.98,54.8-43.03,23.13-93.54,53.2-146.02,94.57,52.38.38,92.28,4.41,124.37,12.05,32.21,7.59,56.56,18.81,80.4,32.58,23.83,13.74,47.07,30.04,76.92,47.1,29.69,17.08,66.04,34.87,112.74,51.98,21.96-30.15,44.21-53.75,69.25-73.41,24.95-19.7,52.76-35.44,83.68-50.69,30.81-15.23,64.72-29.91,99.15-46.97,34.38-17,69.04-36.34,100.18-59.54Z"/>
        <path d="m1285.59,2171.75c-31.55-11.33-58.47-22.81-82.38-35.61-24.01-12.74-45.05-26.83-67.11-42.16-22.04-15.28-45.12-31.76-72.7-48-27.47-16.24-59.31-32.03-96.32-45.98-6.69,14.11-14.15,27.91-25.46,39.73-11.19,11.97-26.1,22.11-44.78,32.56-18.64,10.49-40.95,21.35-66.05,35.66-25.16,14.27-52.99,31.97-84.1,55.15,40.85,6.82,73.29,15.34,100.88,26.27,27.66,10.92,50.48,24.23,73.54,40.34,23.01,16.1,46.3,34.97,73.71,56.89,27.23,21.92,58.61,46.88,93.52,75.22,9.97-23.2,19.89-41.47,32.5-56.18,12.5-14.8,27.63-26.01,45.23-37.22,17.53-11.22,37.47-22.46,58.07-37.67,20.58-15.1,41.77-34.36,61.44-59Z"/>
        <path d="m1689.89,2201.08c-22.89-11.28-42.31-23.91-59.74-38.46-17.51-14.52-33.01-31.03-50.06-49.29-17.05-18.2-35.7-38.22-59.48-58.13-23.64-19.85-52.54-39.51-86.91-55.2-.5,15.79-3.87,30.76-10.99,43.38-7.05,12.77-17.79,23.29-31.48,33.96-13.66,10.72-30.27,21.67-48.36,36.45-18.1,14.7-37.62,33.36-57.27,57.96,31.52,11.35,56.41,24.05,77.27,39.37,20.9,15.3,37.8,33.25,54.05,54.73,16.2,21.45,31.74,46.49,48.73,75.16,16.92,28.59,35.1,60.93,54.93,95.03,10.52-30.4,20.02-54.18,31.05-73.28,10.95-19.21,23.38-33.79,37.78-48.2,14.34-14.4,30.61-28.68,47.85-46.84,17.21-18.04,35.38-39.95,52.64-66.63Z"/>
        <path d="m2000,2179.86c-16.74-4.31-30.73-10.84-42.73-20.28-12.08-9.42-22.16-21.69-33.04-36.87-10.92-15.16-22.59-33.26-38.78-54.08-16.15-20.72-36.91-44.47-65.32-68.64-1.99,24.15-6.36,43.17-13.28,58.73-6.9,15.64-16.37,27.78-27.97,39.9-11.58,12.14-25.3,24.21-40.35,40.16-15.06,15.9-31.42,35.66-48.66,62.3,22.86,11.27,40.49,23.05,54.9,36.76,14.45,13.67,25.65,29.33,36.44,47.3,10.79,17.9,21.11,38.16,33.66,59.37,12.5,21.17,27.23,43.18,45.85,63.48,7.51-27.75,15.02-49.52,23.85-67.68,8.79-18.21,18.87-32.83,30.47-47.54,11.58-14.7,24.62-29.48,38.81-47.57,14.21-18.01,29.49-39.27,46.13-65.35Z"/>
        <path d="m750.43,2548.65c-41.52-5.48-75.6-11.34-103.11-20.08-27.73-8.63-48.98-20.09-70.24-34.13-21.29-13.98-42.67-30.49-71.41-47.9-28.58-17.4-64.55-35.7-111.25-52.83-21.98,30.18-46.36,56.41-74.41,80.66-28,24.35-59.81,46.73-95.45,71.54-35.49,24.78-75.01,52.1-114.68,85.74-39.52,33.43-78.95,73.37-109.89,118.36,31.16-3.25,60.18-2.86,84.06,2.44,24.18,5.18,43.51,15.19,62.56,28.37,19.1,13.13,38.08,29.4,62.97,46.01,24.73,16.64,55.58,33.51,94.69,48.54,22.39-37.69,46.61-68.9,74.65-96.29,28.02-27.44,59.9-51.12,96.9-74.8,36.92-23.62,79.01-47.26,125.6-73.05,46.46-25.7,97.46-53.35,149-82.57Z"/>
        <path d="m1280.18,2627.48c-19.39-18.92-34.62-36.68-46.65-54.98-12.16-18.29-21.06-37.21-30.86-58.35-9.86-21.09-20.65-44.45-38.05-70.22-17.32-25.68-41.4-53.75-76.28-82.12-10.04,23.19-23.81,40.54-41.45,54.05-17.67,13.6-39.22,23.35-65.75,33.32-26.55,10-58.15,20.15-96.28,35.22-38.07,15.05-82.89,35.02-134.42,64.24,41.44,5.54,70.86,14.5,92.37,26.29,21.57,11.81,35.26,26.47,46.45,44.09,11.13,17.63,19.74,38.23,29.71,62.32,9.86,24.09,20.9,51.7,34.01,83.66,26.81-24.82,50.88-42.46,74.63-55.28,23.75-12.87,47.21-20.83,72.6-27.41,25.34-6.6,52.58-11.7,82.69-19.45,30.01-7.75,62.92-18.12,97.29-35.38Z"/>
        <path d="m1652.62,2687.8c-21.34-6.63-36.4-17.06-47.12-31.05-10.79-14.01-17.26-31.58-23.19-52.71-5.95-21.12-11.34-45.85-20.35-74.04-8.99-28.15-21.56-59.88-41.4-93.96-10.59,30.4-23.1,53.77-37.37,71.83-14.3,18.14-30.37,31.01-49.05,42.5-18.7,11.47-40.02,21.58-65.26,33.75-25.23,12.09-54.39,26.1-88.72,43.37,19.35,18.92,32.17,37.2,40.28,56.53,8.16,19.32,11.5,39.74,13.01,62.88,1.56,23.11,1.17,48.96,2.84,78.24,1.7,29.19,5.38,61.89,16.01,96.45,23.76-25.15,45.15-44.78,66.29-60.82,21.15-16.14,42.14-28.62,65.38-42.1,23.17-13.49,48.67-28.04,77.15-48.72,28.36-20.54,59.69-47.38,91.49-82.14Z"/>
        <path d="m2000,2566.31c-12.89-5.32-25.42-11.15-36-19.85-10.72-8.6-19.62-19.97-28.56-33.84-8.98-13.84-18.07-30.09-29.88-47.71-11.76-17.66-26.22-36.62-44.82-56.9-7.53,27.77-16.47,51.08-27.6,71.62-11.12,20.62-24.41,38.46-40.62,57.22-16.22,18.76-35.33,38.48-58.3,62.88-22.97,24.28-49.84,53.36-81.59,88.09,21.35,6.58,38.04,13.87,51.07,24.2,13.14,10.22,22.63,23.45,32.01,39.46,9.41,15.95,18.71,34.67,32.23,54.44,13.41,19.75,31.23,40.51,55.25,60.2,13.89-34.72,27.13-62.83,41.15-87.18,13.97-24.4,28.75-45.07,44.41-66.04,15.6-20.91,32.02-42.13,47.8-66.27,15.79-24.04,30.72-50.84,43.46-80.31Z"/>
        <path d="m564.71,3033.37c-30.6-4.11-55.15-9.45-74.46-18.57-19.49-8.98-33.72-21.7-47.92-37.16-14.27-15.39-28.52-33.46-49.68-51.43-21.02-17.99-49.24-35.78-88.36-50.84-22.37,37.7-44.21,69.86-67.71,98.86-23.42,29.07-48.58,55.04-75.6,82.11-26.92,27.01-55.66,55.17-83.59,87.2-27.92,31.91-54.64,67.51-77.38,106.46,23,2.67,45.07,6.17,63.45,13.81,18.62,7.49,33.83,18.95,48.87,33.72,15.07,14.74,30.12,32.63,49.24,52.09,19.03,19.52,42.14,40.46,70.98,63.06,13.66-38.04,29.3-69.88,48.17-98.25,18.87-28.46,40.94-53.47,67.33-79.77,26.38-26.27,57.05-53.89,92.97-86.85,35.88-32.8,77.09-71.05,123.7-114.44Z"/>
        <path d="m1029.88,3070.45c-20.02-21.58-33.53-41.98-41.89-63.27-8.45-21.27-11.65-43.48-12.93-68.1-1.33-24.56-.61-51.52-2.54-80.94-1.97-29.32-6.5-61.13-19.54-93.13-26.84,24.86-51.91,45.2-77.33,62.38-25.46,17.32-51.37,31.42-80.89,47.12-29.46,15.74-62.64,33.11-101.18,58.05-38.37,24.82-82.2,57.43-128.86,100.81,30.55,4.19,51.32,13.76,65.75,28.23,14.51,14.48,22.66,33.83,29.7,58.01,7.04,24.18,12.91,53.22,22.88,87.28,9.91,34.02,23.89,73.22,45.77,116.92,16.99-41.52,35.17-72.68,54.72-96.79,19.6-24.21,40.58-41.43,64.19-56.89,23.6-15.42,49.83-29.06,79.92-44.96,30.06-15.79,63.98-33.67,102.24-54.71Z"/>
        <path d="m1508.31,3182.36c-31.74-9.86-54.88-22.83-71.63-38.51-16.83-15.71-27.34-34.16-35.72-55.57-8.35-21.41-14.59-45.8-22.07-73.48-7.4-27.67-15.9-58.68-26.56-93.2-23.75,25.13-45.71,43.53-67.73,56.88-22.04,13.44-44.17,21.75-68.69,28.68-24.49,6.97-51.34,12.43-82.18,21.29-30.75,8.86-65.55,21.03-103.84,42.03,20.04,21.6,35.03,42.56,46.36,64.7,11.44,22.15,19.15,45.58,27.33,72.47,8.23,26.84,16.95,57.23,31.54,91.94,14.5,34.59,35.01,73.57,64.72,114.72,12.7-32.86,27.85-56.52,45.8-74.55,17.98-18.12,38.76-30.57,63.41-42.84,24.63-12.28,53.18-24.33,86.44-41.84,33.17-17.43,71.2-40.36,112.82-72.69Z"/>
        <path d="m2000,3032.91c-17.28-.62-33.66-4.72-47.25-13.35-13.77-8.53-24.88-21.51-35.88-37.64-11.04-16.09-22.06-35.28-36.74-55.31-14.6-20.04-32.97-40.84-56.96-60.51-13.91,34.73-29.26,63.99-47.43,89.56-18.17,25.66-39.18,47.68-64.37,69.9-25.15,22.2-54.53,44.63-88.62,70.29-33.99,25.57-72.82,54.2-114.45,86.49,31.77,9.81,56.79,19.77,76.53,32.89,19.88,13.02,34.53,29.13,48.94,48.7,14.41,19.5,28.61,42.44,47.67,67.46,18.93,24.98,42.73,52.05,73.21,78.6,16.08-38.26,33.04-69.76,51.77-97.57,18.68-27.9,39.22-52.13,61.47-77.97,22.16-25.8,46.1-53.32,69.38-86.55,23.21-33.02,45.57-71.84,62.71-115.01Z"/>
        <path d="m466.6,3678.07c-30.11-14.91-53.62-30.51-72.66-48.9-19.12-18.3-33.73-39.45-47.9-63.38-14.19-23.82-27.86-50.45-45.5-77.19-17.58-26.7-39.15-53.29-67.99-75.92-13.63,38.04-27.01,68.86-42.23,95.22-15.16,26.44-32.16,48.47-51.53,70.95-19.32,22.46-40.95,45.38-64.28,72.98-23.34,27.49-48.26,59.63-74.51,98.16,26.37,3.2,48.08,10.12,66.24,21.76,18.28,11.59,33.04,27.77,48.38,48.54,15.36,20.76,31.28,46.13,52.54,76.27,21.18,30.02,47.76,65.35,82.84,103.43,6.65-38.04,15.68-67.83,27.89-92.42,12.17-24.69,27.51-44.11,45.92-63.77,18.39-19.67,39.83-39.5,63.79-65.47,23.96-25.89,50.4-57.98,79-100.27Z"/>
        <path d="m963.95,3704.35c-32.25-18.12-57.8-38.09-78.69-61.78-20.97-23.64-37.31-51.04-52.77-82.99-15.44-31.87-29.98-68.33-46.67-108.42-16.62-39.98-35.17-83.64-57.02-127.35-16.93,41.57-32.33,75.41-49.35,103.23-16.95,28-35.49,50.06-56.91,72.29-21.34,22.22-45.55,44.7-72.09,73.34-26.47,28.46-55.23,63.1-83.86,105.41,30.12,14.94,54.33,32.85,74.88,54.57,20.65,21.66,37.65,47.19,55.66,76.32,18,29.02,37.05,61.79,61.65,95.38,24.45,33.44,54.57,67.66,91.22,95.66,5.13-28.18,13.34-54.54,25.24-76.65,11.85-22.36,27.39-40.7,46.2-59.25,18.78-18.62,40.84-37.59,65.06-62.8,24.2-25.06,50.52-56.59,77.45-96.96Z"/>
        <path d="m1474.04,3725.93c-32.7-12.14-58.99-26.74-81.08-44.89-22.17-18.13-40.14-39.8-58.14-65.49-17.99-25.67-36.04-55.32-57.91-88.96-21.73-33.62-47.34-71.21-77.06-112.31-12.65,32.89-24.95,59.58-39.61,81.26-14.57,21.84-31.46,38.66-51.23,55.67-19.71,17.06-42.27,34.35-66.89,58.28-24.57,23.78-51.21,54.47-78.16,94.86,32.26,18.11,58.48,36.93,80.83,58.26,22.43,21.26,41.01,45.1,60.04,71.45,19,26.27,38.48,55.01,62.05,83.74,23.46,28.71,50.94,57.05,83.13,82.21,9.51-25.44,19.52-49.95,32.49-70.66,12.88-20.98,28.66-38.45,47.51-56.18,18.82-17.76,40.64-35.94,64.78-59.34,24.17-23.3,50.55-51.84,79.25-87.9Z"/>
        <path d="m2000,3633.11c-31.33-3.74-55.9-11.75-75.7-24.38-19.91-12.56-35.04-29.73-49.79-50.32-14.77-20.55-29.13-44.5-47.82-69.84-18.62-25.36-41.58-52.05-72.04-78.56-16.07,38.26-32.56,69.11-51.26,94.9-18.66,25.89-39.58,46.73-63.43,67.2-23.78,20.48-50.52,40.52-78.94,64.88-28.37,24.28-58.26,52.88-86.98,88.93,32.7,12.12,58.62,25.12,80.07,41.21,21.54,16.02,38.63,35.11,55.91,57.72,17.28,22.59,34.74,48.61,56.93,77.74,22.1,29.18,48.88,61.28,83.06,97.4,7.55-36.32,17.77-66.09,31.64-91.44,13.83-25.5,31.23-46.6,52.39-69.18,21.13-22.62,46.12-46.71,74.47-79.24,28.2-32.38,60.14-73.55,91.5-127.03Z"/>
      </g>
      <g>
        <path d="m2408,2139.26c-27.75-7.51-49.52-15.02-67.68-23.85-18.21-8.78-32.83-18.87-47.54-30.47-14.7-11.58-29.48-24.62-47.56-38.81-18.01-14.22-39.28-29.49-65.35-46.13-4.31,16.74-10.84,30.73-20.28,42.73-9.42,12.08-21.69,22.16-36.87,33.04-15.16,10.92-33.26,22.59-54.08,38.78-20.72,16.15-44.47,36.91-68.64,65.32,24.15,1.99,43.17,6.35,58.73,13.28,15.64,6.9,27.78,16.37,39.9,27.97,12.14,11.58,24.21,25.3,40.16,40.35,15.9,15.06,35.66,31.41,62.3,48.66,11.27-22.86,23.05-40.5,36.76-54.9,13.67-14.45,29.33-25.65,47.3-36.44,17.9-10.79,38.16-21.11,59.37-33.66,21.17-12.5,43.18-27.23,63.48-45.85Z"/>
        <path d="m2866.11,2176.82c-34.72-13.89-62.83-27.13-87.18-41.15-24.4-13.97-45.07-28.75-66.03-44.41-20.91-15.6-42.13-32.02-66.27-47.8-24.04-15.79-50.84-30.72-80.31-43.47-5.32,12.89-11.15,25.42-19.85,36-8.6,10.72-19.97,19.62-33.84,28.56-13.84,8.98-30.09,18.07-47.71,29.88-17.66,11.76-36.62,26.21-56.9,44.82,27.77,7.53,51.08,16.48,71.62,27.6,20.62,11.12,38.45,24.41,57.22,40.62,18.77,16.22,38.48,35.33,62.88,58.3,24.28,22.97,53.35,49.84,88.09,81.59,6.58-21.35,13.87-38.04,24.2-51.07,10.22-13.15,23.45-22.63,39.46-32.01,15.95-9.41,34.67-18.71,54.44-32.23,19.75-13.41,40.51-31.23,60.2-55.25Z"/>
        <path d="m3410.01,2245.34c-38.26-16.08-69.77-33.05-97.57-51.77-27.89-18.69-52.13-39.22-77.97-61.47-25.79-22.16-53.32-46.1-86.55-69.38-33.02-23.21-71.84-45.57-115.01-62.71-.62,17.28-4.72,33.65-13.35,47.25-8.53,13.77-21.51,24.88-37.64,35.88-16.08,11.04-35.28,22.06-55.31,36.74-20.04,14.6-40.84,32.97-60.51,56.96,34.74,13.92,63.99,29.26,89.56,47.43,25.66,18.17,47.68,39.18,69.9,64.37,22.2,25.15,44.63,54.53,70.29,88.62,25.57,33.99,54.21,72.82,86.49,114.45,9.8-31.77,19.77-56.79,32.89-76.53,13.01-19.88,29.13-34.53,48.7-48.94,19.5-14.4,42.43-28.61,67.46-47.67,24.98-18.92,52.04-42.74,78.6-73.21Z"/>
        <path d="m4000,2250c-36.32-7.54-66.1-17.78-91.44-31.64-25.5-13.83-46.6-31.23-69.18-52.39-22.62-21.13-46.71-46.12-79.24-74.47-32.38-28.2-73.55-60.14-127.04-91.5-3.74,31.32-11.76,55.9-24.38,75.7-12.56,19.91-29.73,35.03-50.32,49.79-20.55,14.77-44.5,29.12-69.84,47.82-25.36,18.62-52.05,41.58-78.56,72.03,38.27,16.07,69.11,32.56,94.9,51.26,25.89,18.65,46.73,39.58,67.2,63.43,20.48,23.78,40.51,50.52,64.88,78.94,24.29,28.37,52.88,58.26,88.93,86.98,12.12-32.7,25.12-58.62,41.21-80.07,16.02-21.54,35.1-38.63,57.72-55.91,22.58-17.28,48.61-34.75,77.74-56.93,29.18-22.11,61.28-48.88,97.4-83.06Z"/>
        <path d="m2436.04,2479.43c-30.4-10.52-54.18-20.02-73.28-31.05-19.2-10.95-33.79-23.38-48.2-37.78-14.4-14.34-28.68-30.61-46.84-47.85-18.04-17.21-39.95-35.37-66.63-52.64-11.28,22.89-23.9,42.32-38.46,59.74-14.52,17.51-31.03,33.01-49.29,50.06-18.2,17.05-38.22,35.7-58.13,59.48-19.85,23.64-39.51,52.54-55.2,86.91,15.79.5,30.76,3.87,43.38,10.99,12.77,7.05,23.29,17.79,33.96,31.48,10.72,13.66,21.67,30.28,36.45,48.36,14.7,18.1,33.35,37.62,57.96,57.27,11.35-31.52,24.05-56.41,39.37-77.27,15.31-20.9,33.24-37.8,54.73-54.05,21.45-16.21,46.49-31.74,75.16-48.73,28.59-16.92,60.93-35.1,95.03-54.93Z"/>
        <path d="m2921.58,2647.68c-25.14-23.76-44.79-45.15-60.82-66.29-16.14-21.15-28.63-42.14-42.1-65.38-13.49-23.17-28.04-48.67-48.72-77.15-20.54-28.36-47.38-59.69-82.14-91.49-6.63,21.34-17.05,36.4-31.05,47.11-14,10.79-31.57,17.25-52.71,23.19-21.12,5.95-45.85,11.33-74.04,20.35-28.15,8.99-59.88,21.56-93.96,41.4,30.4,10.58,53.77,23.1,71.83,37.37,18.14,14.3,31.01,30.37,42.5,49.05,11.48,18.7,21.58,40.02,33.75,65.26,12.08,25.23,26.1,54.38,43.37,88.72,18.92-19.35,37.2-32.17,56.53-40.28,19.32-8.16,39.74-11.5,62.88-13.01,23.1-1.56,48.96-1.17,78.24-2.84,29.19-1.7,61.88-5.39,96.45-16.01Z"/>
        <path d="m3414.28,2800.16c-32.86-12.71-56.52-27.85-74.55-45.8-18.11-17.97-30.57-38.76-42.84-63.41-12.28-24.63-24.33-53.18-41.84-86.44-17.43-33.17-40.36-71.2-72.69-112.82-9.87,31.74-22.83,54.88-38.51,71.63-15.71,16.83-34.16,27.34-55.57,35.72-21.42,8.35-45.79,14.58-73.48,22.07-27.68,7.4-58.68,15.9-93.2,26.56,25.13,23.75,43.53,45.71,56.88,67.73,13.43,22.04,21.75,44.18,28.67,68.69,6.97,24.49,12.44,51.34,21.29,82.18,8.87,30.75,21.03,65.55,42.03,103.84,21.6-20.04,42.56-35.03,64.7-46.36,22.15-11.44,45.58-19.15,72.47-27.33,26.84-8.22,57.23-16.96,91.94-31.54,34.6-14.5,73.57-35.01,114.72-64.72Z"/>
        <path d="m4000,2750c-25.43-9.51-49.95-19.52-70.66-32.49-20.97-12.88-38.46-28.65-56.18-47.51-17.77-18.82-35.93-40.64-59.34-64.78-23.3-24.17-51.85-50.55-87.9-79.26-12.14,32.7-26.74,58.99-44.89,81.08-18.13,22.17-39.8,40.14-65.49,58.14-25.67,17.99-55.32,36.04-88.96,57.91-33.61,21.73-71.21,47.34-112.31,77.06,32.89,12.65,59.58,24.96,81.26,39.61,21.84,14.58,38.65,31.46,55.67,51.23,17.06,19.72,34.35,42.27,58.28,66.89,23.78,24.58,54.47,51.2,94.86,78.16,18.1-32.26,36.93-58.48,58.26-80.83,21.26-22.44,45.1-41.01,71.45-60.04,26.27-19,55.02-38.48,83.74-62.05,28.71-23.46,57.04-50.94,82.21-83.13Z"/>
        <path d="m2361.82,2911.65c-23.2-9.97-41.47-19.89-56.18-32.5-14.8-12.5-26.01-27.63-37.22-45.23-11.22-17.53-22.46-37.48-37.67-58.07-15.1-20.58-34.36-41.77-59-61.44-11.33,31.55-22.82,58.46-35.61,82.38-12.74,24.01-26.84,45.05-42.16,67.11-15.28,22.03-31.76,45.12-48,72.7-16.24,27.47-32.03,59.3-45.98,96.32,14.11,6.7,27.91,14.14,39.73,25.46,11.98,11.19,22.12,26.1,32.57,44.78,10.49,18.65,21.35,40.94,35.66,66.05,14.27,25.16,31.97,52.99,55.15,84.1,6.82-40.85,15.34-73.28,26.27-100.88,10.92-27.66,24.23-50.48,40.34-73.54,16.1-23.02,34.97-46.3,56.89-73.71,21.91-27.23,46.88-58.61,75.22-93.52Z"/>
        <path d="m2765.01,3047.03c-24.81-26.81-42.46-50.88-55.28-74.63-12.87-23.75-20.84-47.21-27.41-72.6-6.6-25.34-11.69-52.58-19.45-82.69-7.75-30.01-18.12-62.92-35.38-97.29-18.92,19.39-36.68,34.62-54.98,46.65-18.29,12.16-37.2,21.05-58.35,30.86-21.08,9.86-44.45,20.66-70.22,38.05-25.68,17.32-53.74,41.4-82.12,76.28,23.19,10.04,40.54,23.81,54.05,41.45,13.6,17.67,23.35,39.22,33.32,65.75,10,26.55,20.14,58.15,35.22,96.28,15.05,38.07,35.02,82.88,64.24,134.42,5.55-41.43,14.5-70.87,26.29-92.37,11.81-21.57,26.47-35.26,44.09-46.45,17.63-11.13,38.23-19.73,62.32-29.71,24.1-9.86,51.71-20.91,83.66-34.01Z"/>
        <path d="m3323.8,3271.19c-41.52-16.98-72.68-35.17-96.79-54.72-24.21-19.6-41.43-40.58-56.89-64.19-15.42-23.6-29.06-49.83-44.96-79.92-15.79-30.06-33.67-63.98-54.71-102.24-21.58,20.02-41.98,33.53-63.27,41.89-21.27,8.45-43.48,11.65-68.1,12.93-24.56,1.33-51.52.6-80.94,2.54-29.32,1.97-61.13,6.5-93.13,19.54,24.86,26.84,45.2,51.91,62.38,77.33,17.32,25.46,31.43,51.37,47.12,80.89,15.74,29.45,33.11,62.64,58.05,101.18,24.82,38.37,57.43,82.2,100.81,128.86,4.18-30.55,13.77-51.32,28.23-65.75,14.48-14.51,33.84-22.66,58.01-29.7,24.17-7.04,53.22-12.91,87.28-22.88,34.02-9.91,73.22-23.88,116.92-45.77Z"/>
        <path d="m4000,3250c-28.18-5.13-54.55-13.34-76.65-25.24-22.36-11.85-40.69-27.39-59.25-46.2-18.62-18.78-37.6-40.84-62.8-65.06-25.06-24.2-56.59-50.51-96.96-77.45-18.11,32.25-38.1,57.8-61.78,78.69-23.65,20.97-51.04,37.3-82.99,52.77-31.87,15.44-68.34,29.98-108.42,46.67-39.97,16.62-83.63,35.17-127.36,57.02,41.57,16.93,75.41,32.33,103.23,49.35,27.99,16.95,50.06,35.49,72.29,56.91,22.22,21.34,44.7,45.55,73.34,72.09,28.46,26.47,63.1,55.23,105.41,83.86,14.93-30.11,32.86-54.33,54.56-74.88,21.66-20.65,47.19-37.65,76.32-55.66,29.02-18,61.8-37.05,95.38-61.65,33.44-24.45,67.66-54.57,95.66-91.22Z"/>
        <path d="m2393.7,3605.57c-30.15-21.96-53.75-44.21-73.41-69.25-19.7-24.95-35.44-52.76-50.69-83.68-15.23-30.81-29.91-64.72-46.97-99.15-16.99-34.39-36.34-69.05-59.54-100.18-6.8,40.89-14.29,74.57-23.8,103.18-9.47,28.75-20.94,52.45-34.54,76.81-13.58,24.37-29.22,49.38-46.63,81.05-17.45,31.59-36.55,69.74-58.13,118.76,21.71,8.11,39.99,20.5,55.9,38.71,16.03,18.16,29.67,42.01,44.73,72.18,15.13,30.15,31.61,66.72,54.8,109.98,23.13,43.03,53.19,93.54,94.57,146.02.38-52.38,4.41-92.27,12.05-124.37,7.59-32.21,18.81-56.55,32.58-80.4,13.74-23.83,30.04-47.08,47.1-76.92,17.08-29.7,34.87-66.03,51.98-112.74Z"/>
        <path d="m2875.36,3695.72c-37.69-22.39-68.9-46.61-96.29-74.65-27.44-28.02-51.12-59.89-74.8-96.9-23.62-36.92-47.26-79.01-73.05-125.6-25.7-46.46-53.35-97.46-82.57-149-5.48,41.52-11.34,75.6-20.08,103.11-8.63,27.74-20.09,48.98-34.13,70.24-13.98,21.29-30.49,42.67-47.9,71.41-17.4,28.58-35.7,64.55-52.83,111.25,30.18,21.99,56.41,46.35,80.66,74.41,24.35,28,46.74,59.81,71.54,95.46,24.78,35.5,52.1,75,85.74,114.68,33.43,39.51,73.37,78.96,118.36,109.89-3.25-31.16-2.87-60.18,2.44-84.06,5.18-24.18,15.19-43.52,28.37-62.56,13.13-19.11,29.41-38.08,46.01-62.97,16.64-24.73,33.5-55.58,48.54-94.69Z"/>
        <path d="m3412.68,3767.46c-38.04-13.66-69.87-29.3-98.25-48.17-28.46-18.86-53.47-40.94-79.77-67.33-26.27-26.38-53.88-57.05-86.85-92.97-32.79-35.88-71.06-77.09-114.44-123.7-4.11,30.59-9.45,55.15-18.57,74.46-8.98,19.49-21.7,33.72-37.16,47.92-15.39,14.27-33.46,28.52-51.43,49.68-17.98,21.02-35.78,49.24-50.84,88.36,37.71,22.37,69.86,44.21,98.86,67.71,29.07,23.41,55.05,48.58,82.11,75.6,27.02,26.92,55.17,55.67,87.2,83.59,31.92,27.92,67.51,54.64,106.46,77.38,2.67-23,6.16-45.07,13.81-63.45,7.48-18.62,18.95-33.83,33.72-48.87,14.74-15.07,32.64-30.12,52.09-49.24,19.52-19.03,40.46-42.14,63.06-70.98Z"/>
        <path d="m4000,3750c-38.04-6.65-67.83-15.68-92.42-27.89-24.69-12.17-44.11-27.51-63.77-45.92-19.67-18.39-39.5-39.84-65.47-63.79-25.88-23.96-57.99-50.4-100.27-79-14.91,30.11-30.51,53.62-48.9,72.66-18.3,19.12-39.45,33.73-63.38,47.9-23.83,14.19-50.45,27.86-77.19,45.5-26.7,17.58-53.29,39.15-75.92,67.99,38.04,13.63,68.87,27.01,95.22,42.23,26.44,15.16,48.47,32.16,70.95,51.53,22.46,19.32,45.38,40.94,72.98,64.28,27.5,23.34,59.64,48.27,98.16,74.51,3.19-26.38,10.12-48.08,21.76-66.24,11.59-18.28,27.78-33.04,48.54-48.38,20.77-15.36,46.13-31.28,76.27-52.54,30.02-21.18,65.35-47.75,103.43-82.84Z"/>
      </g>
    </g>
  </g>
</svg>