<?xml version="1.0" encoding="UTF-8"?>
<svg id="Layer_2" data-name="Layer 2" xmlns="http://www.w3.org/2000/svg" xmlns:xlink="http://www.w3.org/1999/xlink" viewBox="0 0 1703.02 688.94">
  <defs>
    <style>
      .cls-1 {
        fill: url(#linear-gradient);
      }

      .cls-1, .cls-2, .cls-3, .cls-4 {
        opacity: .2;
      }

      .cls-5, .cls-6 {
        fill: #fff;
      }

      .cls-7 {
        fill: red;
      }

      .cls-8 {
        fill: #00a19c;
      }

      .cls-9 {
        fill: #666;
      }

      .cls-10, .cls-11 {
        fill: #333;
      }

      .cls-12 {
        fill: #d3b42a;
      }

      .cls-13 {
        fill: #c6c6c6;
      }

      .cls-14 {
        fill: #212121;
      }

      .cls-15 {
        fill: #111216;
      }

      .cls-16 {
        fill: #961111;
      }

      .cls-17 {
        opacity: .25;
      }

      .cls-2 {
        fill: url(#linear-gradient-3);
      }

      .cls-3 {
        fill: url(#linear-gradient-4);
      }

      .cls-4 {
        fill: url(#linear-gradient-2);
      }

      .cls-11, .cls-6 {
        opacity: .4;
      }
    </style>
    <linearGradient id="linear-gradient" x1="571.17" y1="-83.4" x2="571.17" y2="-312.9" gradientTransform="translate(822.7 262.02)" gradientUnits="userSpaceOnUse">
      <stop offset="0" stop-color="#000"/>
      <stop offset=".07" stop-color="#030303"/>
      <stop offset=".13" stop-color="#0e0e0e"/>
      <stop offset=".2" stop-color="#202020"/>
      <stop offset=".26" stop-color="#3a3a3a"/>
      <stop offset=".31" stop-color="#5c5c5c"/>
      <stop offset=".37" stop-color="#858585"/>
      <stop offset=".43" stop-color="#b5b5b5"/>
      <stop offset=".48" stop-color="#ececec"/>
      <stop offset=".5" stop-color="#fff"/>
      <stop offset=".51" stop-color="#f3f3f3"/>
      <stop offset=".55" stop-color="silver"/>
      <stop offset=".59" stop-color="#929292"/>
      <stop offset=".63" stop-color="#6b6b6b"/>
      <stop offset=".67" stop-color="#4a4a4a"/>
      <stop offset=".72" stop-color="#2e2e2e"/>
      <stop offset=".77" stop-color="#1a1a1a"/>
      <stop offset=".83" stop-color="#0b0b0b"/>
      <stop offset=".89" stop-color="#020202"/>
      <stop offset="1" stop-color="#000"/>
    </linearGradient>
    <linearGradient id="linear-gradient-2" x1="1099.03" x2="1099.03" gradientTransform="translate(294.85 789.88)" xlink:href="#linear-gradient"/>
    <linearGradient id="linear-gradient-3" y1="1056.18" y2="826.68" gradientTransform="translate(-316.88 -877.56)" xlink:href="#linear-gradient"/>
    <linearGradient id="linear-gradient-4" x1="1099.03" y1="1056.18" x2="1099.03" y2="826.68" gradientTransform="translate(-844.73 -349.7)" xlink:href="#linear-gradient"/>
  </defs>
  <g id="Layer_1-2" data-name="Layer 1">
    <g>
      <path class="cls-17" d="m1226.32,595.21v59.22h0c.01,19.06,15.47,34.51,34.53,34.51h162.8c19.06,0,34.52-15.45,34.53-34.51h0v-59.25h0c-.01-19.06-15.47-34.51-34.53-34.51h-29.83v-29.25h-13.57v-37.78l16.03-5.79v-77.67l97.4-7.9c5.48,29.36,31.87,59.13,31.87,59.13v55.81l-31.92,56.8-44.34-7.47c4.28,2.22,7.14,5.92,9.03,9.56,2.42,4.65,3.51,9.89,3.51,15.13v22.79h148.14c8.17,0,14.8-6.63,14.8-14.8v-207.99c.18-.02.36-.03.54-.05.04,0,.08,0,.12-.01,27.32-2.75,25.95-30.29,25.95-30.29,0,0,1.37-27.54-25.95-30.29-.22-.02-.44-.04-.66-.07V122.53c0-8.17-6.63-14.8-14.8-14.8h-148.14v22.79c0,5.25-1.09,10.48-3.51,15.13-1.89,3.64-4.76,7.34-9.03,9.56l44.34-7.47,31.92,56.8v55.81s-26.39,29.77-31.87,59.13l-97.4-7.9v-77.67l-16.03-5.79v-37.78h13.57v-29.25h29.83c19.06,0,34.52-15.45,34.53-34.51h0v-59.25h0c-.01-19.06-15.47-34.51-34.53-34.51h-162.8c-19.06,0-34.52,15.45-34.53,34.51h0v59.25h0c.01,19.06,15.47,34.51,34.53,34.51h46.64v16.9l-88.31,119.22-73.65-5.98-102.76-84.97c-32.31-26.74-74.17-39.05-115.83-34.09l-59.04,7.02c-44.21-78.45-64.29-92.53-161.65-63.25h0c-22.59-15.9-49.53-24.44-77.16-24.44h-166.51c-6.75,0-12.22,5.47-12.22,12.22h-130.73c-.35,0-.69.03-1.03.05v-36.46h0c-.01-19.06-15.47-34.51-34.53-34.51H121.28c-19.06,0-34.52,15.45-34.53,34.51h0v59.25h0c.01,19.06,15.47,34.51,34.53,34.51H0l31.86,2.57v196.06l-31.86,1.16,31.86,1.16v196.06l-31.86,2.57h121.28c-19.06,0-34.52,15.45-34.53,34.51h0v59.25h0c.01,19.06,15.47,34.51,34.53,34.51h162.8c19.06,0,34.52-15.45,34.53-34.51h0v-36.46c.34.02.68.05,1.03.05h130.73c0,6.75,5.47,12.22,12.22,12.22h166.51c27.62,0,54.57-8.53,77.16-24.43h0s0,0,0,0c97.36,29.28,117.44,15.21,161.65-63.25l59.04,7.02c41.66,4.96,83.52-7.35,115.83-34.09l102.76-84.97,73.65-5.98,88.31,119.22v16.9h-46.64c-19.06,0-34.52,15.45-34.53,34.51h0v.03Zm104.19-89.07v-32.52l14.39,15.26v17.26h-14.39ZM184.42,393.71v-65.65h0v65.65h0Zm854.36-111.14c-6.69-.58-13.38-1.08-20.07-1.6-16.02-1.24-73.09-8.96-118.6-56.43l62.96-10.73c18.75-3.21,38.04.49,54.27,10.38l107.12,65.32-85.67-6.95Zm-75.71,225.39l-62.96-10.73c45.51-47.47,102.58-55.18,118.6-56.43,6.69-.52,13.38-1.02,20.07-1.6l85.67-6.95-107.12,65.32c-16.23,9.89-35.52,13.59-54.27,10.38Zm381.83-275.07l-14.39,15.26v-32.52h14.39v17.26Zm-32.89-26.24v61.12l-32.4,34.35-.31-.02,32.7-95.44Zm-1007.18-52.5v7.79c0,3.41-.86,6.59-2.37,9.37l-44.5,5.46-12.33-15.69h38.44c7.79,0,14.98-2.58,20.76-6.94Zm-59.2,406.53l12.33-15.69,44.5,5.46c1.5,2.78,2.37,5.97,2.37,9.37v7.79c-5.78-4.35-12.97-6.94-20.76-6.94h-38.44Zm1033.98-141.03l32.4,34.35v61.12l-32.7-95.44.31-.02Z"/>
      <g>
        <g>
          <g>
            <g>
              <path d="m1014.69,180.99l-73.23,12.48-11.72-19.88-15.66-26.57,64.48-7.67c41.66-4.96,83.52,7.35,115.83,34.09l154.11,127.43-179.55-109.49c-16.23-9.89-35.52-13.59-54.27-10.38Z"/>
              <path class="cls-10" d="m1014.69,180.99l-73.23,12.48-11.74-19.88h.02l58.99-11.18c35.27-6.69,72.08.91,100.9,22.29,1.19.88,2.38,1.8,3.57,2.74,6.21,4.93,12.41,9.88,18.84,14.54l136.46,98.89-179.55-109.49c-16.23-9.89-35.52-13.59-54.27-10.38Z"/>
            </g>
            <g>
              <path d="m1014.69,475.13l-73.23-12.48-11.72,19.88-15.66,26.57,64.48,7.67c41.66,4.96,83.52-7.35,115.83-34.09l154.11-127.43-179.55,109.49c-16.23,9.89-35.52,13.59-54.27,10.38Z"/>
              <path class="cls-10" d="m1014.69,475.13l-73.23-12.48-11.74,19.88h.02l58.99,11.18c35.27,6.69,72.08-.91,100.9-22.29,1.19-.88,2.38-1.8,3.57-2.74,6.21-4.93,12.41-9.88,18.84-14.54l136.46-98.89-179.55,109.49c-16.23,9.89-35.52,13.59-54.27,10.38Z"/>
            </g>
          </g>
          <g>
            <g>
              <g>
                <rect class="cls-14" x="1329.74" y="-51.8" width="128.26" height="231.86" rx="34.53" ry="34.53" transform="translate(1458.01 -1329.74) rotate(90)"/>
                <rect class="cls-1" x="1329.74" y="-51.8" width="128.26" height="231.86" rx="34.53" ry="34.53" transform="translate(1458.01 -1329.74) rotate(90)"/>
                <g>
                  <rect x="1391.41" y="-78.96" width="4.93" height="231.86" transform="translate(1430.85 -1356.9) rotate(90)"/>
                  <rect x="1391.41" y="-24.64" width="4.93" height="231.86" transform="translate(1485.16 -1302.58) rotate(90)"/>
                </g>
              </g>
              <g>
                <rect class="cls-14" x="1329.74" y="476.06" width="128.26" height="231.86" rx="34.53" ry="34.53" transform="translate(1985.86 -801.89) rotate(90)"/>
                <rect class="cls-4" x="1329.74" y="476.06" width="128.26" height="231.86" rx="34.53" ry="34.53" transform="translate(1985.86 -801.89) rotate(90)"/>
                <g>
                  <rect x="1391.41" y="448.9" width="4.93" height="231.86" transform="translate(1958.7 -829.04) rotate(90)"/>
                  <rect x="1391.41" y="503.22" width="4.93" height="231.86" transform="translate(2013.02 -774.73) rotate(90)"/>
                </g>
              </g>
            </g>
            <g>
              <g>
                <rect class="cls-14" x="190.16" y="-51.8" width="128.26" height="231.86" rx="34.53" ry="34.53" transform="translate(318.43 -190.16) rotate(90)"/>
                <rect class="cls-2" x="190.16" y="-51.8" width="128.26" height="231.86" rx="34.53" ry="34.53" transform="translate(318.43 -190.16) rotate(90)"/>
                <g>
                  <rect x="251.83" y="-78.96" width="4.93" height="231.86" transform="translate(291.27 -217.32) rotate(90)"/>
                  <rect x="251.83" y="-24.64" width="4.93" height="231.86" transform="translate(345.59 -163.01) rotate(90)"/>
                </g>
              </g>
              <g>
                <rect class="cls-14" x="190.16" y="476.06" width="128.26" height="231.86" rx="34.53" ry="34.53" transform="translate(846.28 337.69) rotate(90)"/>
                <rect class="cls-3" x="190.16" y="476.06" width="128.26" height="231.86" rx="34.53" ry="34.53" transform="translate(846.28 337.69) rotate(90)"/>
                <g>
                  <rect x="251.83" y="448.9" width="4.93" height="231.86" transform="translate(819.13 310.53) rotate(90)"/>
                  <rect x="251.83" y="503.22" width="4.93" height="231.86" transform="translate(873.44 364.85) rotate(90)"/>
                </g>
              </g>
            </g>
          </g>
          <g>
            <g>
              <path class="cls-13" d="m1545.26,114.92l31.92,56.8v55.81s-26.54,29.93-31.92,59.36l113.9,9.24,9.9-52.88-31.45-154.82-92.35,26.49Z"/>
              <path class="cls-8" d="m1616.42,102.94s1.36,58.16,22.22,91.81c20.86,33.65,20.52,101.39,20.52,101.39l7.64-15.47-13.16-176.57-19.12-4.21-18.11,3.05Z"/>
              <path d="m1676.4,297.95V89.71c0-8.17-6.63-14.8-14.8-14.8h-148.14v22.79c0,5.25-1.09,10.48-3.51,15.13-1.89,3.64-4.76,7.34-9.03,9.56l133.61-22.51s-3.7,51.49,14.18,83.56c17.88,32.07,10.45,112.7,10.45,112.7l17.24,1.81Z"/>
              <path class="cls-8" d="m1601.73,1.44h1.19v162.94h-15.99V16.24c0-8.17,6.63-14.8,14.8-14.8Z" transform="translate(1677.84 -1512.02) rotate(90)"/>
              <polygon class="cls-8" points="1545.26 114.92 1577.18 171.73 1564.33 111.71 1545.26 114.92"/>
            </g>
            <g>
              <path class="cls-13" d="m1545.26,541.2l31.92-56.8v-55.81s-26.54-29.93-31.92-59.36l113.9-9.24,9.9,52.88-31.45,154.82-92.35-26.49Z"/>
              <path class="cls-8" d="m1616.42,553.18s1.36-58.16,22.22-91.81c20.86-33.65,20.52-101.39,20.52-101.39l7.64,15.47-13.16,176.57-19.12,4.21-18.11-3.05Z"/>
              <path d="m1676.4,358.17v208.24c0,8.17-6.63,14.8-14.8,14.8h-148.14v-22.79c0-5.25-1.09-10.48-3.51-15.13-1.89-3.64-4.76-7.34-9.03-9.56l133.61,22.51s-3.7-51.49,14.18-83.56c17.88-32.07,10.45-112.7,10.45-112.7l17.24-1.81Z"/>
              <path class="cls-8" d="m1586.93,491.74h15.99v162.94h-1.19c-8.17,0-14.8-6.63-14.8-14.8v-148.14h0Z" transform="translate(1021.72 2168.14) rotate(-90)"/>
              <polygon class="cls-8" points="1545.26 541.2 1577.18 484.39 1564.33 544.41 1545.26 541.2"/>
            </g>
          </g>
          <g>
            <g>
              <rect x="1387.65" y="99.72" width="29.25" height="86.33" transform="translate(1545.17 -1259.39) rotate(90)"/>
              <rect x="1312.45" y="208.7" width="120.86" height="18.5" transform="translate(1590.83 -1154.94) rotate(90)"/>
              <rect x="1350.07" y="203.97" width="128.26" height="35.35" transform="translate(1635.85 -1192.55) rotate(90)"/>
              <rect x="1376.69" y="162.96" width="25.28" height="14.39" transform="translate(1559.49 -1219.17) rotate(90)"/>
              <polygon points="1330.74 269.82 1408.86 186.98 1447.91 201.09 1447.91 285.78 1330.74 269.82"/>
              <polygon points="1366.1 135.73 1270.41 264.92 1330.74 269.82 1372.88 146.83 1366.1 135.73"/>
            </g>
            <g>
              <rect x="1387.65" y="470.06" width="29.25" height="86.33" transform="translate(889.05 1915.51) rotate(-90)"/>
              <rect x="1312.45" y="428.92" width="120.86" height="18.5" transform="translate(934.71 1811.06) rotate(-90)"/>
              <rect x="1350.07" y="416.79" width="128.26" height="35.35" transform="translate(979.73 1848.67) rotate(-90)"/>
              <rect x="1376.69" y="478.77" width="25.28" height="14.39" transform="translate(903.37 1875.29) rotate(-90)"/>
              <polygon points="1330.74 386.3 1408.86 469.14 1447.91 455.03 1447.91 370.34 1330.74 386.3"/>
              <polygon points="1366.1 520.39 1270.41 391.2 1330.74 386.3 1372.88 509.29 1366.1 520.39"/>
            </g>
          </g>
          <g>
            <polygon points="236.04 288.42 236.04 128.26 297.26 128.26 309.59 143.95 356.46 138.19 439.5 162.04 435.39 269.34 236.04 295.24 236.04 288.42"/>
            <polygon points="236.04 367.71 236.04 527.86 297.26 527.86 309.59 512.17 356.46 517.93 439.5 494.08 435.39 386.78 236.04 360.88 236.04 367.71"/>
          </g>
          <g>
            <path d="m757.87,83.13h0c-22.59-15.9-49.53-24.43-77.16-24.43h-166.51c-6.75,0-12.22,5.47-12.22,12.22h-130.73c-8.17,0-14.8,6.63-14.8,14.8v43.4c0,11.63-10,20.73-21.57,19.65l-31.05-2.91-36.18,18.09,9.87,13.16h92.09c8.17,0,14.8,6.63,14.8,14.8v26.31l-58.17,41.81,341.83-68.12,89.8-108.76Z"/>
            <path d="m757.87,572.99h0c-22.59,15.9-49.53,24.43-77.16,24.43h-166.51c-6.75,0-12.22-5.47-12.22-12.22h-130.73c-8.17,0-14.8-6.63-14.8-14.8v-43.4c0-11.63-10-20.73-21.57-19.65l-31.05,2.91-36.18-18.09,9.87-13.16h92.09c8.17,0,14.8-6.63,14.8-14.8v-26.31l-58.17-41.81,341.83,68.12,89.8,108.76Z"/>
          </g>
          <path class="cls-13" d="m923,503.52c46.04-82.73,127.65-94.02,147.34-95.55,6.69-.52,13.38-1.02,20.07-1.6l542.86-44.06c14.57-1.18,29.13-2.49,43.68-3.95h.12c27.32-2.77,25.95-30.3,25.95-30.3,0,0,1.37-27.54-25.95-30.29-1.32-.13-2.65-.26-3.97-.4-7.83-.8-15.66-1.61-23.51-2.24l-559.18-45.38c-6.69-.58-13.38-1.08-20.07-1.6-19.68-1.53-101.29-12.81-147.34-95.55-52.62-94.55-69.48-102.36-207.2-55.91-81.16,27.38-311.27,125.7-346.76,143.26-39.12,19.36-102.04,47.9-133,47.9v40.21s0,40.21,0,40.21c30.97,0,93.88,28.54,133,47.9,35.49,17.56,265.6,115.89,346.76,143.26,137.72,46.45,154.57,38.64,207.2-55.91Z"/>
          <rect class="cls-8" x="-40.03" y="251.78" width="399.59" height="152.56" transform="translate(487.82 168.3) rotate(90)"/>
          <rect x="22.45" y="314.27" width="399.59" height="27.58" transform="translate(550.31 105.81) rotate(90)"/>
          <rect class="cls-6" x="-102.52" y="314.27" width="399.59" height="27.58" transform="translate(425.34 230.79) rotate(90)"/>
          <g>
            <polygon points="236.04 128.26 51.62 128.26 236.04 143.13 236.04 128.26"/>
            <polygon points="236.04 527.86 51.62 527.86 236.04 512.99 236.04 527.86"/>
          </g>
          <polygon points="236.04 328.06 236.04 321.32 51.62 328.06 236.04 334.8 236.04 328.06"/>
          <g>
            <polygon class="cls-8" points="1655.15 301.09 1110.4 270.04 1132.59 301.09 1655.15 301.09"/>
            <polygon class="cls-8" points="1655.15 355.04 1110.4 386.08 1132.59 355.04 1655.15 355.04"/>
          </g>
          <path d="m864.37,399.59v-143.06s-41.73-77.71-228.37-4.53c-186.64,73.18-346.15,76.06-346.15,76.06,0,0,159.51,2.89,346.15,76.06,186.64,73.18,228.37-4.53,228.37-4.53Z"/>
          <rect class="cls-15" x="822" y="192.4" width="143.06" height="271.33" rx="34.53" ry="34.53" transform="translate(1221.59 -565.47) rotate(90)"/>
          <path class="cls-7" d="m721.31,328.06v-68.05s-149.44,68.05-298.26,68.05c148.82,0,298.26,68.05,298.26,68.05v-68.05Z"/>
          <path class="cls-16" d="m721.31,396.11c-3.41,0-6.17-30.47-6.17-68.05s2.76-68.05,6.17-68.05,6.17,30.47,6.17,68.05-2.76,68.05-6.17,68.05Z"/>
          <ellipse class="cls-12" cx="825.7" cy="328.06" rx="67.83" ry="57.35"/>
          <rect class="cls-9" x="931.28" y="318.81" width="102.98" height="18.5" rx="4.93" ry="4.93" transform="translate(1310.83 -654.71) rotate(90)"/>
          <g>
            <g>
              <g>
                <rect class="cls-10" x="359.74" y="133.57" width="103.6" height="12.74" transform="translate(551.48 -271.6) rotate(90)"/>
                <rect class="cls-11" x="364.47" y="138.3" width="103.6" height="3.29" transform="translate(556.21 -276.33) rotate(90)"/>
              </g>
              <g>
                <rect class="cls-10" x="392.22" y="128.63" width="93.73" height="12.74" transform="translate(574.09 -304.08) rotate(90)"/>
                <rect class="cls-11" x="396.95" y="133.36" width="93.73" height="3.29" transform="translate(578.82 -308.81) rotate(90)"/>
              </g>
              <g>
                <rect class="cls-10" x="427.17" y="121.23" width="78.93" height="12.74" transform="translate(594.24 -339.02) rotate(90)"/>
                <rect class="cls-11" x="431.89" y="125.96" width="78.93" height="3.29" transform="translate(598.97 -343.75) rotate(90)"/>
              </g>
              <g>
                <rect class="cls-10" x="462.11" y="113.83" width="64.13" height="12.74" transform="translate(614.38 -373.97) rotate(90)"/>
                <rect class="cls-11" x="466.84" y="118.56" width="64.13" height="3.29" transform="translate(619.11 -378.7) rotate(90)"/>
              </g>
            </g>
            <g>
              <g>
                <rect class="cls-10" x="359.74" y="509.81" width="103.6" height="12.74" transform="translate(-104.64 927.72) rotate(-90)"/>
                <rect class="cls-11" x="364.47" y="514.54" width="103.6" height="3.29" transform="translate(-99.91 932.45) rotate(-90)"/>
              </g>
              <g>
                <rect class="cls-10" x="392.22" y="514.74" width="93.73" height="12.74" transform="translate(-82.03 960.2) rotate(-90)"/>
                <rect class="cls-11" x="396.95" y="519.47" width="93.73" height="3.29" transform="translate(-77.3 964.93) rotate(-90)"/>
              </g>
              <g>
                <rect class="cls-10" x="427.17" y="522.14" width="78.93" height="12.74" transform="translate(-61.88 995.15) rotate(-90)"/>
                <rect class="cls-11" x="431.89" y="526.87" width="78.93" height="3.29" transform="translate(-57.16 999.87) rotate(-90)"/>
              </g>
              <g>
                <rect class="cls-10" x="462.11" y="529.54" width="64.13" height="12.74" transform="translate(-41.74 1030.09) rotate(-90)"/>
                <rect class="cls-11" x="466.84" y="534.27" width="64.13" height="3.29" transform="translate(-37.01 1034.82) rotate(-90)"/>
              </g>
            </g>
          </g>
          <g>
            <path class="cls-5" d="m874.88,121.22c-4.46-.99-8.81-5.28-13.57-8.72-4.72-3.63-9.84-6.4-15.03-8.89-5.24-2.38-10.65-4.53-16.46-5.82-5.68-1.44-11.77-2.03-15.39-4.81-3.36-2.36-3.82-8.89,3.69-12.72,7-3.86,21.98-5.03,37.81,2.71,16.1,7.18,24.81,19.42,26.34,27.27,1.88,8.22-3.43,12.06-7.39,10.99Z"/>
            <path class="cls-5" d="m874.88,534.9c-4.46.99-8.81,5.28-13.57,8.72-4.72,3.63-9.84,6.4-15.03,8.89-5.24,2.38-10.65,4.53-16.46,5.82-5.68,1.44-11.77,2.03-15.39,4.81-3.36,2.36-3.82,8.89,3.69,12.72,7,3.86,21.98,5.03,37.81-2.71,16.1-7.18,24.81-19.42,26.34-27.27,1.88-8.22-3.43-12.06-7.39-10.99Z"/>
          </g>
          <path class="cls-5" d="m1689.74,336.67c-1.5-1.57-1.77-4.51-2.52-7.19-.66-2.76-1.8-5.25-3.06-7.64-1.33-2.36-2.81-4.67-4.77-6.71-1.85-2.08-4.18-3.89-4.69-6.01-.55-1.86,1.62-4.75,6.14-4.45,4.32.16,11,3.52,14.82,10.89,4.13,7.19,3.34,14.63,1.14,18.35-2.19,3.97-5.79,4.23-7.06,2.76Z"/>
        </g>
        <g>
          <polygon class="cls-8" points="631.79 86.51 523.88 136.64 523.88 136.64 699.83 76.55 523.88 76.55 523.88 76.55 631.79 86.51"/>
          <polygon class="cls-8" points="631.79 569.61 523.88 519.48 523.88 519.48 699.83 579.57 523.88 579.57 523.88 579.57 631.79 569.61"/>
        </g>
      </g>
    </g>
  </g>
</svg>