<?xml version="1.0" encoding="UTF-8"?>
<svg id="Layer_2" data-name="Layer 2" xmlns="http://www.w3.org/2000/svg" viewBox="0 0 431.97 280.08">
  <defs>
    <style>
      .cls-1 {
        fill: #e93f33;
      }
    </style>
  </defs>
  <g id="Layer_1-2" data-name="Layer 1">
    <path class="cls-1" d="m0,279.85L130.17,54.41,94.28.02C158.46.02,155.82-.01,223.03.38L61.54,280.08l-61.54-.23ZM202.9,58.01L236.47.7c102.13-1.33,4.42-.34,106.58-.34,49.1,0,88.92,39.83,88.92,88.95s-39.83,88.95-88.92,88.95c-112.51,0-25.03.11-137.65.11-14.12,24.32-44.13,76.76-58.71,100.83h-70.81c24.97-43.4,66.1-114.75,91.11-158.15,125.38,0,50.74.11,176.06.11,17.58,0,31.83-14.26,31.83-31.86s-14.26-31.86-31.83-31.86c-88.53,0-50.82.57-140.14.57h0Z"/>
  </g>
</svg>